<svg width="163" height="45" viewBox="0 0 163 45" fill="none" xmlns="http://www.w3.org/2000/svg">
<path d="M17.64 17.044C15.834 18.808 14.238 20.047 12.852 20.761C11.508 21.475 10.101 21.832 8.63099 21.832C6.11099 21.832 4.17899 21.034 2.83499 19.438C1.53299 17.8 0.881989 15.448 0.881989 12.382C0.881989 10.366 1.11299 8.371 1.57499 6.397C2.07899 4.381 2.77199 2.575 3.65399 0.978995C3.98999 0.348996 4.30499 0.0339966 4.59899 0.0339966H5.35499C5.56499 0.0339966 5.71199 0.0969968 5.79599 0.222998C5.87999 0.306997 6.00599 0.579997 6.17399 1.042C6.76199 2.722 7.66499 3.94 8.88299 4.696C10.101 5.452 11.739 5.83 13.797 5.83C15.519 5.788 17.199 5.557 18.837 5.137C20.517 4.717 22.113 4.234 23.625 3.688C25.137 3.142 26.565 2.659 27.909 2.239C29.253 1.819 30.471 1.588 31.563 1.546C32.697 1.546 33.6 1.861 34.272 2.491C34.986 3.079 35.343 3.856 35.343 4.822C35.343 5.494 35.112 6.187 34.65 6.901C34.23 7.615 33.474 8.497 32.382 9.547L22.932 18.745C27.888 23.575 30.366 28.636 30.366 33.928C30.366 36.952 29.337 39.409 27.279 41.299C25.221 43.147 22.512 44.071 19.152 44.071C16.926 44.071 14.931 43.672 13.167 42.874C11.445 42.076 10.08 40.942 9.07199 39.472C8.06399 38.002 7.55999 36.301 7.55999 34.369C7.55999 32.563 8.02199 30.862 8.94599 29.266C9.86999 27.67 11.487 25.738 13.797 23.47L31.563 6.208C31.983 5.788 32.193 5.389 32.193 5.011C32.193 4.801 32.109 4.633 31.941 4.507C31.815 4.339 31.647 4.255 31.437 4.255C31.227 4.255 31.017 4.318 30.807 4.444C30.597 4.57 30.24 4.864 29.736 5.326L17.64 17.044Z" fill="#FFDC60"/>
<path d="M40.3712 44.071C38.2712 44.071 36.5492 43.504 35.2052 42.37C33.9032 41.236 33.2522 39.766 33.2522 37.96C33.2522 36.154 33.9032 34.684 35.2052 33.55C36.5492 32.416 38.2712 31.849 40.3712 31.849C42.4712 31.849 44.1722 32.416 45.4742 33.55C46.8182 34.684 47.4902 36.154 47.4902 37.96C47.4902 39.766 46.8182 41.236 45.4742 42.37C44.1722 43.504 42.4712 44.071 40.3712 44.071Z" fill="#FFDC60"/>
<path d="M60.7064 17.044C58.9004 18.808 57.3044 20.047 55.9184 20.761C54.5744 21.475 53.1674 21.832 51.6974 21.832C49.1774 21.832 47.2454 21.034 45.9014 19.438C44.5994 17.8 43.9484 15.448 43.9484 12.382C43.9484 10.366 44.1794 8.371 44.6414 6.397C45.1454 4.381 45.8384 2.575 46.7204 0.978995C47.0564 0.348996 47.3714 0.0339966 47.6654 0.0339966H48.4214C48.6314 0.0339966 48.7784 0.0969968 48.8624 0.222998C48.9464 0.306997 49.0724 0.579997 49.2404 1.042C49.8284 2.722 50.7314 3.94 51.9494 4.696C53.1674 5.452 54.8054 5.83 56.8634 5.83C58.5854 5.788 60.2654 5.557 61.9034 5.137C63.5834 4.717 65.1794 4.234 66.6914 3.688C68.2034 3.142 69.6314 2.659 70.9754 2.239C72.3194 1.819 73.5374 1.588 74.6294 1.546C75.7634 1.546 76.6664 1.861 77.3384 2.491C78.0524 3.079 78.4094 3.856 78.4094 4.822C78.4094 5.494 78.1784 6.187 77.7164 6.901C77.2964 7.615 76.5404 8.497 75.4484 9.547L65.9984 18.745C70.9544 23.575 73.4324 28.636 73.4324 33.928C73.4324 36.952 72.4034 39.409 70.3454 41.299C68.2874 43.147 65.5784 44.071 62.2184 44.071C59.9924 44.071 57.9974 43.672 56.2334 42.874C54.5114 42.076 53.1464 40.942 52.1384 39.472C51.1304 38.002 50.6264 36.301 50.6264 34.369C50.6264 32.563 51.0884 30.862 52.0124 29.266C52.9364 27.67 54.5534 25.738 56.8634 23.47L74.6294 6.208C75.0494 5.788 75.2594 5.389 75.2594 5.011C75.2594 4.801 75.1754 4.633 75.0074 4.507C74.8814 4.339 74.7134 4.255 74.5034 4.255C74.2934 4.255 74.0834 4.318 73.8734 4.444C73.6634 4.57 73.3064 4.864 72.8024 5.326L60.7064 17.044Z" fill="#FFDC60"/>
<path d="M83.4376 44.071C81.3376 44.071 79.6156 43.504 78.2716 42.37C76.9696 41.236 76.3186 39.766 76.3186 37.96C76.3186 36.154 76.9696 34.684 78.2716 33.55C79.6156 32.416 81.3376 31.849 83.4376 31.849C85.5376 31.849 87.2386 32.416 88.5406 33.55C89.8846 34.684 90.5566 36.154 90.5566 37.96C90.5566 39.766 89.8846 41.236 88.5406 42.37C87.2386 43.504 85.5376 44.071 83.4376 44.071Z" fill="#FFDC60"/>
<path d="M98.4537 29.329C98.4537 28.573 98.6427 27.985 99.0207 27.565C99.3987 27.103 99.9237 26.872 100.596 26.872C101.1 26.872 101.646 27.019 102.234 27.313C102.864 27.565 103.578 27.88 104.376 28.258C105.216 28.594 106.224 28.909 107.4 29.203C108.576 29.455 109.983 29.581 111.621 29.581C114.057 29.581 116.367 29.119 118.551 28.195C120.777 27.271 122.436 26.074 123.528 24.604C123.738 24.31 123.864 24.142 123.906 24.1C123.99 24.058 124.074 24.037 124.158 24.037H125.229C125.523 24.037 125.712 24.184 125.796 24.478C125.922 24.73 125.985 25.276 125.985 26.116C125.985 31.618 124.662 35.986 122.016 39.22C119.412 42.454 115.863 44.071 111.369 44.071C108.639 44.071 106.224 43.63 104.124 42.748C102.024 41.824 100.113 40.375 98.3907 38.401C98.0127 38.401 97.7187 38.611 97.5087 39.031C97.3407 39.409 97.1307 40.249 96.8787 41.551C96.7947 42.097 96.6897 42.475 96.5637 42.685C96.4377 42.895 96.2067 43 95.8707 43H94.2957C93.7917 43 93.5397 42.664 93.5397 41.992V29.518C93.5397 27.502 93.8127 25.948 94.3587 24.856C94.9047 23.764 95.8077 22.945 97.0677 22.399C98.3697 21.811 100.176 21.391 102.486 21.139C105.72 20.761 108.219 19.753 109.983 18.115C111.747 16.477 112.629 14.314 112.629 11.626C112.629 9.148 111.81 7.132 110.172 5.578C108.534 3.982 106.455 3.184 103.935 3.184C102.885 3.184 102.36 3.499 102.36 4.129C102.36 4.465 102.486 4.759 102.738 5.011H103.116C105.426 5.011 107.232 5.599 108.534 6.775C109.878 7.951 110.55 9.526 110.55 11.5C110.55 13.768 109.689 15.616 107.967 17.044C106.287 18.472 104.082 19.186 101.352 19.186C98.4117 19.186 96.0387 18.409 94.2327 16.855C92.4687 15.259 91.5867 13.159 91.5867 10.555C91.5867 8.581 92.2377 6.796 93.5397 5.2C94.8417 3.604 96.7107 2.344 99.1467 1.42C101.583 0.495997 104.397 0.0339966 107.589 0.0339966C111.285 0.0339966 114.498 0.579997 117.228 1.672C119.958 2.722 122.058 4.276 123.528 6.334C125.04 8.392 125.796 10.828 125.796 13.642C125.796 16.162 125.208 18.472 124.032 20.572C122.856 22.672 121.176 24.352 118.992 25.612C116.808 26.872 114.33 27.502 111.558 27.502C110.13 27.502 108.807 27.355 107.589 27.061C106.413 26.767 105.342 26.431 104.376 26.053C103.452 25.675 102.612 25.339 101.856 25.045C101.1 24.751 100.428 24.604 99.8397 24.604C98.7477 24.604 97.8867 25.045 97.2567 25.927C96.6687 26.809 96.3747 28.048 96.3747 29.644V35.818C96.5427 35.986 96.7947 36.07 97.1307 36.07C98.0127 36.07 98.4537 35.629 98.4537 34.747V29.329Z" fill="#FFDC60"/>
<path d="M148.908 32.668C148.908 29.602 147.879 27.187 145.821 25.423C143.763 23.659 140.949 22.777 137.379 22.777H135.741C135.237 22.777 134.985 22.546 134.985 22.084V21.013C134.985 20.551 135.237 20.32 135.741 20.32H137.442C141.054 20.32 143.868 19.543 145.884 17.989C147.9 16.393 148.908 14.167 148.908 11.311C148.908 8.917 148.215 6.964 146.829 5.452C145.485 3.94 143.742 3.184 141.6 3.184C140.97 3.184 140.466 3.268 140.088 3.436C139.752 3.604 139.584 3.856 139.584 4.192C139.584 4.486 139.71 4.759 139.962 5.011H140.34C142.398 5.011 143.994 5.536 145.128 6.586C146.262 7.636 146.829 9.148 146.829 11.122C146.829 13.474 146.052 15.28 144.498 16.54C142.944 17.758 140.697 18.367 137.757 18.367C135.153 18.367 133.011 17.611 131.331 16.099C129.693 14.587 128.874 12.655 128.874 10.303C128.874 7.111 130.323 4.612 133.221 2.806C136.161 0.957998 140.172 0.0339966 145.254 0.0339966C150.168 0.0339966 154.032 1.042 156.846 3.058C159.702 5.074 161.13 7.825 161.13 11.311C161.13 13.873 160.248 15.973 158.484 17.611C156.72 19.249 154.179 20.32 150.861 20.824C154.683 21.034 157.623 22.063 159.681 23.911C161.739 25.759 162.768 28.3 162.768 31.534C162.768 34.012 162.033 36.196 160.563 38.086C159.135 39.976 157.035 41.446 154.263 42.496C151.491 43.546 148.236 44.071 144.498 44.071C139.416 44.071 135.384 43.084 132.402 41.11C129.462 39.136 127.992 36.448 127.992 33.046C127.992 30.568 128.895 28.573 130.701 27.061C132.549 25.507 134.964 24.73 137.946 24.73C140.592 24.73 142.734 25.486 144.372 26.998C146.01 28.468 146.829 30.421 146.829 32.857C146.829 34.789 146.241 36.301 145.065 37.393C143.931 38.443 142.356 38.968 140.34 38.968H139.962C139.71 39.22 139.584 39.493 139.584 39.787C139.584 40.081 139.752 40.333 140.088 40.543C140.466 40.711 140.97 40.795 141.6 40.795C143.742 40.795 145.485 40.039 146.829 38.527C148.215 37.015 148.908 35.062 148.908 32.668Z" fill="#FFDC60"/>
</svg>
