<svg width="27" height="26" viewBox="0 0 27 26" fill="none" xmlns="http://www.w3.org/2000/svg">
<path d="M11.4047 3.79392C11.534 2.5461 11.8317 1.62138 12.2173 1.00861C12.6506 0.319716 13.2076 -0.0120452 13.7863 0.000333894C14.3557 0.012713 14.9176 0.361186 15.3787 1.03275C15.8014 1.64862 16.1511 2.56529 16.3424 3.76792C17.3103 2.43345 18.2647 1.72227 19.0526 1.52606C19.5112 1.41156 19.9246 1.46417 20.2681 1.6579C20.6116 1.85163 20.8672 2.18154 21.0201 2.62904C21.2955 3.4374 21.2219 4.68089 20.6345 6.21899C21.7776 5.70835 22.7264 5.50348 23.4475 5.53133C24.0856 5.55609 24.5727 5.75601 24.8883 6.08839C25.22 6.43749 25.3537 6.90975 25.2714 7.46124C25.1433 8.31911 24.4544 9.40353 23.1219 10.4867C24.369 10.6161 25.2937 10.9138 25.907 11.2988C26.4467 11.6386 26.7679 12.0551 26.8756 12.5002C26.9883 12.9681 26.8676 13.4447 26.5204 13.8811C25.9801 14.5619 24.8419 15.1555 23.1473 15.4285C24.1629 16.1638 24.8146 16.8836 25.1513 17.5218C25.449 18.0863 25.519 18.6074 25.389 19.0469C25.2535 19.5086 24.9106 19.8608 24.3901 20.0657C23.5855 20.3832 22.3006 20.3294 20.6976 19.7172C21.207 20.8598 21.4119 21.8093 21.384 22.531C21.3593 23.1691 21.1594 23.6562 20.827 23.9719C20.4779 24.3037 20.0057 24.4374 19.4549 24.355C18.5971 24.2269 17.5121 23.538 16.429 22.2054C16.3003 23.4526 16.002 24.3773 15.6176 24.9907C15.2772 25.5304 14.8607 25.8517 14.4157 25.9588C13.9478 26.072 13.4712 25.9513 13.0349 25.6041C12.3541 25.0638 11.7612 23.9255 11.4876 22.2308C10.7524 23.2465 10.0319 23.8983 9.39323 24.235C8.8294 24.5327 8.30828 24.6026 7.86885 24.4727C7.40714 24.3365 7.05436 23.9936 6.85012 23.4737C6.53262 22.669 6.58647 21.3841 7.19857 19.7803C6.05668 20.2897 5.10789 20.494 4.38562 20.4668C3.7469 20.442 3.26044 20.2415 2.94479 19.9097C2.61306 19.5612 2.47875 19.089 2.56169 18.5375C2.6898 17.6796 3.37865 16.5946 4.71116 15.512C3.46406 15.3827 2.5394 15.0849 1.92606 14.6999C1.38637 14.3601 1.06516 13.9436 0.957467 13.4979C0.844825 13.03 0.964894 12.554 1.31272 12.117C1.85303 11.4362 2.99121 10.8432 4.68579 10.5696C3.67325 9.83618 3.02401 9.11633 2.68423 8.48066C2.38715 7.91679 2.31722 7.39563 2.44657 6.95617C2.58273 6.49443 2.92561 6.14162 3.44611 5.93675C4.2507 5.61984 5.53555 5.67369 7.13854 6.28584C6.6267 5.13829 6.42246 4.18943 6.45031 3.46711C6.47444 2.82835 6.67497 2.34185 7.00733 2.02618C7.35577 1.69442 7.82862 1.56011 8.37945 1.64305C9.23726 1.77117 10.3222 2.46007 11.4053 3.79268L11.4047 3.79392ZM11.4004 10.0831L11.3812 10.0999C11.3193 10.1525 11.2623 10.2069 11.2048 10.2639L11.1899 10.2787C10.8322 10.6361 10.5486 11.0607 10.3555 11.5281C10.1624 11.9955 10.0636 12.4964 10.0647 13.0021V13.0436C10.0719 13.8334 10.3229 14.6017 10.7833 15.2434L10.7883 15.2508C10.9103 15.4188 11.0459 15.5765 11.1936 15.7225C11.2376 15.7664 11.2821 15.8097 11.3279 15.8512H11.331L11.3533 15.871L11.3564 15.8741C12.0604 16.5042 12.9721 16.8524 13.9169 16.8521H13.9583C14.7479 16.8443 15.516 16.5933 16.1579 16.1334L16.1654 16.1285L16.1697 16.1254C16.665 15.7683 17.0683 15.2986 17.3465 14.7551C17.6246 14.2115 17.7696 13.6097 17.7696 12.999C17.7696 12.986 17.7696 12.9731 17.7696 12.9601C17.7623 12.1704 17.5116 11.4022 17.0516 10.7603L17.0479 10.7553L17.0448 10.751C16.9274 10.5883 16.7974 10.4349 16.6562 10.2923L16.6401 10.2756C15.9313 9.56602 14.9729 9.16211 13.9701 9.15037H13.9169C12.9925 9.14895 12.0987 9.48127 11.3997 10.0862L11.4004 10.0831Z" fill="white"/>
<path d="M13.9165 18C12.9276 18 11.9609 17.7068 11.1387 17.1573C10.3164 16.6079 9.67555 15.8271 9.29711 14.9134C8.91867 13.9998 8.81965 12.9945 9.01258 12.0246C9.20551 11.0546 9.68171 10.1637 10.381 9.46447C11.0802 8.76521 11.9711 8.289 12.9411 8.09608C13.911 7.90315 14.9163 8.00217 15.8299 8.38061C16.7436 8.75904 17.5244 9.39991 18.0739 10.2222C18.6233 11.0444 18.9165 12.0111 18.9165 13C18.9126 14.3249 18.3845 15.5944 17.4477 16.5312C16.5109 17.468 15.2414 17.9961 13.9165 18Z" fill="#FFDC61"/>
</svg>
