<svg width="315" height="369" viewBox="0 0 315 369" fill="none" xmlns="http://www.w3.org/2000/svg">
<path d="M89.4007 70.1239C81.9682 77.3701 75.3999 82.4597 69.6958 85.3927C64.1646 88.3257 58.3742 89.7922 52.3244 89.7922C41.9534 89.7922 34.0023 86.5142 28.4711 79.958C23.1128 73.2294 20.4336 63.5677 20.4336 50.9731C20.4336 42.6917 21.3843 34.4965 23.2856 26.3876C25.3598 18.1062 28.2118 10.6874 31.8417 4.1313C33.2245 1.54336 34.5209 0.24939 35.7308 0.24939H38.8421C39.7064 0.24939 40.3113 0.508185 40.657 1.02578C41.0027 1.37083 41.5213 2.49228 42.2127 4.39011C44.6326 11.2913 48.3489 16.2946 53.3615 19.4002C58.3742 22.5057 65.1153 24.0585 73.585 24.0585C80.6718 23.8859 87.5858 22.937 94.327 21.2117C101.241 19.4864 107.809 17.5023 114.032 15.2595C120.254 13.0166 126.131 11.0325 131.663 9.3072C137.194 7.5819 142.206 6.63299 146.701 6.46045C151.367 6.46045 155.084 7.75442 157.849 10.3424C160.788 12.7578 162.257 15.9496 162.257 19.9178C162.257 22.6782 161.306 25.525 159.405 28.458C157.676 31.391 154.565 35.0141 150.071 39.3273L111.18 77.1113C131.576 96.9522 141.774 117.742 141.774 139.481C141.774 151.903 137.539 161.996 129.07 169.76C120.6 177.351 109.451 181.147 95.6233 181.147C86.4623 181.147 78.2519 179.508 70.9922 176.23C63.9054 172.951 58.2877 168.293 54.1393 162.255C49.9909 156.216 47.9167 149.229 47.9167 141.292C47.9167 133.874 49.8181 126.886 53.6208 120.33C57.4235 113.774 64.0782 105.837 73.585 96.5209L146.701 25.6112C148.429 23.8859 149.293 22.2469 149.293 20.6941C149.293 19.8315 148.948 19.1414 148.256 18.6238C147.738 17.9337 147.046 17.5886 146.182 17.5886C145.318 17.5886 144.453 17.8474 143.589 18.365C142.725 18.8826 141.256 20.0903 139.182 21.9881L89.4007 70.1239Z" fill="#FB3F3F"/>
<path d="M170.386 179.699C164.409 179.699 159.509 178.155 155.684 175.067C151.978 171.979 150.125 167.975 150.125 163.057C150.125 158.138 151.978 154.135 155.684 151.047C159.509 147.958 164.409 146.414 170.386 146.414C176.363 146.414 181.204 147.958 184.909 151.047C188.734 154.135 190.646 158.138 190.646 163.057C190.646 167.975 188.734 171.979 184.909 175.067C181.204 178.155 176.363 179.699 170.386 179.699Z" fill="#FB3F3F"/>
<path d="M241.401 70.1238C233.893 77.3701 227.258 82.4597 221.495 85.3927C215.908 88.3257 210.058 89.7922 203.947 89.7922C193.47 89.7922 185.438 86.5142 179.85 79.958C174.437 73.2294 171.73 63.5677 171.73 50.9731C171.73 42.6916 172.691 34.4965 174.612 26.3876C176.707 18.1062 179.588 10.6874 183.255 4.1313C184.652 1.54336 185.961 0.24939 187.184 0.24939H190.327C191.2 0.24939 191.811 0.508185 192.16 1.02578C192.51 1.37083 193.033 2.49228 193.732 4.39011C196.176 11.2913 199.931 16.2946 204.994 19.4002C210.058 22.5057 216.868 24.0585 225.424 24.0585C232.583 23.8859 239.568 22.937 246.378 21.2117C253.362 19.4864 259.998 17.5023 266.284 15.2595C272.57 13.0166 278.507 11.0325 284.094 9.3072C289.682 7.5819 294.746 6.63299 299.286 6.46045C304 6.46045 307.755 7.75442 310.548 10.3424C313.517 12.7578 315.001 15.9496 315.001 19.9178C315.001 22.6782 314.041 25.525 312.12 28.458C310.374 31.391 307.231 35.0141 302.691 39.3273L263.403 77.1113C284.007 96.9522 294.309 117.742 294.309 139.481C294.309 151.903 290.031 161.996 281.475 169.76C272.919 177.351 261.657 181.147 247.687 181.147C238.433 181.147 230.139 179.508 222.805 176.229C215.646 172.951 209.971 168.293 205.78 162.255C201.589 156.216 199.494 149.229 199.494 141.292C199.494 133.874 201.415 126.886 205.256 120.33C209.098 113.774 215.82 105.837 225.424 96.5209L299.286 25.6112C301.032 23.8859 301.905 22.2469 301.905 20.6941C301.905 19.8315 301.556 19.1414 300.857 18.6238C300.333 17.9337 299.635 17.5886 298.762 17.5886C297.889 17.5886 297.016 17.8474 296.143 18.365C295.27 18.8826 293.785 20.0903 291.69 21.9881L241.401 70.1238Z" fill="#FB3F3F"/>
<path d="M66.1426 310.751C66.1426 307.764 66.8896 305.441 68.3837 303.781C69.8778 301.956 71.9529 301.043 74.6091 301.043C76.6012 301.043 78.7593 301.624 81.0834 302.785C83.5736 303.781 86.3957 305.026 89.5499 306.519C92.8701 307.847 96.8543 309.092 101.503 310.253C106.151 311.249 111.712 311.747 118.187 311.747C127.815 311.747 136.946 309.921 145.578 306.27C154.377 302.619 160.934 297.89 165.25 292.082C166.08 290.92 166.578 290.256 166.744 290.09C167.076 289.924 167.408 289.841 167.74 289.841H171.974C173.136 289.841 173.883 290.422 174.215 291.584C174.713 292.579 174.962 294.737 174.962 298.056C174.962 319.795 169.733 337.054 159.274 349.833C148.981 362.611 134.954 369 117.191 369C106.4 369 96.8544 367.258 88.5539 363.773C80.2534 360.122 72.7 354.396 65.8936 346.597C64.3995 346.597 63.2374 347.426 62.4074 349.086C61.7433 350.579 60.9133 353.898 59.9172 359.043C59.5852 361.2 59.1702 362.694 58.6722 363.524C58.1741 364.353 57.2611 364.768 55.933 364.768H49.7076C47.7155 364.768 46.7195 363.441 46.7195 360.785V311.498C46.7195 303.532 47.7985 297.392 49.9567 293.077C52.1148 288.763 55.684 285.526 60.6643 283.369C65.8106 281.046 72.949 279.386 82.0795 278.391C94.8622 276.897 104.74 272.914 111.712 266.442C118.685 259.97 122.171 251.423 122.171 240.803C122.171 231.011 118.934 223.046 112.459 216.906C105.985 210.599 97.7674 207.446 87.8069 207.446C83.6566 207.446 81.5815 208.691 81.5815 211.18C81.5815 212.508 82.0795 213.67 83.0756 214.665H84.5697C93.7002 214.665 100.839 216.989 105.985 221.635C111.297 226.282 113.953 232.505 113.953 240.305C113.953 249.266 110.55 256.568 103.744 262.21C97.1034 267.853 88.3879 270.674 77.5973 270.674C65.9766 270.674 56.597 267.604 49.4586 261.464C42.4862 255.157 39 246.86 39 236.571C39 228.771 41.5732 221.718 46.7195 215.412C51.8658 209.106 59.2532 204.127 68.8817 200.476C78.5103 196.825 89.633 195 102.25 195C116.859 195 129.558 197.157 140.349 201.472C151.139 205.621 159.44 211.761 165.25 219.893C171.227 228.024 174.215 237.649 174.215 248.768C174.215 258.725 171.891 267.853 167.242 276.15C162.594 284.448 155.954 291.086 147.321 296.064C138.689 301.043 128.894 303.532 117.938 303.532C112.293 303.532 107.064 302.951 102.25 301.79C97.6014 300.628 93.3681 299.3 89.5499 297.807C85.8977 296.313 82.5775 294.986 79.5894 293.824C76.6012 292.662 73.945 292.082 71.6209 292.082C67.3047 292.082 63.9015 293.824 61.4113 297.309C59.0872 300.794 57.9251 305.69 57.9251 311.996V336.391C58.5892 337.054 59.5852 337.386 60.9133 337.386C64.3995 337.386 66.1426 335.644 66.1426 332.159V310.751Z" fill="#FB3F3F"/>
<path d="M259.217 323.944C259.217 311.83 255.15 302.288 247.015 295.318C238.881 288.348 227.758 284.863 213.647 284.863H207.173C205.181 284.863 204.185 283.95 204.185 282.124V277.893C204.185 276.067 205.181 275.155 207.173 275.155H213.896C228.173 275.155 239.296 272.084 247.264 265.944C255.233 259.638 259.217 250.843 259.217 239.558C259.217 230.099 256.478 222.382 250.999 216.408C245.687 210.433 238.798 207.446 230.331 207.446C227.841 207.446 225.849 207.778 224.355 208.442C223.027 209.106 222.363 210.102 222.363 211.429C222.363 212.591 222.861 213.67 223.857 214.665H225.351C233.485 214.665 239.794 216.74 244.276 220.888C248.758 225.037 250.999 231.011 250.999 238.811C250.999 248.104 247.928 255.24 241.786 260.219C235.644 265.031 226.762 267.438 215.141 267.438C204.849 267.438 196.382 264.451 189.742 258.476C183.268 252.502 180.03 244.868 180.03 235.575C180.03 222.963 185.758 213.089 197.212 205.953C208.833 198.651 224.687 195 244.774 195C264.197 195 279.47 198.983 290.593 206.949C301.881 214.914 307.526 225.784 307.526 239.558C307.526 249.681 304.039 257.979 297.067 264.451C290.095 270.923 280.051 275.155 266.936 277.146C282.043 277.976 293.664 282.041 301.798 289.343C309.933 296.645 314 306.685 314 319.464C314 329.255 311.095 337.884 305.285 345.352C299.64 352.82 291.34 358.628 280.383 362.777C269.426 366.926 256.561 369 241.786 369C221.699 369 205.762 365.1 193.975 357.3C182.354 349.501 176.544 338.88 176.544 325.438C176.544 315.647 180.113 307.764 187.252 301.79C194.556 295.649 204.102 292.579 215.888 292.579C226.347 292.579 234.813 295.567 241.288 301.541C247.762 307.349 250.999 315.066 250.999 324.691C250.999 332.325 248.675 338.299 244.027 342.614C239.545 346.763 233.319 348.837 225.351 348.837H223.857C222.861 349.833 222.363 350.911 222.363 352.073C222.363 353.235 223.027 354.23 224.355 355.06C225.849 355.724 227.841 356.056 230.331 356.056C238.798 356.056 245.687 353.069 250.999 347.094C256.478 341.12 259.217 333.403 259.217 323.944Z" fill="#FB3F3F"/>
<path d="M6.3128 200.487C8.24645 198.337 11.09 196.413 14.8436 194.716C18.7109 192.905 22.1232 192 25.0806 192C25.9905 192 26.5592 192.509 26.7867 193.528L26.9573 194.207C27.0711 194.659 27.128 195.055 27.128 195.395C27.2417 195.734 27.2986 196.017 27.2986 196.244C27.2986 197.262 26.5024 197.941 24.91 198.28C20.3602 199.299 16.6635 200.77 13.8199 202.694C11.09 204.617 9.72512 206.654 9.72512 208.804C9.72512 210.162 10.0664 211.181 10.7488 211.86C14.0474 208.804 17.6872 207.277 21.6682 207.277C25.8768 207.277 29.2891 208.691 31.9052 211.52C34.6351 214.236 36 217.801 36 222.214C36 226.967 34.3507 230.814 31.0521 233.756C27.8673 236.585 23.6019 238 18.2559 238C12.6825 238 8.24645 236.303 4.94787 232.908C1.64929 229.4 0 224.76 0 218.989C0 214.915 0.454976 211.464 1.36493 208.635C2.38863 205.806 4.03791 203.09 6.3128 200.487Z" fill="#FB3F3F"/>
</svg>
