<svg width="509" height="179" viewBox="0 0 509 179" fill="none" xmlns="http://www.w3.org/2000/svg">
<path d="M33 69.4001C33.4 69.9334 34.0333 70.2001 34.9 70.2001C35.5 70.2001 35.9667 69.9667 36.3 69.5001C36.6333 69.0334 36.8 68.4334 36.8 67.7001V15.8001C36.8 15.0667 36.6333 14.4667 36.3 14.0001C35.9667 13.5334 35.5 13.3 34.9 13.3C34.0333 13.3 33.4 13.5667 33 14.1001V69.4001ZM37 8.50005C46.8667 8.50005 54.5333 11.4334 60 17.3001C65.5333 23.1001 68.3 31.2001 68.3 41.6001C68.3 48.1334 67.0333 53.9334 64.5 59.0001C61.9667 64.0001 58.3 67.9334 53.5 70.8001C48.7667 73.6001 43.2333 75.0001 36.9 75.0001H9.5C8.3 75.0001 7.43333 74.7334 6.9 74.2001C6.43333 73.6667 6.2 72.7667 6.2 71.5001V19.8C6.2 17.6667 5.93333 16.1667 5.4 15.3001C4.86667 14.3667 3.4 13.1334 1 11.6001C0.666667 11.4001 0.5 11.1001 0.5 10.7001V9.50005C0.5 8.83338 0.9 8.50005 1.7 8.50005H37Z" fill="#C40000"/>
<path d="M71.2102 10.2001C71.2102 7.20005 72.3768 4.80005 74.7102 3.00005C77.0435 1.20005 80.1768 0.300049 84.1102 0.300049C88.0435 0.300049 91.1768 1.20005 93.5102 3.00005C95.9102 4.80005 97.1102 7.20005 97.1102 10.2001C97.1102 13.1334 95.9102 15.5001 93.5102 17.3001C91.1768 19.1001 88.0435 20.0001 84.1102 20.0001C80.1768 20.0001 77.0435 19.1334 74.7102 17.4001C72.3768 15.6001 71.2102 13.2001 71.2102 10.2001ZM94.2102 24.2001C95.4768 24.2001 96.3435 24.4667 96.8102 25.0001C97.3435 25.4667 97.6102 26.2667 97.6102 27.4001V59.9001C97.6102 61.0334 97.7102 61.8001 97.9102 62.2001C98.1102 62.6001 98.4435 62.8 98.9102 62.8C99.5102 62.8 99.9102 62.5667 100.11 62.1001C100.377 61.6334 100.643 60.5667 100.91 58.9001C101.043 57.7667 101.177 57.1001 101.31 56.9001C101.443 56.6334 101.71 56.5001 102.11 56.5001H103.81C104.21 56.5001 104.477 56.7334 104.61 57.2001C104.81 57.6667 104.91 58.4667 104.91 59.6001C104.91 64.9334 103.477 69.0334 100.61 71.9001C97.7435 74.7667 93.6435 76.2001 88.3102 76.2001C83.1768 76.2001 79.2102 74.7667 76.4102 71.9001C73.6768 68.9667 72.3102 64.8001 72.3102 59.4001V36.5C72.3102 34.1667 71.9768 32.4001 71.3102 31.2001C70.6435 29.9334 69.4102 28.7667 67.6102 27.7001C67.1435 27.4334 66.8768 27.2334 66.8102 27.1001C66.6768 26.9001 66.6102 26.6667 66.6102 26.4001V25.2001C66.6102 24.5334 67.0102 24.2001 67.8102 24.2001H94.2102Z" fill="#C40000"/>
<path d="M110.029 24.2001C115.762 24.2001 119.662 25.9001 121.729 29.3001C123.662 27.1667 125.829 25.6001 128.229 24.6001C130.629 23.5334 133.396 23 136.529 23C141.396 23 145.396 24.3334 148.529 27.0001C151.662 29.6667 153.229 33.0667 153.229 37.2001C153.229 40.6667 151.962 43.5001 149.429 45.7001C146.896 47.8334 143.629 48.9001 139.629 48.9001C135.696 48.9001 132.462 47.9001 129.929 45.9001C127.462 43.9001 126.229 41.3667 126.229 38.3001C126.229 35.7001 127.129 33.5667 128.929 31.9001C130.729 30.2334 133.029 29.4001 135.829 29.4001C136.029 29.0667 136.129 28.7334 136.129 28.4001C136.129 27.4667 135.429 27.0001 134.029 27.0001C131.096 27.0001 128.562 28.1334 126.429 30.4001C124.296 32.6001 123.229 35.2667 123.229 38.4001C123.229 41.0667 123.962 43.4334 125.429 45.5001C126.962 47.5001 129.129 49.1 131.929 50.3C132.862 50.7 133.462 51.1667 133.729 51.7001C134.062 52.1667 134.229 53 134.229 54.2001V71.8001C134.229 73.9334 133.096 75.0001 130.829 75.0001H110.529C108.462 75.0001 107.429 73.9334 107.429 71.8001V36.5C107.429 34.1667 107.096 32.4001 106.429 31.2001C105.762 29.9334 104.529 28.7667 102.729 27.7001C102.262 27.4334 101.996 27.2334 101.929 27.1001C101.796 26.9001 101.729 26.6667 101.729 26.4001V25.2001C101.729 24.5334 102.129 24.2001 102.929 24.2001H110.029Z" fill="#C40000"/>
<path d="M176.327 51.9001C176.327 53.4334 177.627 54.8667 180.227 56.2001C182.827 57.4667 185.727 58.1001 188.927 58.1001C195.26 58.1001 200.46 55.9667 204.527 51.7001C204.927 51.3001 205.193 51.0667 205.327 51.0001C205.527 50.8667 205.793 50.8 206.127 50.8H207.327C207.793 50.8 208.093 50.9667 208.227 51.3C208.427 51.6334 208.527 52.2334 208.527 53.1001C208.527 57.2334 207.393 61.0667 205.127 64.6001C202.927 68.0667 199.76 70.8667 195.627 73.0001C191.56 75.1334 186.993 76.2001 181.927 76.2001C176.527 76.2001 171.66 75.1001 167.327 72.9001C162.993 70.7001 159.527 67.5667 156.927 63.5001C154.393 59.4334 153.127 54.8001 153.127 49.6001C153.127 44.4667 154.327 39.9001 156.727 35.9001C159.127 31.9001 162.527 28.7667 166.927 26.5001C171.393 24.1667 176.593 23 182.527 23C186.993 23 190.993 23.7 194.527 25.1001C198.127 26.5001 200.96 28.5001 203.027 31.1001C205.093 33.7001 206.127 36.7001 206.127 40.1001C206.127 44.4334 204.56 48.0334 201.427 50.9001C198.293 53.7001 194.327 55.1001 189.527 55.1001C184.727 55.1001 180.827 53.5 177.827 50.3C177.427 50.3 177.06 50.4667 176.727 50.8C176.46 51.0667 176.327 51.4334 176.327 51.9001ZM179.327 45.0001C179.727 45.5334 180.26 45.8 180.927 45.8C182.127 45.8 182.727 45.1334 182.727 43.8001V29.6001C182.727 28.2667 182.127 27.6 180.927 27.6C180.26 27.6 179.727 27.8667 179.327 28.4001V45.0001Z" fill="#C40000"/>
<path d="M230.732 38.4001C230.732 41.2001 231.399 43.7667 232.732 46.1001C234.065 48.4334 235.932 50.3334 238.332 51.8C240.799 53.2 243.565 53.9001 246.632 53.9001C249.365 53.9001 251.765 53.4667 253.832 52.6001C255.965 51.6667 258.065 50.1334 260.132 48.0001C260.532 47.6001 260.799 47.3667 260.932 47.3C261.132 47.1667 261.399 47.1001 261.732 47.1001H263.032C263.765 47.1001 264.132 47.7667 264.132 49.1001C264.132 54.1001 262.965 58.6667 260.632 62.8C258.365 66.8667 255.132 70.1334 250.932 72.6001C246.732 75.0001 241.932 76.2001 236.532 76.2001C231.399 76.2001 226.765 75.1334 222.632 73.0001C218.499 70.8001 215.232 67.7001 212.832 63.7001C210.432 59.7001 209.232 55.0667 209.232 49.8001C209.232 44.7334 210.432 40.2001 212.832 36.2001C215.232 32.1334 218.665 28.9334 223.132 26.6001C227.665 24.2001 232.865 23 238.732 23C242.932 23 246.665 23.6334 249.932 24.9C253.265 26.1 255.899 27.8667 257.832 30.2001C259.765 32.4667 260.732 35.1001 260.732 38.1001C260.732 41.7667 259.432 44.8334 256.832 47.3C254.299 49.7 251.032 50.9001 247.032 50.9001C243.299 50.9001 240.132 49.7 237.532 47.3C234.999 44.8334 233.732 41.8334 233.732 38.3001C233.732 35.7001 234.632 33.5667 236.432 31.9001C238.232 30.2334 240.532 29.4001 243.332 29.4001C243.532 29.0667 243.632 28.7334 243.632 28.4001C243.632 27.4667 242.932 27.0001 241.532 27.0001C238.599 27.0001 236.065 28.1334 233.932 30.4001C231.799 32.6001 230.732 35.2667 230.732 38.4001Z" fill="#C40000"/>
<path d="M274.654 13.4C274.921 12.1334 275.321 11.3 275.854 10.9001C276.454 10.4334 277.321 10.2001 278.454 10.2001H289.354C290.621 10.2001 291.487 10.4667 291.954 11C292.487 11.4667 292.754 12.2667 292.754 13.4V24.2001H302.654C303.454 24.2001 303.854 24.5334 303.854 25.2001V27.0001C303.854 27.6667 303.454 28 302.654 28H292.754V59.4001C292.754 60.7334 292.921 61.6334 293.254 62.1001C293.654 62.5667 294.354 62.8 295.354 62.8C296.154 62.8 296.721 62.5334 297.054 62.0001C297.454 61.4667 297.787 60.4334 298.054 58.9001C298.187 57.8334 298.321 57.1667 298.454 56.9001C298.654 56.6334 298.954 56.5001 299.354 56.5001H300.954C301.354 56.5001 301.621 56.7334 301.754 57.2001C301.954 57.6667 302.054 58.4667 302.054 59.6001C302.054 64.9334 300.587 69.0334 297.654 71.9001C294.721 74.7667 290.554 76.2001 285.154 76.2001C279.554 76.2001 275.187 74.6667 272.054 71.6001C268.987 68.5334 267.454 64.2334 267.454 58.7001V28H261.554C260.754 28 260.354 27.6667 260.354 27.0001V25.2001C260.354 24.5334 260.754 24.2001 261.554 24.2001H261.954C265.087 24.2001 267.387 23.9001 268.854 23.3001C270.321 22.7001 271.454 21.6667 272.254 20.2001C273.121 18.7334 273.921 16.4667 274.654 13.4Z" fill="#C40000"/>
<path d="M302.519 10.2001C302.519 7.20005 303.685 4.80005 306.019 3.00005C308.352 1.20005 311.485 0.300049 315.419 0.300049C319.352 0.300049 322.485 1.20005 324.819 3.00005C327.219 4.80005 328.419 7.20005 328.419 10.2001C328.419 13.1334 327.219 15.5001 324.819 17.3001C322.485 19.1001 319.352 20.0001 315.419 20.0001C311.485 20.0001 308.352 19.1334 306.019 17.4001C303.685 15.6001 302.519 13.2001 302.519 10.2001ZM325.519 24.2001C326.785 24.2001 327.652 24.4667 328.119 25.0001C328.652 25.4667 328.919 26.2667 328.919 27.4001V59.9001C328.919 61.0334 329.019 61.8001 329.219 62.2001C329.419 62.6001 329.752 62.8 330.219 62.8C330.819 62.8 331.219 62.5667 331.419 62.1001C331.685 61.6334 331.952 60.5667 332.219 58.9001C332.352 57.7667 332.485 57.1001 332.619 56.9001C332.752 56.6334 333.019 56.5001 333.419 56.5001H335.119C335.519 56.5001 335.785 56.7334 335.919 57.2001C336.119 57.6667 336.219 58.4667 336.219 59.6001C336.219 64.9334 334.785 69.0334 331.919 71.9001C329.052 74.7667 324.952 76.2001 319.619 76.2001C314.485 76.2001 310.519 74.7667 307.719 71.9001C304.985 68.9667 303.619 64.8001 303.619 59.4001V36.5C303.619 34.1667 303.285 32.4001 302.619 31.2001C301.952 29.9334 300.719 28.7667 298.919 27.7001C298.452 27.4334 298.185 27.2334 298.119 27.1001C297.985 26.9001 297.919 26.6667 297.919 26.4001V25.2001C297.919 24.5334 298.319 24.2001 299.119 24.2001H325.519Z" fill="#C40000"/>
<path d="M365.138 71.6001C366.338 71.6001 366.938 70.7001 366.938 68.9001V30.3C366.938 28.5 366.338 27.6 365.138 27.6C363.938 27.6 363.337 28.5 363.337 30.3V68.9001C363.337 70.7001 363.938 71.6001 365.138 71.6001ZM365.138 76.2001C355.738 76.2001 348.571 73.9334 343.638 69.4001C338.771 64.8667 336.337 58.2667 336.337 49.6001C336.337 40.9334 338.771 34.3334 343.638 29.8001C348.571 25.2667 355.738 23 365.138 23C374.538 23 381.671 25.2667 386.538 29.8001C391.471 34.3334 393.938 40.9334 393.938 49.6001C393.938 58.2667 391.471 64.8667 386.538 69.4001C381.671 73.9334 374.538 76.2001 365.138 76.2001Z" fill="#C40000"/>
<path d="M409.463 24.2001C412.73 24.2001 415.33 24.8001 417.263 26.0001C419.263 27.1334 420.63 28.9334 421.363 31.4001C422.897 28.6667 424.963 26.6001 427.563 25.2001C430.23 23.7334 433.23 23 436.563 23C441.363 23 445.03 24.4334 447.563 27.3C450.097 30.1667 451.363 34.2334 451.363 39.5001V71.8001C451.363 72.9334 451.097 73.7667 450.563 74.3001C450.097 74.7667 449.23 75.0001 447.963 75.0001H429.963C428.697 75.0001 427.797 74.7667 427.263 74.3001C426.797 73.7667 426.563 72.9334 426.563 71.8001V37.4001C426.563 36.6667 426.397 36.0667 426.063 35.6001C425.73 35.1334 425.263 34.9001 424.663 34.9001C423.863 34.9001 423.297 35.1667 422.963 35.7001V71.8001C422.963 72.9334 422.697 73.7667 422.163 74.3001C421.697 74.7667 420.83 75.0001 419.563 75.0001H401.563C400.297 75.0001 399.397 74.7667 398.863 74.3001C398.397 73.7667 398.163 72.9334 398.163 71.8001V36.5C398.163 34.1667 397.83 32.4001 397.163 31.2001C396.497 29.9334 395.263 28.7667 393.463 27.7001C392.997 27.4334 392.73 27.2334 392.663 27.1001C392.53 26.9001 392.463 26.6667 392.463 26.4001V25.2001C392.463 24.5334 392.863 24.2001 393.663 24.2001H409.463Z" fill="#C40000"/>
<path d="M478.589 63.5001C478.589 65.2334 477.989 66.7001 476.789 67.9001C475.589 69.0334 473.956 69.6667 471.889 69.8001C471.622 70.2001 471.489 70.5667 471.489 70.9001C471.489 71.7667 472.089 72.2001 473.289 72.2001C475.422 72.2001 477.322 71.3001 478.989 69.5001C480.722 67.6334 481.589 65.5001 481.589 63.1001C481.589 60.3667 480.656 58.2334 478.789 56.7001C476.922 55.1001 473.689 53.7667 469.089 52.7001C460.356 50.7 455.989 46.4334 455.989 39.9001C455.989 34.7001 458.489 30.6 463.489 27.6C468.556 24.5334 475.389 23 483.989 23C491.056 23 496.556 24.1001 500.489 26.3001C504.422 28.4334 506.389 31.4334 506.389 35.3001C506.389 37.9667 505.356 40.1001 503.289 41.7001C501.222 43.2334 498.356 44.0001 494.689 44.0001C491.089 44.0001 488.156 43.2334 485.889 41.7001C483.622 40.1667 482.489 38.1667 482.489 35.7001C482.489 33.9667 483.089 32.5334 484.289 31.4001C485.489 30.2001 487.122 29.5334 489.189 29.4001C489.456 29.0001 489.589 28.6334 489.589 28.3001C489.589 27.4334 488.989 27.0001 487.789 27.0001C485.656 27.0001 483.722 27.9334 481.989 29.8001C480.322 31.6001 479.489 33.7001 479.489 36.1001C479.489 38.8334 480.489 41.0001 482.489 42.6001C484.556 44.2001 487.956 45.5001 492.689 46.5001C498.289 47.6334 502.289 49.2334 504.689 51.3C507.089 53.3 508.289 56.1667 508.289 59.9001C508.289 65.1667 505.922 69.2001 501.189 72.0001C496.522 74.8001 489.789 76.2001 480.989 76.2001C472.989 76.2001 466.589 75.0667 461.789 72.8001C457.056 70.5334 454.689 67.5334 454.689 63.8001C454.689 61.1334 455.722 59.0334 457.789 57.5001C459.922 55.9667 462.789 55.2001 466.389 55.2001C469.989 55.2001 472.922 55.9667 475.189 57.5001C477.456 59.0334 478.589 61.0334 478.589 63.5001Z" fill="#C40000"/>
<path d="M56.3929 113.821C49.6589 114.635 44.1089 116.892 39.7429 120.592C35.3769 124.292 33.1939 128.658 33.1939 133.69C33.1939 139.166 35.0439 143.569 38.7439 146.899C42.5179 150.155 47.4759 151.783 53.6179 151.783C59.0199 151.783 63.5709 150.266 67.2709 147.232C70.9709 144.198 72.8209 140.498 72.8209 136.132C72.8209 133.542 72.1549 131.174 70.8229 129.028C69.5649 126.882 67.7519 125.18 65.3839 123.922C63.0899 122.59 60.4999 121.924 57.6139 121.924C54.9499 121.924 52.4339 122.442 50.0659 123.478C47.7719 124.514 45.8849 125.957 44.4049 127.807C42.9989 129.657 42.2959 131.729 42.2959 134.023C42.2959 136.613 43.2209 138.87 45.0709 140.794C46.9949 142.644 49.1779 143.569 51.6199 143.569C53.3959 143.569 54.2839 143.014 54.2839 141.904C54.2839 141.534 54.2099 141.201 54.0619 140.905C51.3979 140.757 49.3259 140.091 47.8459 138.907C46.4399 137.723 45.7369 136.132 45.7369 134.134C45.7369 131.618 46.8099 129.546 48.9559 127.918C51.1759 126.216 53.9879 125.365 57.3919 125.365C60.7959 125.365 63.6079 126.364 65.8279 128.362C68.0479 130.36 69.1579 132.913 69.1579 136.021C69.1579 139.499 67.6779 142.422 64.7179 144.79C61.7579 147.158 58.0579 148.342 53.6179 148.342C48.7339 148.342 44.7009 147.047 41.5189 144.457C38.4109 141.793 36.8569 138.389 36.8569 134.245C36.8569 130.101 38.4109 126.512 41.5189 123.478C44.7009 120.37 49.1039 118.224 54.7279 117.04C57.9099 116.448 61.3139 115.93 64.9399 115.486C74.2639 114.376 81.0349 112.637 85.2529 110.269C89.5449 107.827 91.6909 104.571 91.6909 100.501C91.6909 97.763 90.7659 95.469 88.9159 93.619C87.0659 91.695 84.8459 90.733 82.2559 90.733C80.4059 90.733 79.4809 91.251 79.4809 92.287C79.4809 92.435 79.5179 92.62 79.5919 92.842C79.6659 93.064 79.7399 93.249 79.8139 93.397C82.4039 93.471 84.4019 94.174 85.8079 95.506C87.2879 96.838 88.0279 98.614 88.0279 100.834C88.0279 103.202 87.0289 105.163 85.0309 106.717C83.1069 108.197 80.6279 108.937 77.5939 108.937C74.2639 108.937 71.5259 108.012 69.3799 106.162C67.3079 104.312 66.2719 101.944 66.2719 99.058C66.2719 95.358 67.7149 92.361 70.6009 90.067C73.4869 87.773 77.2609 86.626 81.9229 86.626C86.3629 86.626 89.9519 87.921 92.6899 90.511C95.4279 93.027 96.7969 96.357 96.7969 100.501C96.7969 105.903 94.1699 110.232 88.9159 113.488C83.6619 116.67 75.9659 118.668 65.8279 119.482C69.5279 120.666 72.4879 122.812 74.7079 125.92C77.0019 128.954 78.1489 132.432 78.1489 136.354C78.1489 140.72 76.7799 144.605 74.0419 148.009C71.3039 151.413 67.3819 154.077 62.2759 156.001C57.1699 157.925 51.2129 158.887 44.4049 158.887C36.7829 158.887 30.0859 157.888 24.3139 155.89C18.6159 153.892 14.1389 151.006 10.8829 147.232C7.70086 143.458 6.10986 139.018 6.10986 133.912C6.10986 128.732 8.03386 124.329 11.8819 120.703C15.8039 117.003 21.1689 114.598 27.9769 113.488C23.3149 112.896 19.4299 111.157 16.3219 108.271C13.2139 105.385 11.6599 102.092 11.6599 98.392C11.6599 93.212 14.2129 89.068 19.3189 85.96C24.4989 82.852 31.3809 81.298 39.9649 81.298C47.4389 81.298 53.3589 82.556 57.7249 85.072C62.0909 87.514 64.2739 90.844 64.2739 95.062C64.2739 98.614 63.0529 101.389 60.6109 103.387C58.2429 105.385 54.9129 106.384 50.6209 106.384C46.8469 106.384 43.7759 105.533 41.4079 103.831C39.0399 102.129 37.8559 99.946 37.8559 97.282C37.8559 94.988 38.7069 93.175 40.4089 91.843C42.1849 90.511 44.6269 89.808 47.7349 89.734C48.1789 89.216 48.4009 88.661 48.4009 88.069C48.3269 87.181 47.4759 86.737 45.8479 86.737C42.5919 86.737 39.8169 87.81 37.5229 89.956C35.3029 92.028 34.1929 94.581 34.1929 97.615C34.1929 101.315 35.8579 104.238 39.1879 106.384C42.5179 108.456 47.1059 109.492 52.9519 109.492H56.3929C57.2809 109.492 57.7249 109.862 57.7249 110.602V112.822C57.7249 113.192 57.6139 113.451 57.3919 113.599C57.2439 113.673 56.9109 113.747 56.3929 113.821Z" fill="#C40000"/>
<path d="M140 127.4C140.4 127.933 141.033 128.2 141.9 128.2C142.5 128.2 142.967 127.967 143.3 127.5C143.633 127.033 143.8 126.433 143.8 125.7V94.8001C143.8 94.0667 143.633 93.4667 143.3 93.0001C142.967 92.5334 142.5 92.3 141.9 92.3C141.033 92.3 140.4 92.5667 140 93.1001V127.4ZM147 87.5001C155.533 87.5001 161.967 89.5001 166.3 93.5001C170.7 97.4334 172.9 103.267 172.9 111C172.9 118.067 170.733 123.7 166.4 127.9C162.067 132.1 156.167 134.2 148.7 134.2C145.433 134.2 142.533 133.8 140 133V150.5C140 151.767 139.767 152.667 139.3 153.2C138.833 153.733 137.967 154 136.7 154H116.5C115.233 154 114.367 153.733 113.9 153.2C113.433 152.667 113.2 151.767 113.2 150.5V98.9001C113.2 97.2334 113.067 96.0334 112.8 95.3001C112.533 94.5001 112.067 93.8001 111.4 93.2001C110.733 92.5334 109.6 91.6667 108 90.6001C107.667 90.4001 107.5 90.1001 107.5 89.7001V88.5C107.5 87.8334 107.9 87.5001 108.7 87.5001H147Z" fill="#C40000"/>
<path d="M199.304 133.6C198.904 133.067 198.371 132.8 197.704 132.8C196.571 132.8 196.004 133.467 196.004 134.8V141.2C196.004 142.533 196.571 143.2 197.704 143.2C198.371 143.2 198.904 142.933 199.304 142.4V133.6ZM215.404 155.2C208.671 155.2 203.871 152.433 201.004 146.9C199.471 149.767 197.571 151.867 195.304 153.2C193.104 154.533 190.371 155.2 187.104 155.2C182.504 155.2 178.804 154.067 176.004 151.8C173.204 149.533 171.804 146.533 171.804 142.8C171.804 139.533 172.937 136.967 175.204 135.1C177.537 133.167 181.104 131.867 185.904 131.2C198.171 129.6 204.304 124.967 204.304 117.3C204.304 114.233 203.237 111.6 201.104 109.4C198.971 107.133 196.437 106 193.504 106C192.104 106 191.404 106.467 191.404 107.4C191.404 107.733 191.504 108.067 191.704 108.4C194.504 108.4 196.804 109.233 198.604 110.9C200.404 112.567 201.304 114.7 201.304 117.3C201.304 120.367 200.004 122.9 197.404 124.9C194.871 126.9 191.604 127.9 187.604 127.9C183.537 127.9 180.304 126.9 177.904 124.9C175.504 122.833 174.304 120.133 174.304 116.8C174.304 112.333 176.471 108.767 180.804 106.1C185.137 103.367 190.871 102 198.004 102C206.537 102 213.004 104.067 217.404 108.2C221.871 112.333 224.104 118.4 224.104 126.4V138.9C224.104 140.033 224.204 140.8 224.404 141.2C224.604 141.6 224.937 141.8 225.404 141.8C226.004 141.8 226.437 141.533 226.704 141C226.971 140.467 227.204 139.433 227.404 137.9C227.537 136.767 227.671 136.1 227.804 135.9C227.937 135.633 228.204 135.5 228.604 135.5H230.304C230.704 135.5 230.971 135.733 231.104 136.2C231.304 136.667 231.404 137.433 231.404 138.5C231.404 143.833 230.004 147.967 227.204 150.9C224.471 153.767 220.537 155.2 215.404 155.2Z" fill="#C40000"/>
<path d="M235.537 103.2C241.27 103.2 245.17 104.9 247.237 108.3C249.17 106.167 251.337 104.6 253.737 103.6C256.137 102.533 258.903 102 262.037 102C266.903 102 270.903 103.333 274.037 106C277.17 108.667 278.737 112.067 278.737 116.2C278.737 119.667 277.47 122.5 274.937 124.7C272.403 126.833 269.137 127.9 265.137 127.9C261.203 127.9 257.97 126.9 255.437 124.9C252.97 122.9 251.737 120.367 251.737 117.3C251.737 114.7 252.637 112.567 254.437 110.9C256.237 109.233 258.537 108.4 261.337 108.4C261.537 108.067 261.637 107.733 261.637 107.4C261.637 106.467 260.937 106 259.537 106C256.603 106 254.07 107.133 251.937 109.4C249.803 111.6 248.737 114.267 248.737 117.4C248.737 120.067 249.47 122.433 250.937 124.5C252.47 126.5 254.637 128.1 257.437 129.3C258.37 129.7 258.97 130.167 259.237 130.7C259.57 131.167 259.737 132 259.737 133.2V150.8C259.737 152.933 258.603 154 256.337 154H236.037C233.97 154 232.937 152.933 232.937 150.8V115.5C232.937 113.167 232.603 111.4 231.937 110.2C231.27 108.933 230.037 107.767 228.237 106.7C227.77 106.433 227.503 106.233 227.437 106.1C227.303 105.9 227.237 105.667 227.237 105.4V104.2C227.237 103.533 227.637 103.2 228.437 103.2H235.537Z" fill="#C40000"/>
<path d="M280.034 94.4001C280.034 92.0667 279.701 90.3 279.034 89.1C278.368 87.8334 277.134 86.6667 275.334 85.6001C274.868 85.3334 274.601 85.1334 274.534 85C274.401 84.8001 274.334 84.5667 274.334 84.3001V83.1C274.334 82.4334 274.734 82.1 275.534 82.1H301.434C302.701 82.1 303.568 82.3667 304.034 82.9001C304.568 83.3667 304.834 84.1667 304.834 85.3V112.3C306.568 109.033 308.968 106.5 312.034 104.7C315.168 102.9 318.668 102 322.534 102C327.668 102 331.868 103.467 335.134 106.4C338.468 109.267 340.134 112.9 340.134 117.3C340.134 121.033 338.868 124.067 336.334 126.4C333.801 128.733 330.534 129.9 326.534 129.9C321.068 129.9 317.201 127.767 314.934 123.5C313.801 123.5 313.234 124.1 313.234 125.3C313.234 126.5 313.801 127.667 314.934 128.8C316.068 129.933 317.634 130.9 319.634 131.7C321.634 132.5 323.734 132.9 325.934 132.9C331.668 132.9 336.368 130.933 340.034 127C340.434 126.6 340.701 126.367 340.834 126.3C341.034 126.167 341.301 126.1 341.634 126.1H342.834C343.301 126.1 343.601 126.267 343.734 126.6C343.934 126.933 344.034 127.633 344.034 128.7C344.034 136.967 342.434 143.467 339.234 148.2C336.034 152.867 331.634 155.2 326.034 155.2C320.301 155.2 315.834 153.067 312.634 148.8C309.434 144.467 307.834 138.467 307.834 130.8C307.834 124.067 309.168 118.667 311.834 114.6C314.501 110.467 318.068 108.4 322.534 108.4C322.801 108.067 322.934 107.667 322.934 107.2C322.934 106.733 322.734 106.4 322.334 106.2C322.001 105.933 321.568 105.8 321.034 105.8C317.901 105.8 315.134 106.867 312.734 109C310.334 111.133 308.401 114.233 306.934 118.3C305.534 122.3 304.834 126.633 304.834 131.3V150.8C304.834 151.933 304.568 152.767 304.034 153.3C303.501 153.767 302.634 154 301.434 154H283.434C281.168 154 280.034 152.933 280.034 150.8V94.4001Z" fill="#C40000"/>
<path d="M344.675 89.2001C344.675 86.2001 345.842 83.8001 348.175 82C350.508 80.2 353.642 79.3 357.575 79.3C361.508 79.3 364.642 80.2 366.975 82C369.375 83.8001 370.575 86.2001 370.575 89.2001C370.575 92.1334 369.375 94.5001 366.975 96.3001C364.642 98.1001 361.508 99.0001 357.575 99.0001C353.642 99.0001 350.508 98.1334 348.175 96.4001C345.842 94.6001 344.675 92.2001 344.675 89.2001ZM367.675 103.2C368.942 103.2 369.808 103.467 370.275 104C370.808 104.467 371.075 105.267 371.075 106.4V138.9C371.075 140.033 371.175 140.8 371.375 141.2C371.575 141.6 371.908 141.8 372.375 141.8C372.975 141.8 373.375 141.567 373.575 141.1C373.842 140.633 374.108 139.567 374.375 137.9C374.508 136.767 374.642 136.1 374.775 135.9C374.908 135.633 375.175 135.5 375.575 135.5H377.275C377.675 135.5 377.942 135.733 378.075 136.2C378.275 136.667 378.375 137.467 378.375 138.6C378.375 143.933 376.942 148.033 374.075 150.9C371.208 153.767 367.108 155.2 361.775 155.2C356.642 155.2 352.675 153.767 349.875 150.9C347.142 147.967 345.775 143.8 345.775 138.4V115.5C345.775 113.167 345.442 111.4 344.775 110.2C344.108 108.933 342.875 107.767 341.075 106.7C340.608 106.433 340.342 106.233 340.275 106.1C340.142 105.9 340.075 105.667 340.075 105.4V104.2C340.075 103.533 340.475 103.2 341.275 103.2H367.675Z" fill="#C40000"/>
<path d="M391.194 103.2C394.46 103.2 397.06 103.8 398.994 105C400.994 106.133 402.36 107.933 403.094 110.4C404.627 107.667 406.694 105.6 409.294 104.2C411.96 102.733 414.96 102 418.294 102C423.094 102 426.76 103.433 429.294 106.3C431.827 109.167 433.094 113.233 433.094 118.5V150.8C433.094 151.933 432.827 152.767 432.294 153.3C431.827 153.767 430.96 154 429.694 154H411.694C410.427 154 409.527 153.767 408.994 153.3C408.527 152.767 408.294 151.933 408.294 150.8V116.4C408.294 115.667 408.127 115.067 407.794 114.6C407.46 114.133 406.994 113.9 406.394 113.9C405.594 113.9 405.027 114.167 404.694 114.7V150.8C404.694 151.933 404.427 152.767 403.894 153.3C403.427 153.767 402.56 154 401.294 154H383.294C382.027 154 381.127 153.767 380.594 153.3C380.127 152.767 379.894 151.933 379.894 150.8V115.5C379.894 113.167 379.56 111.4 378.894 110.2C378.227 108.933 376.994 107.767 375.194 106.7C374.727 106.433 374.46 106.233 374.394 106.1C374.26 105.9 374.194 105.667 374.194 105.4V104.2C374.194 103.533 374.594 103.2 375.394 103.2H391.194Z" fill="#C40000"/>
<path d="M470.62 94.6C470.62 92.7334 471.286 91.1667 472.62 89.9001C474.02 88.6334 475.753 88.0001 477.82 88.0001C479.22 88.0001 480.386 88.2667 481.32 88.8001C481.653 88.4667 481.82 88.0667 481.82 87.6C481.82 87 481.42 86.5334 480.62 86.2001C479.82 85.8001 478.753 85.6001 477.42 85.6001C474.686 85.6001 472.386 86.4667 470.52 88.2C468.653 89.9334 467.72 92.1 467.72 94.7C467.72 96.6334 468.353 98.4334 469.62 100.1C470.886 101.767 472.72 103.167 475.12 104.3C480.386 106.833 484.153 109.567 486.42 112.5C488.686 115.433 489.82 119.067 489.82 123.4C489.82 127.667 488.72 131.5 486.52 134.9C484.386 138.233 481.286 140.867 477.22 142.8C473.153 144.667 468.42 145.6 463.02 145.6C456.22 145.6 450.486 144.133 445.82 141.2C445.286 141.733 445.02 142.3 445.02 142.9C445.02 143.833 445.786 144.733 447.32 145.6C448.92 146.467 451.12 147.2 453.92 147.8C456.72 148.333 459.753 148.6 463.02 148.6C465.686 148.533 468.186 148.367 470.52 148.1C472.853 147.833 474.986 147.667 476.92 147.6C481.32 147.6 484.753 148.7 487.22 150.9C489.753 153.1 491.02 156.167 491.02 160.1C491.02 163.7 489.853 166.833 487.52 169.5C485.253 172.233 481.953 174.333 477.62 175.8C473.286 177.333 468.186 178.1 462.32 178.1C455.253 178.1 449.553 177.133 445.22 175.2C440.886 173.333 438.72 170.867 438.72 167.8C438.72 166.133 439.32 164.6 440.52 163.2C437.453 160.267 435.92 156.467 435.92 151.8C435.92 149.133 436.486 146.667 437.62 144.4C438.82 142.133 440.486 140.267 442.62 138.8C438.22 134.8 436.02 129.8 436.02 123.8C436.02 119.8 437.086 116.167 439.22 112.9C441.353 109.567 444.386 106.933 448.32 105C452.253 103 456.72 102 461.72 102C462.32 102 462.92 102.033 463.52 102.1C464.12 102.1 464.72 102.167 465.32 102.3C464.786 101.367 464.353 100.333 464.02 99.2001C463.62 97.8001 463.42 96.3667 463.42 94.9001C463.42 91.1667 464.82 88.1001 467.62 85.7001C470.42 83.3 473.953 82.1 478.22 82.1C482.22 82.1 485.453 83.1 487.92 85.1001C490.386 87.0334 491.62 89.5667 491.62 92.7001C491.62 95.5001 490.586 97.8001 488.52 99.6001C486.453 101.333 483.82 102.2 480.62 102.2C477.753 102.2 475.353 101.5 473.42 100.1C471.553 98.6334 470.62 96.8 470.62 94.6ZM462.92 141C464.12 141 464.72 140.1 464.72 138.3V109.3C464.72 107.5 464.12 106.6 462.92 106.6C461.72 106.6 461.12 107.5 461.12 109.3V138.3C461.12 140.1 461.72 141 462.92 141ZM475.02 168C470.886 169.667 466.386 170.5 461.52 170.5C454.92 170.5 449.22 169.033 444.42 166.1C443.886 166.5 443.62 167.067 443.62 167.8C443.62 169.267 445.453 170.567 449.12 171.7C452.853 172.9 457.086 173.5 461.82 173.5C465.486 173.5 468.72 173.133 471.52 172.4C474.32 171.667 475.72 170.667 475.72 169.4C475.72 168.8 475.486 168.333 475.02 168Z" fill="#C40000"/>
</svg>
