<svg width="527" height="74" viewBox="0 0 527 74" fill="none" xmlns="http://www.w3.org/2000/svg">
<path d="M33 66.4C33.4 66.9333 34.0333 67.2 34.9 67.2C35.5 67.2 35.9667 66.9666 36.3 66.5C36.6333 66.0333 36.8 65.4333 36.8 64.7V12.8C36.8 12.0666 36.6333 11.4666 36.3 11C35.9667 10.5333 35.5 10.3 34.9 10.3C34.0333 10.3 33.4 10.5666 33 11.1V66.4ZM37 5.49998C46.8667 5.49998 54.5333 8.43331 60 14.3C65.5333 20.1 68.3 28.2 68.3 38.6C68.3 45.1333 67.0333 50.9333 64.5 56C61.9667 61 58.3 64.9333 53.5 67.8C48.7667 70.6 43.2333 72 36.9 72H9.5C8.3 72 7.43333 71.7333 6.9 71.2C6.43333 70.6666 6.2 69.7666 6.2 68.5V16.8C6.2 14.6666 5.93333 13.1666 5.4 12.3C4.86667 11.3666 3.4 10.1333 1 8.59998C0.666667 8.39998 0.5 8.09998 0.5 7.69998V6.49998C0.5 5.83331 0.9 5.49998 1.7 5.49998H37Z" fill="white"/>
<path d="M74.3102 21.2C80.0435 21.2 83.9435 22.9 86.0102 26.3C87.9435 24.1666 90.1102 22.6 92.5102 21.6C94.9102 20.5333 97.6768 20 100.81 20C105.677 20 109.677 21.3333 112.81 24C115.943 26.6666 117.51 30.0666 117.51 34.2C117.51 37.6666 116.243 40.5 113.71 42.7C111.177 44.8333 107.91 45.9 103.91 45.9C99.9768 45.9 96.7435 44.9 94.2102 42.9C91.7435 40.9 90.5102 38.3666 90.5102 35.3C90.5102 32.7 91.4102 30.5666 93.2102 28.9C95.0102 27.2333 97.3102 26.4 100.11 26.4C100.31 26.0666 100.41 25.7333 100.41 25.4C100.41 24.4666 99.7102 24 98.3102 24C95.3768 24 92.8435 25.1333 90.7102 27.4C88.5768 29.6 87.5102 32.2666 87.5102 35.4C87.5102 38.0666 88.2435 40.4333 89.7102 42.5C91.2435 44.5 93.4102 46.1 96.2102 47.3C97.1435 47.7 97.7435 48.1666 98.0102 48.7C98.3435 49.1666 98.5102 50 98.5102 51.2V68.8C98.5102 70.9333 97.3768 72 95.1102 72H74.8102C72.7435 72 71.7102 70.9333 71.7102 68.8V33.5C71.7102 31.1666 71.3768 29.4 70.7102 28.2C70.0435 26.9333 68.8102 25.7666 67.0102 24.7C66.5435 24.4333 66.2768 24.2333 66.2102 24.1C66.0768 23.9 66.0102 23.6666 66.0102 23.4V22.2C66.0102 21.5333 66.4102 21.2 67.2102 21.2H74.3102Z" fill="white"/>
<path d="M139.608 48.9C139.608 50.4333 140.908 51.8666 143.508 53.2C146.108 54.4666 149.008 55.1 152.208 55.1C158.541 55.1 163.741 52.9666 167.808 48.7C168.208 48.3 168.474 48.0666 168.608 48C168.808 47.8666 169.074 47.8 169.408 47.8H170.608C171.074 47.8 171.374 47.9666 171.508 48.3C171.708 48.6333 171.808 49.2333 171.808 50.1C171.808 54.2333 170.674 58.0666 168.408 61.6C166.208 65.0666 163.041 67.8666 158.908 70C154.841 72.1333 150.274 73.2 145.208 73.2C139.808 73.2 134.941 72.1 130.608 69.9C126.274 67.7 122.808 64.5666 120.208 60.5C117.674 56.4333 116.408 51.8 116.408 46.6C116.408 41.4666 117.608 36.9 120.008 32.9C122.408 28.9 125.808 25.7666 130.208 23.5C134.674 21.1666 139.874 20 145.808 20C150.274 20 154.274 20.7 157.808 22.1C161.408 23.5 164.241 25.5 166.308 28.1C168.374 30.7 169.408 33.7 169.408 37.1C169.408 41.4333 167.841 45.0333 164.708 47.9C161.574 50.7 157.608 52.1 152.808 52.1C148.008 52.1 144.108 50.5 141.108 47.3C140.708 47.3 140.341 47.4666 140.008 47.8C139.741 48.0666 139.608 48.4333 139.608 48.9ZM142.608 42C143.008 42.5333 143.541 42.8 144.208 42.8C145.408 42.8 146.008 42.1333 146.008 40.8V26.6C146.008 25.2666 145.408 24.6 144.208 24.6C143.541 24.6 143.008 24.8666 142.608 25.4V42Z" fill="white"/>
<path d="M194.913 60.5C194.913 62.2333 194.313 63.7 193.113 64.9C191.913 66.0333 190.28 66.6666 188.213 66.8C187.947 67.2 187.813 67.5666 187.813 67.9C187.813 68.7666 188.413 69.2 189.613 69.2C191.747 69.2 193.647 68.3 195.313 66.5C197.047 64.6333 197.913 62.5 197.913 60.1C197.913 57.3666 196.98 55.2333 195.113 53.7C193.247 52.1 190.013 50.7666 185.413 49.7C176.68 47.7 172.313 43.4333 172.313 36.9C172.313 31.7 174.813 27.6 179.813 24.6C184.88 21.5333 191.713 20 200.313 20C207.38 20 212.88 21.1 216.813 23.3C220.747 25.4333 222.713 28.4333 222.713 32.3C222.713 34.9666 221.68 37.1 219.613 38.7C217.547 40.2333 214.68 41 211.013 41C207.413 41 204.48 40.2333 202.213 38.7C199.947 37.1666 198.813 35.1666 198.813 32.7C198.813 30.9666 199.413 29.5333 200.613 28.4C201.813 27.2 203.447 26.5333 205.513 26.4C205.78 26 205.913 25.6333 205.913 25.3C205.913 24.4333 205.313 24 204.113 24C201.98 24 200.047 24.9333 198.313 26.8C196.647 28.6 195.813 30.7 195.813 33.1C195.813 35.8333 196.813 38 198.813 39.6C200.88 41.2 204.28 42.5 209.013 43.5C214.613 44.6333 218.613 46.2333 221.013 48.3C223.413 50.3 224.613 53.1666 224.613 56.9C224.613 62.1666 222.247 66.2 217.513 69C212.847 71.8 206.113 73.2 197.313 73.2C189.313 73.2 182.913 72.0666 178.113 69.8C173.38 67.5333 171.013 64.5333 171.013 60.8C171.013 58.1333 172.047 56.0333 174.113 54.5C176.247 52.9666 179.113 52.2 182.713 52.2C186.313 52.2 189.247 52.9666 191.513 54.5C193.78 56.0333 194.913 58.0333 194.913 60.5Z" fill="white"/>
<path d="M248.066 60.5C248.066 62.2333 247.466 63.7 246.266 64.9C245.066 66.0333 243.432 66.6666 241.366 66.8C241.099 67.2 240.966 67.5666 240.966 67.9C240.966 68.7666 241.566 69.2 242.766 69.2C244.899 69.2 246.799 68.3 248.466 66.5C250.199 64.6333 251.066 62.5 251.066 60.1C251.066 57.3666 250.132 55.2333 248.266 53.7C246.399 52.1 243.166 50.7666 238.566 49.7C229.832 47.7 225.466 43.4333 225.466 36.9C225.466 31.7 227.966 27.6 232.966 24.6C238.032 21.5333 244.866 20 253.466 20C260.532 20 266.032 21.1 269.966 23.3C273.899 25.4333 275.866 28.4333 275.866 32.3C275.866 34.9666 274.832 37.1 272.766 38.7C270.699 40.2333 267.832 41 264.166 41C260.566 41 257.632 40.2333 255.366 38.7C253.099 37.1666 251.966 35.1666 251.966 32.7C251.966 30.9666 252.566 29.5333 253.766 28.4C254.966 27.2 256.599 26.5333 258.666 26.4C258.932 26 259.066 25.6333 259.066 25.3C259.066 24.4333 258.466 24 257.266 24C255.132 24 253.199 24.9333 251.466 26.8C249.799 28.6 248.966 30.7 248.966 33.1C248.966 35.8333 249.966 38 251.966 39.6C254.032 41.2 257.432 42.5 262.166 43.5C267.766 44.6333 271.766 46.2333 274.166 48.3C276.566 50.3 277.766 53.1666 277.766 56.9C277.766 62.1666 275.399 66.2 270.666 69C265.999 71.8 259.266 73.2 250.466 73.2C242.466 73.2 236.066 72.0666 231.266 69.8C226.532 67.5333 224.166 64.5333 224.166 60.8C224.166 58.1333 225.199 56.0333 227.266 54.5C229.399 52.9666 232.266 52.2 235.866 52.2C239.466 52.2 242.399 52.9666 244.666 54.5C246.932 56.0333 248.066 58.0333 248.066 60.5Z" fill="white"/>
<path d="M318.291 35.4C318.291 38.2 318.957 40.7666 320.291 43.1C321.624 45.4333 323.491 47.3333 325.891 48.8C328.357 50.2 331.124 50.9 334.191 50.9C336.924 50.9 339.324 50.4666 341.391 49.6C343.524 48.6666 345.624 47.1333 347.691 45C348.091 44.6 348.357 44.3666 348.491 44.3C348.691 44.1666 348.957 44.1 349.291 44.1H350.591C351.324 44.1 351.691 44.7666 351.691 46.1C351.691 51.1 350.524 55.6666 348.191 59.8C345.924 63.8666 342.691 67.1333 338.491 69.6C334.291 72 329.491 73.2 324.091 73.2C318.957 73.2 314.324 72.1333 310.191 70C306.057 67.8 302.791 64.7 300.391 60.7C297.991 56.7 296.791 52.0666 296.791 46.8C296.791 41.7333 297.991 37.2 300.391 33.2C302.791 29.1333 306.224 25.9333 310.691 23.6C315.224 21.2 320.424 20 326.291 20C330.491 20 334.224 20.6333 337.491 21.9C340.824 23.1 343.457 24.8666 345.391 27.2C347.324 29.4666 348.291 32.1 348.291 35.1C348.291 38.7666 346.991 41.8333 344.391 44.3C341.857 46.7 338.591 47.9 334.591 47.9C330.857 47.9 327.691 46.7 325.091 44.3C322.557 41.8333 321.291 38.8333 321.291 35.3C321.291 32.7 322.191 30.5666 323.991 28.9C325.791 27.2333 328.091 26.4 330.891 26.4C331.091 26.0666 331.191 25.7333 331.191 25.4C331.191 24.4666 330.491 24 329.091 24C326.157 24 323.624 25.1333 321.491 27.4C319.357 29.6 318.291 32.2666 318.291 35.4Z" fill="white"/>
<path d="M380.013 68.6C381.213 68.6 381.812 67.7 381.812 65.9V27.3C381.812 25.5 381.213 24.6 380.013 24.6C378.813 24.6 378.212 25.5 378.212 27.3V65.9C378.212 67.7 378.813 68.6 380.013 68.6ZM380.013 73.2C370.613 73.2 363.446 70.9333 358.513 66.4C353.646 61.8666 351.212 55.2666 351.212 46.6C351.212 37.9333 353.646 31.3333 358.513 26.8C363.446 22.2666 370.613 20 380.013 20C389.413 20 396.546 22.2666 401.413 26.8C406.346 31.3333 408.812 37.9333 408.812 46.6C408.812 55.2666 406.346 61.8666 401.413 66.4C396.546 70.9333 389.413 73.2 380.013 73.2Z" fill="white"/>
<path d="M436.538 58.9C436.538 60.5 437.172 61.3 438.438 61.3C439.172 61.3 439.738 61.0333 440.138 60.5V29.6C439.738 29.0666 439.172 28.8 438.438 28.8C437.172 28.8 436.538 29.6 436.538 31.2V58.9ZM440.138 12.4C440.138 10.0666 439.805 8.29997 439.138 7.09997C438.472 5.83331 437.238 4.66664 435.438 3.59998C434.972 3.33331 434.672 3.13331 434.538 2.99997C434.472 2.79998 434.438 2.56664 434.438 2.29998V1.09997C434.438 0.433308 434.838 0.0999756 435.638 0.0999756H461.538C462.805 0.0999756 463.672 0.366642 464.138 0.899977C464.672 1.36664 464.938 2.16664 464.938 3.29997V56.9C464.938 58.0333 465.038 58.8 465.238 59.2C465.438 59.6 465.772 59.8 466.238 59.8C466.838 59.8 467.272 59.5333 467.538 59C467.805 58.4666 468.038 57.4333 468.238 55.9C468.372 54.7666 468.505 54.1 468.638 53.9C468.772 53.6333 469.038 53.5 469.438 53.5H471.138C471.538 53.5 471.805 53.7333 471.938 54.2C472.138 54.6666 472.238 55.4333 472.238 56.5C472.238 61.8333 470.838 65.9666 468.038 68.9C465.305 71.7666 461.372 73.2 456.238 73.2C449.572 73.2 444.772 70.4333 441.838 64.9C438.905 70.4333 434.372 73.2 428.238 73.2C422.372 73.2 417.772 70.8333 414.438 66.1C411.172 61.3 409.538 54.6666 409.538 46.2C409.538 37.9333 411.205 31.5 414.538 26.9C417.872 22.3 422.538 20 428.538 20C433.472 20 437.338 21.4 440.138 24.2V12.4Z" fill="white"/>
<path d="M494.584 48.9C494.584 50.4333 495.884 51.8666 498.484 53.2C501.084 54.4666 503.984 55.1 507.184 55.1C513.518 55.1 518.718 52.9666 522.784 48.7C523.184 48.3 523.451 48.0666 523.584 48C523.784 47.8666 524.051 47.8 524.384 47.8H525.584C526.051 47.8 526.351 47.9666 526.484 48.3C526.684 48.6333 526.784 49.2333 526.784 50.1C526.784 54.2333 525.651 58.0666 523.384 61.6C521.184 65.0666 518.018 67.8666 513.884 70C509.818 72.1333 505.251 73.2 500.184 73.2C494.784 73.2 489.918 72.1 485.584 69.9C481.251 67.7 477.784 64.5666 475.184 60.5C472.651 56.4333 471.384 51.8 471.384 46.6C471.384 41.4666 472.584 36.9 474.984 32.9C477.384 28.9 480.784 25.7666 485.184 23.5C489.651 21.1666 494.851 20 500.784 20C505.251 20 509.251 20.7 512.784 22.1C516.384 23.5 519.218 25.5 521.284 28.1C523.351 30.7 524.384 33.7 524.384 37.1C524.384 41.4333 522.818 45.0333 519.684 47.9C516.551 50.7 512.584 52.1 507.784 52.1C502.984 52.1 499.084 50.5 496.084 47.3C495.684 47.3 495.318 47.4666 494.984 47.8C494.718 48.0666 494.584 48.4333 494.584 48.9ZM497.584 42C497.984 42.5333 498.518 42.8 499.184 42.8C500.384 42.8 500.984 42.1333 500.984 40.8V26.6C500.984 25.2666 500.384 24.6 499.184 24.6C498.518 24.6 497.984 24.8666 497.584 25.4V42Z" fill="white"/>
</svg>
