<svg width="245" height="77" viewBox="0 0 245 77" fill="none" xmlns="http://www.w3.org/2000/svg">
<path d="M45.8 75C43.8 75.6666 41.9667 76.1 40.3 76.3C38.7 76.5667 36.8 76.7 34.6 76.7C23.5333 76.7 15 73.6333 9 67.5C3 61.3 0 52.5 0 41.1C0 34.3666 1.43333 28.4333 4.3 23.3C7.16667 18.1 11.3333 14.0666 16.8 11.2C22.2667 8.26664 28.7333 6.79997 36.2 6.79997C41.1333 6.79997 45.6 7.63331 49.6 9.29998C53.6 10.9 56.8 13.2 59.2 16.2C61.6 19.2 62.8 22.6333 62.8 26.5C62.8 30.9666 61.2 34.5666 58 37.3C54.8 39.9666 50.5667 41.3 45.3 41.3C42.1 41.3 39.1667 40.7 36.5 39.5C33.9 38.2333 31.8 36.5 30.2 34.3C28.6667 32.0333 27.9 29.4666 27.9 26.6C27.9 23 29.1333 20.1333 31.6 18C34.0667 15.8666 37.4 14.8 41.6 14.8C42 14.4 42.2 13.9666 42.2 13.5C42.2 12.9666 41.9667 12.5666 41.5 12.3C41.0333 11.9666 40.4333 11.8 39.7 11.8C37.0333 11.8 34.5333 12.4333 32.2 13.7C29.9333 14.9666 28.1 16.7333 26.7 19C25.3 21.2666 24.6 23.8333 24.6 26.7C24.6 29.6333 25.1333 32.2 26.2 34.4C27.3333 36.5333 29.1667 38.6333 31.7 40.7C32.3 41.1666 32.7333 41.7 33 42.3C33.2667 42.8333 33.4 43.5666 33.4 44.5V68.9C33.4 70.7 34 71.6 35.2 71.6C36.4 71.6 37 70.7 37 68.9V47.2C37 45.9333 37.2333 45.0333 37.7 44.5C38.2333 43.9666 39.1 43.7 40.3 43.7H68.3C69.1 43.7 69.5 44.0333 69.5 44.7V45.9C69.5 46.1666 69.4333 46.4 69.3 46.6C69.2333 46.7333 68.9667 46.9333 68.5 47.2C66.5667 48.2666 65.3 49.3 64.7 50.3C64.1 51.3 63.8 52.8666 63.8 55V71.5C63.8 72.7666 63.5333 73.6666 63 74.2C62.5333 74.7333 61.7 75 60.5 75H45.8Z" fill="white"/>
<path d="M70.2609 10.2C70.2609 7.19998 71.4276 4.79997 73.7609 2.99997C76.0943 1.19997 79.2276 0.299973 83.1609 0.299973C87.0943 0.299973 90.2276 1.19997 92.5609 2.99997C94.9609 4.79997 96.1609 7.19998 96.1609 10.2C96.1609 13.1333 94.9609 15.5 92.5609 17.3C90.2276 19.1 87.0943 20 83.1609 20C79.2276 20 76.0943 19.1333 73.7609 17.4C71.4276 15.6 70.2609 13.2 70.2609 10.2ZM93.2609 24.2C94.5276 24.2 95.3943 24.4666 95.8609 25C96.3943 25.4666 96.6609 26.2666 96.6609 27.4V59.9C96.6609 61.0333 96.7609 61.8 96.9609 62.2C97.1609 62.6 97.4943 62.8 97.9609 62.8C98.5609 62.8 98.9609 62.5666 99.1609 62.1C99.4276 61.6333 99.6943 60.5666 99.9609 58.9C100.094 57.7666 100.228 57.1 100.361 56.9C100.494 56.6333 100.761 56.5 101.161 56.5H102.861C103.261 56.5 103.528 56.7333 103.661 57.2C103.861 57.6666 103.961 58.4666 103.961 59.6C103.961 64.9333 102.528 69.0333 99.6609 71.9C96.7943 74.7666 92.6943 76.2 87.3609 76.2C82.2276 76.2 78.2609 74.7666 75.4609 71.9C72.7276 68.9666 71.3609 64.8 71.3609 59.4V36.5C71.3609 34.1666 71.0276 32.4 70.3609 31.2C69.6943 29.9333 68.4609 28.7666 66.6609 27.7C66.1943 27.4333 65.9276 27.2333 65.8609 27.1C65.7276 26.9 65.6609 26.6666 65.6609 26.4V25.2C65.6609 24.5333 66.0609 24.2 66.8609 24.2H93.2609Z" fill="white"/>
<path d="M140.48 28H129.48C130.213 28.6 130.713 29.2333 130.98 29.9C131.246 30.5 131.38 31.4333 131.38 32.7V71.8C131.38 72.9333 131.113 73.7666 130.58 74.3C130.113 74.7666 129.246 75 127.98 75H108.98C107.713 75 106.813 74.7666 106.28 74.3C105.813 73.7666 105.58 72.9333 105.58 71.8V28H98.8797C98.0797 28 97.6797 27.6666 97.6797 27V25.2C97.6797 24.5333 98.0797 24.2 98.8797 24.2H105.58V19.3C105.58 13.5 107.613 8.86664 111.68 5.39997C115.746 1.86664 121.146 0.0999756 127.88 0.0999756C133.213 0.0999756 137.546 1.19998 140.88 3.39997C144.213 5.59997 145.88 8.46664 145.88 12C145.88 15 144.646 17.3666 142.18 19.1C139.78 20.8333 136.513 21.7 132.38 21.7C128.446 21.7 125.38 20.9333 123.18 19.4C120.98 17.8666 119.88 15.7666 119.88 13.1C119.88 11.1 120.613 9.49997 122.08 8.29997C123.546 7.03331 125.546 6.39997 128.08 6.39997C128.213 6.26664 128.28 6.09997 128.28 5.89997C128.346 5.69998 128.38 5.53331 128.38 5.39997C128.38 4.46664 127.68 3.99997 126.28 3.99997C123.68 3.99997 121.446 4.93331 119.58 6.79997C117.78 8.59997 116.88 10.8 116.88 13.4C116.88 18.2666 119.88 21.8666 125.88 24.2H138.68C141.48 23.4 143.746 22.1 145.48 20.3C147.28 18.5 148.513 16.2 149.18 13.4C149.446 12.2 149.88 11.3666 150.48 10.9C151.08 10.4333 152.013 10.2 153.28 10.2H162.38C163.646 10.2 164.513 10.4666 164.98 11C165.513 11.4666 165.78 12.2666 165.78 13.4V24.2H175.68C176.48 24.2 176.88 24.5333 176.88 25.2V27C176.88 27.6666 176.48 28 175.68 28H165.78V59.4C165.78 60.6666 165.946 61.5666 166.28 62.1C166.68 62.5666 167.313 62.8 168.18 62.8C169.046 62.8 169.646 62.5666 169.98 62.1C170.38 61.6333 170.746 60.5666 171.08 58.9C171.213 57.8333 171.346 57.1666 171.48 56.9C171.68 56.6333 171.98 56.5 172.38 56.5H173.98C174.38 56.5 174.646 56.7333 174.78 57.2C174.98 57.6666 175.08 58.4666 175.08 59.6C175.08 64.9333 173.613 69.0333 170.68 71.9C167.746 74.7666 163.58 76.2 158.18 76.2C152.58 76.2 148.213 74.6666 145.08 71.6C142.013 68.5333 140.48 64.2333 140.48 58.7V28Z" fill="white"/>
<path d="M189.212 24C189.212 23.2 189.012 22.6 188.613 22.2C186.746 24 184.612 24.9 182.212 24.9C179.746 24.9 177.713 24.1 176.113 22.5C174.579 20.8333 173.812 18.7 173.812 16.1C173.812 13.3 174.746 11.0666 176.613 9.39997C178.546 7.66664 181.079 6.79997 184.212 6.79997C187.479 6.79997 190.079 7.83331 192.012 9.89997C193.946 11.9 194.913 14.6 194.913 18C194.913 20.4 194.613 22.4333 194.012 24.1C193.479 25.7666 192.546 27.3666 191.212 28.9C190.079 30.1666 188.379 31.3333 186.113 32.4C183.913 33.4 181.946 33.9 180.212 33.9C179.679 33.9 179.346 33.6 179.212 33L179.113 32.6C179.046 32.3333 178.979 32.1 178.913 31.9C178.913 31.7 178.913 31.5333 178.913 31.4C178.913 30.8 179.379 30.4 180.312 30.2C182.979 29.6 185.112 28.7333 186.712 27.6C188.379 26.4666 189.212 25.2666 189.212 24Z" fill="white"/>
<path d="M215.206 63.5C215.206 65.2333 214.606 66.7 213.406 67.9C212.206 69.0333 210.573 69.6666 208.506 69.8C208.24 70.2 208.106 70.5666 208.106 70.9C208.106 71.7666 208.706 72.2 209.906 72.2C212.04 72.2 213.94 71.3 215.606 69.5C217.34 67.6333 218.206 65.5 218.206 63.1C218.206 60.3666 217.273 58.2333 215.406 56.7C213.54 55.1 210.306 53.7666 205.706 52.7C196.973 50.7 192.606 46.4333 192.606 39.9C192.606 34.7 195.106 30.6 200.106 27.6C205.173 24.5333 212.006 23 220.606 23C227.673 23 233.173 24.1 237.106 26.3C241.04 28.4333 243.006 31.4333 243.006 35.3C243.006 37.9666 241.973 40.1 239.906 41.7C237.84 43.2333 234.973 44 231.306 44C227.706 44 224.773 43.2333 222.506 41.7C220.24 40.1666 219.106 38.1666 219.106 35.7C219.106 33.9666 219.706 32.5333 220.906 31.4C222.106 30.2 223.74 29.5333 225.806 29.4C226.073 29 226.206 28.6333 226.206 28.3C226.206 27.4333 225.606 27 224.406 27C222.273 27 220.34 27.9333 218.606 29.8C216.94 31.6 216.106 33.7 216.106 36.1C216.106 38.8333 217.106 41 219.106 42.6C221.173 44.2 224.573 45.5 229.306 46.5C234.906 47.6333 238.906 49.2333 241.306 51.3C243.706 53.3 244.906 56.1666 244.906 59.9C244.906 65.1666 242.54 69.2 237.806 72C233.14 74.8 226.406 76.2 217.606 76.2C209.606 76.2 203.206 75.0667 198.406 72.8C193.673 70.5333 191.306 67.5333 191.306 63.8C191.306 61.1333 192.34 59.0333 194.406 57.5C196.54 55.9666 199.406 55.2 203.006 55.2C206.606 55.2 209.54 55.9666 211.806 57.5C214.073 59.0333 215.206 61.0333 215.206 63.5Z" fill="white"/>
</svg>
