<svg width="440" height="245" viewBox="0 0 440 245" fill="none" xmlns="http://www.w3.org/2000/svg">
<path d="M9.29576 17.9962C9.29576 16.4754 9.17362 15.3804 8.92934 14.7112C8.68506 13.9812 8.25756 13.3424 7.64685 12.7949C7.03615 12.1866 5.99795 11.3958 4.53225 10.4224C4.2269 10.2399 4.07422 9.96616 4.07422 9.60116V8.50615C4.07422 7.89781 4.44064 7.59364 5.17349 7.59364H31.7392C32.8385 7.59364 33.6019 7.83698 34.0294 8.32365C34.518 8.81031 34.7622 9.63157 34.7622 10.7874V34.7863H38.2433V10.7874C38.2433 9.63157 38.457 8.81031 38.8845 8.32365C39.3731 7.83698 40.167 7.59364 41.2663 7.59364H60.6867C61.786 7.59364 62.5494 7.83698 62.9769 8.32365C63.4655 8.81031 63.7098 9.63157 63.7098 10.7874V65.0816C63.7098 66.2374 63.4655 67.0587 62.9769 67.5453C62.5494 68.032 61.786 68.2753 60.6867 68.2753H41.2663C40.167 68.2753 39.3731 68.032 38.8845 67.5453C38.457 67.0587 38.2433 66.2374 38.2433 65.0816V39.2576H34.7622V65.0816C34.7622 66.2374 34.518 67.0587 34.0294 67.5453C33.6019 68.032 32.8385 68.2753 31.7392 68.2753H12.3188C11.2195 68.2753 10.4256 68.032 9.93701 67.5453C9.50951 67.0587 9.29576 66.2374 9.29576 65.0816V17.9962Z" fill="#C40000"/>
<path d="M93.6422 65.1728C94.7414 65.1728 95.2911 64.3515 95.2911 62.709V27.4863C95.2911 25.8438 94.7414 25.0225 93.6422 25.0225C92.5429 25.0225 91.9933 25.8438 91.9933 27.4863V62.709C91.9933 64.3515 92.5429 65.1728 93.6422 65.1728ZM93.6422 69.3703C85.0312 69.3703 78.4661 67.302 73.9469 63.1653C69.4887 59.0286 67.2596 53.0061 67.2596 45.0977C67.2596 37.1893 69.4887 31.1667 73.9469 27.03C78.4661 22.8933 85.0312 20.825 93.6422 20.825C102.253 20.825 108.788 22.8933 113.246 27.03C117.765 31.1667 120.025 37.1893 120.025 45.0977C120.025 53.0061 117.765 59.0286 113.246 63.1653C108.788 67.302 102.253 69.3703 93.6422 69.3703Z" fill="#C40000"/>
<path d="M125.334 21.92C130.586 21.92 134.158 23.4713 136.052 26.5738C137.823 24.6271 139.807 23.1975 142.006 22.285C144.205 21.3117 146.739 20.825 149.609 20.825C154.067 20.825 157.732 22.0417 160.602 24.475C163.472 26.9084 164.908 30.0109 164.908 33.7826C164.908 36.9459 163.747 39.5314 161.426 41.5389C159.106 43.4856 156.113 44.4589 152.449 44.4589C148.846 44.4589 145.884 43.5464 143.563 41.7214C141.304 39.8964 140.174 37.5847 140.174 34.7863C140.174 32.4138 140.998 30.4671 142.647 28.9463C144.296 27.4254 146.403 26.665 148.968 26.665C149.151 26.3609 149.243 26.0567 149.243 25.7525C149.243 24.9008 148.602 24.475 147.319 24.475C144.632 24.475 142.311 25.5092 140.357 27.5775C138.403 29.585 137.426 32.0184 137.426 34.8776C137.426 37.3109 138.098 39.4705 139.441 41.3564C140.846 43.1814 142.83 44.6414 145.395 45.7364C146.25 46.1014 146.8 46.5273 147.044 47.0139C147.35 47.4398 147.502 48.2002 147.502 49.2952V65.3553C147.502 67.302 146.464 68.2753 144.388 68.2753H125.792C123.899 68.2753 122.952 67.302 122.952 65.3553V33.1438C122.952 31.0146 122.647 29.4025 122.036 28.3075C121.425 27.1517 120.295 26.0871 118.646 25.1138C118.219 24.8704 117.975 24.6879 117.914 24.5663C117.791 24.3838 117.73 24.1708 117.73 23.9275V22.8325C117.73 22.2242 118.097 21.92 118.83 21.92H125.334Z" fill="#C40000"/>
<path d="M176.42 21.92C179.412 21.92 181.794 22.4675 183.565 23.5625C185.397 24.5967 186.649 26.2392 187.321 28.49C188.726 25.9959 190.619 24.11 193.001 22.8325C195.444 21.4942 198.192 20.825 201.245 20.825C205.642 20.825 209.001 22.1329 211.322 24.7488C213.643 27.3646 214.803 31.0755 214.803 35.8813V65.3553C214.803 66.3895 214.559 67.1499 214.07 67.6366C213.643 68.0624 212.849 68.2753 211.688 68.2753H195.199C194.039 68.2753 193.214 68.0624 192.726 67.6366C192.298 67.1499 192.085 66.3895 192.085 65.3553V33.9651C192.085 33.2959 191.932 32.7484 191.627 32.3226C191.321 31.8967 190.894 31.6838 190.344 31.6838C189.611 31.6838 189.092 31.9271 188.787 32.4138V65.3553C188.787 66.3895 188.543 67.1499 188.054 67.6366C187.626 68.0624 186.833 68.2753 185.672 68.2753H169.183C168.023 68.2753 167.198 68.0624 166.71 67.6366C166.282 67.1499 166.068 66.3895 166.068 65.3553V33.1438C166.068 31.0146 165.763 29.4025 165.152 28.3075C164.542 27.1517 163.412 26.0871 161.763 25.1138C161.336 24.8704 161.091 24.6879 161.03 24.5663C160.908 24.3838 160.847 24.1708 160.847 23.9275V22.8325C160.847 22.2242 161.213 21.92 161.946 21.92H176.42Z" fill="#C40000"/>
<path d="M218.188 9.1449C218.188 6.40738 219.257 4.21737 221.394 2.57485C223.532 0.93234 226.402 0.111084 230.005 0.111084C233.609 0.111084 236.479 0.93234 238.616 2.57485C240.815 4.21737 241.914 6.40738 241.914 9.1449C241.914 11.8216 240.815 13.9812 238.616 15.6237C236.479 17.2662 233.609 18.0875 230.005 18.0875C226.402 18.0875 223.532 17.2966 221.394 15.7149C219.257 14.0724 218.188 11.8824 218.188 9.1449ZM239.258 21.92C240.418 21.92 241.212 22.1633 241.639 22.65C242.128 23.0758 242.372 23.8058 242.372 24.84V54.4965C242.372 55.5307 242.464 56.2302 242.647 56.5952C242.83 56.9602 243.136 57.1427 243.563 57.1427C244.113 57.1427 244.479 56.9298 244.662 56.504C244.907 56.0782 245.151 55.1048 245.395 53.584C245.517 52.5498 245.639 51.9415 245.762 51.759C245.884 51.5156 246.128 51.394 246.494 51.394H248.052C248.418 51.394 248.662 51.6069 248.785 52.0327C248.968 52.4585 249.059 53.1886 249.059 54.2227C249.059 59.0894 247.746 62.8307 245.12 65.4466C242.494 68.0624 238.738 69.3703 233.853 69.3703C229.15 69.3703 225.517 68.0624 222.952 65.4466C220.448 62.7699 219.196 58.9678 219.196 54.0402V33.1438C219.196 31.0146 218.891 29.4025 218.28 28.3075C217.669 27.1517 216.539 26.0871 214.89 25.1138C214.463 24.8704 214.219 24.6879 214.158 24.5663C214.035 24.3838 213.974 24.1708 213.974 23.9275V22.8325C213.974 22.2242 214.341 21.92 215.074 21.92H239.258Z" fill="#C40000"/>
<path d="M259.858 21.92C262.851 21.92 265.233 22.4675 267.004 23.5625C268.836 24.5967 270.088 26.2392 270.759 28.49C272.164 26.0567 274.027 24.1708 276.347 22.8325C278.729 21.4942 281.355 20.825 284.226 20.825C287.035 20.825 289.447 21.4637 291.462 22.7413C293.478 23.9579 294.974 25.7525 295.951 28.125C297.234 25.8134 299.035 24.0188 301.356 22.7413C303.738 21.4637 306.394 20.825 309.326 20.825C313.601 20.825 316.837 22.1025 319.036 24.6575C321.296 27.2125 322.425 30.9538 322.425 35.8813V65.3553C322.425 66.3895 322.181 67.1499 321.692 67.6366C321.265 68.0624 320.471 68.2753 319.311 68.2753H303.738C302.577 68.2753 301.753 68.0624 301.264 67.6366C300.837 67.1499 300.623 66.3895 300.623 65.3553V33.9651C300.623 33.2959 300.47 32.7484 300.165 32.3226C299.86 31.8967 299.432 31.6838 298.883 31.6838C298.15 31.6838 297.631 31.9271 297.325 32.4138V65.3553C297.325 66.3895 297.081 67.1499 296.592 67.6366C296.165 68.0624 295.371 68.2753 294.211 68.2753H278.638C277.477 68.2753 276.653 68.0624 276.164 67.6366C275.737 67.1499 275.523 66.3895 275.523 65.3553V33.9651C275.523 33.2959 275.37 32.7484 275.065 32.3226C274.76 31.8967 274.332 31.6838 273.782 31.6838C273.05 31.6838 272.531 31.9271 272.225 32.4138V65.3553C272.225 66.3895 271.981 67.1499 271.492 67.6366C271.065 68.0624 270.271 68.2753 269.111 68.2753H253.538C252.377 68.2753 251.553 68.0624 251.064 67.6366C250.637 67.1499 250.423 66.3895 250.423 65.3553V33.1438C250.423 31.0146 250.118 29.4025 249.507 28.3075C248.896 27.1517 247.766 26.0871 246.117 25.1138C245.69 24.8704 245.446 24.6879 245.385 24.5663C245.262 24.3838 245.201 24.1708 245.201 23.9275V22.8325C245.201 22.2242 245.568 21.92 246.301 21.92H259.858Z" fill="#C40000"/>
<path d="M349.62 49.6602C349.253 49.1735 348.765 48.9302 348.154 48.9302C347.116 48.9302 346.597 49.5385 346.597 50.7552V56.5952C346.597 57.8119 347.116 58.4203 348.154 58.4203C348.765 58.4203 349.253 58.1769 349.62 57.6903V49.6602ZM364.368 69.3703C358.2 69.3703 353.803 66.8457 351.177 61.7965C349.772 64.4124 348.032 66.3287 345.955 67.5453C343.94 68.762 341.436 69.3703 338.444 69.3703C334.23 69.3703 330.84 68.3362 328.275 66.2678C325.71 64.1995 324.428 61.4619 324.428 58.0553C324.428 55.0744 325.466 52.7323 327.543 51.029C329.68 49.2648 332.947 48.0785 337.344 47.4702C348.581 46.0102 354.2 41.7822 354.2 34.7863C354.2 31.988 353.223 29.585 351.268 27.5775C349.314 25.5092 346.993 24.475 344.306 24.475C343.024 24.475 342.383 24.9008 342.383 25.7525C342.383 26.0567 342.474 26.3609 342.658 26.665C345.222 26.665 347.329 27.4254 348.978 28.9463C350.627 30.4671 351.452 32.4138 351.452 34.7863C351.452 37.5847 350.261 39.8964 347.879 41.7214C345.558 43.5464 342.566 44.4589 338.902 44.4589C335.176 44.4589 332.214 43.5464 330.016 41.7214C327.817 39.8355 326.718 37.3718 326.718 34.3301C326.718 30.2542 328.703 26.9996 332.672 24.5663C336.642 22.0721 341.894 20.825 348.429 20.825C356.246 20.825 362.17 22.7108 366.2 26.4825C370.292 30.2542 372.338 35.7901 372.338 43.0901V54.4965C372.338 55.5307 372.429 56.2302 372.613 56.5952C372.796 56.9602 373.101 57.1427 373.529 57.1427C374.078 57.1427 374.475 56.8994 374.72 56.4127C374.964 55.9261 375.178 54.9832 375.361 53.584C375.483 52.5498 375.605 51.9415 375.727 51.759C375.849 51.5156 376.094 51.394 376.46 51.394H378.017C378.384 51.394 378.628 51.6069 378.75 52.0327C378.934 52.4585 379.025 53.1581 379.025 54.1315C379.025 58.9982 377.743 62.7699 375.178 65.4466C372.674 68.0624 369.071 69.3703 364.368 69.3703Z" fill="#C40000"/>
<path d="M390.753 21.92C393.745 21.92 396.127 22.4675 397.898 23.5625C399.73 24.5967 400.982 26.2392 401.654 28.49C403.059 25.9959 404.952 24.11 407.334 22.8325C409.777 21.4942 412.525 20.825 415.578 20.825C419.975 20.825 423.334 22.1329 425.655 24.7488C427.976 27.3646 429.136 31.0755 429.136 35.8813V65.3553C429.136 66.3895 428.892 67.1499 428.403 67.6366C427.976 68.0624 427.182 68.2753 426.021 68.2753H409.532C408.372 68.2753 407.547 68.0624 407.059 67.6366C406.631 67.1499 406.418 66.3895 406.418 65.3553V33.9651C406.418 33.2959 406.265 32.7484 405.96 32.3226C405.654 31.8967 405.227 31.6838 404.677 31.6838C403.944 31.6838 403.425 31.9271 403.12 32.4138V65.3553C403.12 66.3895 402.876 67.1499 402.387 67.6366C401.959 68.0624 401.166 68.2753 400.005 68.2753H383.516C382.356 68.2753 381.531 68.0624 381.043 67.6366C380.615 67.1499 380.402 66.3895 380.402 65.3553V33.1438C380.402 31.0146 380.096 29.4025 379.485 28.3075C378.875 27.1517 377.745 26.0871 376.096 25.1138C375.669 24.8704 375.424 24.6879 375.363 24.5663C375.241 24.3838 375.18 24.1708 375.18 23.9275V22.8325C375.18 22.2242 375.546 21.92 376.279 21.92H390.753Z" fill="#C40000"/>
<path d="M57.949 94.9361C57.4618 94.5884 56.9745 94.4146 56.4872 94.4146C56 94.4146 55.5823 94.5884 55.2343 94.9361C54.8862 95.2143 54.7122 95.562 54.7122 95.9792C54.7122 96.466 54.8862 97.37 55.2343 98.6912L65.1535 139.58C65.4319 140.902 65.5711 141.771 65.5711 142.188C65.5711 144.413 64.4226 145.526 62.1255 145.526H43.6445C42.1827 145.526 41.1038 145.213 40.4077 144.587C39.7812 143.961 39.2244 142.71 38.7371 140.832L27.2517 94.9361C26.7645 94.5884 26.2076 94.4146 25.5811 94.4146C25.1635 94.4146 24.7806 94.5536 24.4326 94.8318C24.1542 95.11 24.0149 95.4924 24.0149 95.9792C24.0149 96.466 24.189 97.37 24.537 98.6912L34.4562 139.58C34.8738 141.18 35.0827 142.292 35.0827 142.918C35.0827 144.657 34.0037 145.526 31.8459 145.526H5.63834C4.24617 145.526 3.16724 145.213 2.40155 144.587C1.70546 143.892 1.35742 142.953 1.35742 141.771C1.35742 140.241 2.92361 135.373 6.05599 127.168C9.25797 118.892 14.5482 105.923 21.9267 88.2603C22.3443 87.2868 22.5532 86.4175 22.5532 85.6526C22.5532 84.4704 22.2399 83.4621 21.6134 82.6276C21.0566 81.7932 19.9777 80.8544 18.3767 79.8113C17.6806 79.394 17.3325 78.942 17.3325 78.4553V77.2036C17.3325 76.5082 17.7502 76.1605 18.5855 76.1605H38.6327C41.417 76.1605 43.5401 76.6125 45.0019 77.5165C46.5332 78.351 47.7514 79.8113 48.6563 81.8975L52.7284 91.2853L54.5034 87.4258C55.1299 85.9655 55.4431 84.8877 55.4431 84.1923C55.4431 83.3578 55.1995 82.6276 54.7122 82.0018C54.2946 81.3064 53.5289 80.5762 52.4151 79.8113C51.7191 79.394 51.371 78.942 51.371 78.4553V77.2036C51.371 76.5082 51.7887 76.1605 52.624 76.1605H71.4182C75.9428 76.1605 78.9011 78.0728 80.2933 81.8975L98.8787 134.887C100.201 138.642 100.863 141.076 100.863 142.188C100.863 144.413 99.714 145.526 97.4169 145.526H74.3418C72.88 145.526 71.8011 145.213 71.105 144.587C70.4785 143.961 69.9216 142.71 69.4344 140.832L57.949 94.9361Z" fill="#C40000"/>
<path d="M121.892 92.537C123.214 92.537 124.119 92.8152 124.607 93.3715C125.163 93.8582 125.442 94.6927 125.442 95.8749V131.757C125.442 132.522 125.616 133.148 125.964 133.635C126.312 134.122 126.799 134.365 127.426 134.365C128.261 134.365 128.853 134.087 129.201 133.53V95.8749C129.201 94.6927 129.444 93.8582 129.932 93.3715C130.489 92.8152 131.428 92.537 132.751 92.537H151.545C152.798 92.537 153.703 92.8152 154.26 93.3715C154.817 93.8582 155.095 94.6927 155.095 95.8749V129.775C155.095 130.958 155.199 131.757 155.408 132.174C155.617 132.592 155.965 132.8 156.452 132.8C157.079 132.8 157.531 132.522 157.81 131.966C158.088 131.41 158.332 130.332 158.541 128.732C158.68 127.55 158.819 126.855 158.958 126.646C159.098 126.368 159.376 126.229 159.794 126.229H161.569C161.986 126.229 162.265 126.472 162.404 126.959C162.613 127.446 162.717 128.245 162.717 129.358C162.717 134.782 161.221 139.059 158.227 142.188C155.234 145.248 151.093 146.778 145.802 146.778C142.531 146.778 139.572 146.013 136.927 144.483C134.282 142.953 132.264 140.797 130.871 138.016C129.34 140.797 127.182 142.953 124.398 144.483C121.613 146.013 118.481 146.778 115.001 146.778C109.989 146.778 106.16 145.283 103.515 142.292C100.87 139.302 99.5476 135.06 99.5476 129.567V105.367C99.5476 102.933 99.1996 101.09 98.5035 99.8386C97.8074 98.5174 96.5196 97.3004 94.6402 96.1878C94.153 95.9097 93.8745 95.701 93.8049 95.562C93.6657 95.3533 93.5961 95.11 93.5961 94.8318V93.5801C93.5961 92.8847 94.0137 92.537 94.849 92.537H121.892Z" fill="#C40000"/>
<path d="M185.216 133.53C185.216 135.339 184.59 136.868 183.337 138.12C182.084 139.302 180.379 139.963 178.221 140.102C177.942 140.519 177.803 140.902 177.803 141.249C177.803 142.153 178.43 142.605 179.683 142.605C181.91 142.605 183.894 141.667 185.634 139.789C187.444 137.842 188.349 135.617 188.349 133.113C188.349 130.262 187.374 128.037 185.425 126.437C183.476 124.769 180.1 123.378 175.297 122.265C166.179 120.179 161.619 115.728 161.619 108.914C161.619 103.489 164.23 99.2128 169.45 96.0835C174.74 92.8847 181.875 91.2853 190.855 91.2853C198.233 91.2853 203.976 92.4327 208.083 94.7275C212.19 96.9527 214.243 100.082 214.243 104.115C214.243 106.897 213.164 109.122 211.006 110.791C208.848 112.391 205.855 113.19 202.027 113.19C198.268 113.19 195.205 112.391 192.839 110.791C190.472 109.192 189.289 107.106 189.289 104.533C189.289 102.725 189.915 101.229 191.168 100.047C192.421 98.7955 194.126 98.1001 196.284 97.9611C196.563 97.5438 196.702 97.1614 196.702 96.8137C196.702 95.9097 196.075 95.4577 194.822 95.4577C192.595 95.4577 190.576 96.4312 188.766 98.3783C187.026 100.256 186.156 102.446 186.156 104.95C186.156 107.801 187.2 110.061 189.289 111.73C191.446 113.399 194.996 114.755 199.939 115.798C205.786 116.98 209.962 118.649 212.468 120.805C214.974 122.891 216.227 125.881 216.227 129.775C216.227 135.269 213.756 139.476 208.814 142.397C203.941 145.317 196.911 146.778 187.722 146.778C179.369 146.778 172.687 145.596 167.675 143.231C162.733 140.867 160.262 137.738 160.262 133.843C160.262 131.062 161.341 128.871 163.499 127.272C165.726 125.673 168.719 124.873 172.478 124.873C176.237 124.873 179.3 125.673 181.666 127.272C184.033 128.871 185.216 130.958 185.216 133.53Z" fill="#C40000"/>
<path d="M239.461 121.431C239.461 123.03 240.819 124.525 243.533 125.916C246.248 127.237 249.276 127.898 252.617 127.898C259.23 127.898 264.659 125.673 268.906 121.222C269.323 120.805 269.602 120.561 269.741 120.492C269.95 120.353 270.228 120.283 270.576 120.283H271.829C272.316 120.283 272.63 120.457 272.769 120.805C272.978 121.152 273.082 121.778 273.082 122.682C273.082 126.994 271.899 130.992 269.532 134.678C267.235 138.294 263.929 141.215 259.613 143.44C255.367 145.665 250.599 146.778 245.308 146.778C239.67 146.778 234.589 145.63 230.064 143.336C225.54 141.041 221.92 137.772 219.205 133.53C216.56 129.289 215.237 124.456 215.237 119.032C215.237 113.677 216.49 108.914 218.996 104.741C221.502 100.569 225.052 97.3004 229.646 94.9361C234.31 92.5022 239.74 91.2853 245.935 91.2853C250.599 91.2853 254.775 92.0154 258.464 93.4758C262.223 94.9361 265.181 97.0223 267.339 99.7343C269.497 102.446 270.576 105.576 270.576 109.122C270.576 113.642 268.94 117.397 265.669 120.388C262.397 123.308 258.255 124.769 253.244 124.769C248.232 124.769 244.16 123.1 241.027 119.762C240.61 119.762 240.227 119.936 239.879 120.283C239.6 120.561 239.461 120.944 239.461 121.431ZM242.594 114.233C243.011 114.79 243.568 115.068 244.264 115.068C245.517 115.068 246.144 114.372 246.144 112.982V98.1697C246.144 96.7789 245.517 96.0835 244.264 96.0835C243.568 96.0835 243.011 96.3617 242.594 96.918V114.233Z" fill="#C40000"/>
<path d="M296.163 92.537C297.485 92.537 298.39 92.8152 298.878 93.3715C299.434 93.8582 299.713 94.6927 299.713 95.8749V131.757C299.713 132.522 299.887 133.148 300.235 133.635C300.583 134.122 301.07 134.365 301.697 134.365C302.532 134.365 303.124 134.087 303.472 133.53V95.8749C303.472 94.6927 303.715 93.8582 304.203 93.3715C304.76 92.8152 305.699 92.537 307.022 92.537H325.816C327.069 92.537 327.974 92.8152 328.531 93.3715C329.088 93.8582 329.366 94.6927 329.366 95.8749V129.775C329.366 130.958 329.47 131.757 329.679 132.174C329.888 132.592 330.236 132.8 330.723 132.8C331.35 132.8 331.802 132.522 332.081 131.966C332.359 131.41 332.603 130.332 332.812 128.732C332.951 127.55 333.09 126.855 333.229 126.646C333.369 126.368 333.647 126.229 334.065 126.229H335.84C336.257 126.229 336.536 126.472 336.675 126.959C336.884 127.446 336.988 128.245 336.988 129.358C336.988 134.782 335.492 139.059 332.498 142.188C329.505 145.248 325.364 146.778 320.073 146.778C316.802 146.778 313.843 146.013 311.198 144.483C308.553 142.953 306.535 140.797 305.142 138.016C303.611 140.797 301.453 142.953 298.669 144.483C295.884 146.013 292.752 146.778 289.272 146.778C284.26 146.778 280.431 145.283 277.786 142.292C275.141 139.302 273.819 135.06 273.819 129.567V105.367C273.819 102.933 273.471 101.09 272.775 99.8386C272.078 98.5174 270.791 97.3004 268.911 96.1878C268.424 95.9097 268.146 95.701 268.076 95.562C267.937 95.3533 267.867 95.11 267.867 94.8318V93.5801C267.867 92.8847 268.285 92.537 269.12 92.537H296.163Z" fill="#C40000"/>
<path d="M348.315 92.537C351.726 92.537 354.441 93.1629 356.46 94.4146C358.548 95.5967 359.975 97.4743 360.74 100.047C362.341 97.2657 364.464 95.11 367.11 93.5801C369.824 92.0502 372.817 91.2853 376.089 91.2853C379.291 91.2853 382.041 92.0154 384.338 93.4758C386.635 94.8666 388.34 96.918 389.454 99.63C390.916 96.9875 392.969 94.9361 395.614 93.4758C398.329 92.0154 401.357 91.2853 404.698 91.2853C409.571 91.2853 413.26 92.7456 415.766 95.6663C418.341 98.5869 419.629 102.864 419.629 108.496V142.188C419.629 143.37 419.351 144.24 418.794 144.796C418.307 145.283 417.402 145.526 416.079 145.526H398.329C397.006 145.526 396.067 145.283 395.51 144.796C395.023 144.24 394.779 143.37 394.779 142.188V106.306C394.779 105.541 394.605 104.915 394.257 104.428C393.909 103.941 393.422 103.698 392.795 103.698C391.96 103.698 391.368 103.976 391.02 104.533V142.188C391.02 143.37 390.742 144.24 390.185 144.796C389.697 145.283 388.793 145.526 387.47 145.526H369.72C368.397 145.526 367.458 145.283 366.901 144.796C366.413 144.24 366.17 143.37 366.17 142.188V106.306C366.17 105.541 365.996 104.915 365.648 104.428C365.3 103.941 364.812 103.698 364.186 103.698C363.351 103.698 362.759 103.976 362.411 104.533V142.188C362.411 143.37 362.133 144.24 361.576 144.796C361.088 145.283 360.184 145.526 358.861 145.526H341.111C339.788 145.526 338.849 145.283 338.292 144.796C337.804 144.24 337.561 143.37 337.561 142.188V105.367C337.561 102.933 337.213 101.09 336.517 99.8386C335.821 98.5174 334.533 97.3004 332.653 96.1878C332.166 95.9097 331.888 95.701 331.818 95.562C331.679 95.3533 331.609 95.11 331.609 94.8318V93.5801C331.609 92.8847 332.027 92.537 332.862 92.537H348.315Z" fill="#C40000"/>
<path d="M59.9144 202.068C59.9144 208.64 57.2147 213.701 51.8152 217.249C46.4158 220.732 38.6744 222.474 28.5911 222.474C19.2233 222.474 12.1 221.061 7.22095 218.235C2.40698 215.344 0 211.17 0 205.716C0 202.364 1.20349 199.637 3.61048 197.534C6.01746 195.365 9.1075 194.281 12.8806 194.281C17.2392 194.281 20.687 195.266 23.2241 197.238C25.8263 199.144 27.1274 201.74 27.1274 205.026C27.1274 207.523 26.2817 209.495 24.5903 210.94C22.8989 212.386 20.5244 213.175 17.4669 213.306C17.0766 213.701 16.8814 214.128 16.8814 214.588C16.8814 215.048 17.0766 215.409 17.4669 215.672C17.9223 215.935 18.4752 216.066 19.1258 216.066C22.3784 216.066 25.0782 215.015 27.2249 212.912C29.4368 210.809 30.5427 208.18 30.5427 205.026C30.5427 202.463 30.0222 200.36 28.9814 198.717C27.9405 197.008 26.2491 195.496 23.9072 194.182C21.6303 192.868 18.5078 191.586 14.5395 190.338C10.0508 188.957 6.66799 186.887 4.39112 184.127C2.11424 181.367 0.975804 177.982 0.975804 173.974C0.975804 170.03 2.1793 166.547 4.58628 163.524C7.05832 160.435 10.5712 158.004 15.125 156.229C19.7438 154.455 25.1107 153.568 31.2257 153.568C39.8128 153.568 46.5133 155.047 51.3273 158.004C56.2063 160.961 58.6458 165.069 58.6458 170.326C58.6458 173.678 57.3773 176.438 54.8402 178.607C52.3682 180.71 49.148 181.761 45.1797 181.761C41.0814 181.761 37.7636 180.775 35.2265 178.804C32.7545 176.832 31.5185 174.236 31.5185 171.016C31.5185 168.519 32.3642 166.547 34.0556 165.102C35.747 163.656 38.1214 162.867 41.1789 162.736C41.5693 162.341 41.7644 161.914 41.7644 161.454C41.7644 160.994 41.5367 160.633 41.0814 160.37C40.691 160.107 40.1706 159.975 39.5201 159.975C37.4384 159.975 35.5193 160.468 33.7628 161.454C32.0714 162.374 30.7053 163.689 29.6644 165.397C28.6236 167.04 28.1032 168.913 28.1032 171.016C28.1032 174.631 29.3067 177.555 31.7136 179.79C34.1206 181.958 38.2515 183.864 44.1063 185.507C49.5058 187.019 53.4741 189.122 56.0112 191.816C58.6133 194.511 59.9144 197.928 59.9144 202.068Z" fill="#FB3F3F"/>
<path d="M114.836 155.244C116.007 155.244 116.82 155.507 117.276 156.032C117.796 156.558 118.057 157.445 118.057 158.694V170.425C118.057 174.565 117.178 177.654 115.422 179.691C113.665 181.663 110.966 182.648 107.323 182.648H95.3203C94.0843 182.648 93.206 182.386 92.6856 181.86C92.1652 181.334 91.905 180.447 91.905 179.198V162.144C91.905 160.698 91.352 159.975 90.2461 159.975C89.4654 159.975 88.88 160.238 88.4896 160.764V185.606H107.03C107.811 185.606 108.201 185.967 108.201 186.69V189.253C108.201 189.91 107.811 190.239 107.03 190.239H88.4896V215.081C88.88 215.606 89.4654 215.869 90.2461 215.869C91.352 215.869 91.905 215.146 91.905 213.701V196.844C91.905 195.595 92.1652 194.708 92.6856 194.182C93.206 193.656 94.0843 193.393 95.3203 193.393H107.323C110.966 193.393 113.665 194.412 115.422 196.449C117.178 198.421 118.057 201.477 118.057 205.617V217.348C118.057 218.597 117.796 219.484 117.276 220.01C116.82 220.535 116.007 220.798 114.836 220.798H65.5583C64.3873 220.798 63.5416 220.535 63.0212 220.01C62.5658 219.484 62.3381 218.597 62.3381 217.348V166.482C62.3381 164.839 62.208 163.656 61.9478 162.933C61.6876 162.144 61.2322 161.454 60.5816 160.863C59.9311 160.205 58.8252 159.351 57.2639 158.3C56.9386 158.102 56.776 157.807 56.776 157.412V156.229C56.776 155.572 57.1663 155.244 57.947 155.244H114.836Z" fill="#FB3F3F"/>
<path d="M130.272 199.407C130.272 198.224 130.565 197.304 131.15 196.647C131.736 195.924 132.549 195.562 133.59 195.562C134.37 195.562 135.216 195.792 136.127 196.252C137.102 196.647 138.208 197.139 139.444 197.731C140.745 198.257 142.307 198.75 144.128 199.21C145.95 199.604 148.129 199.801 150.666 199.801C154.439 199.801 158.017 199.078 161.4 197.632C164.848 196.187 167.417 194.314 169.109 192.013C169.434 191.553 169.629 191.29 169.694 191.225C169.824 191.159 169.955 191.126 170.085 191.126H171.743C172.199 191.126 172.492 191.356 172.622 191.816C172.817 192.211 172.914 193.065 172.914 194.379C172.914 202.988 170.865 209.823 166.767 214.883C162.734 219.944 157.237 222.474 150.276 222.474C146.047 222.474 142.307 221.784 139.054 220.404C135.801 218.958 132.841 216.691 130.174 213.602C129.589 213.602 129.133 213.931 128.808 214.588C128.548 215.179 128.223 216.494 127.832 218.531C127.702 219.385 127.54 219.977 127.344 220.305C127.149 220.634 126.791 220.798 126.271 220.798H123.832C123.051 220.798 122.661 220.272 122.661 219.221V199.702C122.661 196.548 123.083 194.116 123.929 192.408C124.775 190.699 126.173 189.417 128.125 188.563C130.142 187.643 132.939 186.986 136.517 186.592C141.526 186 145.397 184.423 148.129 181.86C150.861 179.297 152.227 175.912 152.227 171.706C152.227 167.829 150.959 164.674 148.422 162.243C145.885 159.745 142.665 158.497 138.761 158.497C137.135 158.497 136.322 158.99 136.322 159.975C136.322 160.501 136.517 160.961 136.907 161.356H137.493C141.071 161.356 143.868 162.276 145.885 164.116C147.966 165.956 149.007 168.42 149.007 171.509C149.007 175.058 147.674 177.95 145.006 180.184C142.404 182.418 138.989 183.536 134.76 183.536C130.207 183.536 126.531 182.32 123.734 179.888C121.002 177.391 119.636 174.105 119.636 170.03C119.636 166.942 120.644 164.149 122.661 161.651C124.677 159.154 127.572 157.182 131.345 155.737C135.118 154.291 139.477 153.568 144.421 153.568C150.146 153.568 155.122 154.422 159.351 156.131C163.579 157.774 166.832 160.205 169.109 163.426C171.451 166.646 172.622 170.458 172.622 174.861C172.622 178.804 171.711 182.418 169.889 185.704C168.068 188.99 165.466 191.619 162.083 193.591C158.7 195.562 154.862 196.548 150.569 196.548C148.357 196.548 146.308 196.318 144.421 195.858C142.599 195.398 140.941 194.872 139.444 194.281C138.013 193.689 136.712 193.163 135.541 192.703C134.37 192.243 133.329 192.013 132.419 192.013C130.727 192.013 129.394 192.703 128.418 194.084C127.507 195.464 127.052 197.402 127.052 199.9V209.56C127.312 209.823 127.702 209.955 128.223 209.955C129.589 209.955 130.272 209.265 130.272 207.884V199.407Z" fill="#FB3F3F"/>
<path d="M204.239 204.631C204.239 199.834 202.645 196.055 199.457 193.295C196.27 190.535 191.911 189.155 186.382 189.155H183.844C183.064 189.155 182.673 188.793 182.673 188.07V186.394C182.673 185.672 183.064 185.31 183.844 185.31H186.479C192.074 185.31 196.432 184.094 199.555 181.663C202.677 179.165 204.239 175.682 204.239 171.213C204.239 167.467 203.165 164.411 201.019 162.046C198.937 159.68 196.237 158.497 192.919 158.497C191.944 158.497 191.163 158.628 190.577 158.891C190.057 159.154 189.797 159.548 189.797 160.074C189.797 160.534 189.992 160.961 190.382 161.356H190.968C194.155 161.356 196.627 162.177 198.384 163.82C200.14 165.463 201.019 167.829 201.019 170.918C201.019 174.598 199.815 177.424 197.408 179.395C195.001 181.301 191.521 182.254 186.967 182.254C182.934 182.254 179.616 181.071 177.014 178.705C174.477 176.339 173.208 173.316 173.208 169.636C173.208 164.641 175.453 160.731 179.941 157.905C184.495 155.014 190.708 153.568 198.579 153.568C206.19 153.568 212.175 155.145 216.534 158.3C220.958 161.454 223.169 165.759 223.169 171.213C223.169 175.222 221.803 178.508 219.071 181.071C216.339 183.634 212.403 185.31 207.264 186.099C213.184 186.427 217.737 188.037 220.925 190.929C224.113 193.821 225.706 197.797 225.706 202.857C225.706 206.734 224.568 210.152 222.291 213.109C220.079 216.066 216.827 218.367 212.533 220.01C208.24 221.653 203.198 222.474 197.408 222.474C189.537 222.474 183.291 220.93 178.673 217.841C174.119 214.752 171.842 210.546 171.842 205.223C171.842 201.345 173.241 198.224 176.038 195.858C178.9 193.426 182.641 192.211 187.26 192.211C191.358 192.211 194.676 193.393 197.213 195.759C199.75 198.059 201.019 201.115 201.019 204.927C201.019 207.95 200.108 210.316 198.286 212.025C196.53 213.668 194.09 214.489 190.968 214.489H190.382C189.992 214.883 189.797 215.311 189.797 215.771C189.797 216.231 190.057 216.625 190.577 216.954C191.163 217.217 191.944 217.348 192.919 217.348C196.237 217.348 198.937 216.165 201.019 213.799C203.165 211.433 204.239 208.377 204.239 204.631Z" fill="#FB3F3F"/>
<path d="M274.301 204.631C274.301 199.834 272.707 196.055 269.52 193.295C266.332 190.535 261.974 189.155 256.444 189.155H253.907C253.126 189.155 252.736 188.793 252.736 188.07V186.394C252.736 185.672 253.126 185.31 253.907 185.31H256.542C262.136 185.31 266.495 184.094 269.617 181.663C272.74 179.165 274.301 175.682 274.301 171.213C274.301 167.467 273.228 164.411 271.081 162.046C268.999 159.68 266.3 158.497 262.982 158.497C262.006 158.497 261.225 158.628 260.64 158.891C260.119 159.154 259.859 159.548 259.859 160.074C259.859 160.534 260.054 160.961 260.445 161.356H261.03C264.218 161.356 266.69 162.177 268.446 163.82C270.203 165.463 271.081 167.829 271.081 170.918C271.081 174.598 269.878 177.424 267.471 179.395C265.064 181.301 261.583 182.254 257.029 182.254C252.996 182.254 249.678 181.071 247.076 178.705C244.539 176.339 243.271 173.316 243.271 169.636C243.271 164.641 245.515 160.731 250.004 157.905C254.557 155.014 260.77 153.568 268.642 153.568C276.253 153.568 282.238 155.145 286.596 158.3C291.02 161.454 293.232 165.759 293.232 171.213C293.232 175.222 291.866 178.508 289.133 181.071C286.401 183.634 282.465 185.31 277.326 186.099C283.246 186.427 287.8 188.037 290.987 190.929C294.175 193.821 295.769 197.797 295.769 202.857C295.769 206.734 294.63 210.152 292.354 213.109C290.142 216.066 286.889 218.367 282.595 220.01C278.302 221.653 273.26 222.474 267.471 222.474C259.599 222.474 253.354 220.93 248.735 217.841C244.181 214.752 241.904 210.546 241.904 205.223C241.904 201.345 243.303 198.224 246.1 195.858C248.963 193.426 252.703 192.211 257.322 192.211C261.421 192.211 264.738 193.393 267.275 195.759C269.812 198.059 271.081 201.115 271.081 204.927C271.081 207.95 270.17 210.316 268.349 212.025C266.592 213.668 264.153 214.489 261.03 214.489H260.445C260.054 214.883 259.859 215.311 259.859 215.771C259.859 216.231 260.119 216.625 260.64 216.954C261.225 217.217 262.006 217.348 262.982 217.348C266.3 217.348 268.999 216.165 271.081 213.799C273.228 211.433 274.301 208.377 274.301 204.631Z" fill="#FB3F3F"/>
<path d="M325.348 194.576C325.738 195.102 326.356 195.365 327.202 195.365C327.788 195.365 328.243 195.135 328.568 194.675C328.894 194.215 329.056 193.623 329.056 192.901V162.44C329.056 161.717 328.894 161.126 328.568 160.666C328.243 160.205 327.788 159.975 327.202 159.975C326.356 159.975 325.738 160.238 325.348 160.764V194.576ZM332.179 155.244C340.506 155.244 346.783 157.215 351.012 161.158C355.305 165.036 357.452 170.786 357.452 178.41C357.452 185.376 355.338 190.929 351.109 195.069C346.881 199.21 341.124 201.28 333.838 201.28C330.65 201.28 327.82 200.885 325.348 200.097V217.348C325.348 218.597 325.12 219.484 324.665 220.01C324.21 220.535 323.364 220.798 322.128 220.798H302.417C301.181 220.798 300.335 220.535 299.88 220.01C299.424 219.484 299.197 218.597 299.197 217.348V166.482C299.197 164.839 299.066 163.656 298.806 162.933C298.546 162.144 298.091 161.454 297.44 160.863C296.79 160.205 295.684 159.351 294.122 158.3C293.797 158.102 293.635 157.807 293.635 157.412V156.229C293.635 155.572 294.025 155.244 294.805 155.244H332.179Z" fill="#FB3F3F"/>
<path d="M355.983 230.952C355.983 228.586 356.471 226.351 357.447 224.248C358.488 222.211 359.952 220.437 361.838 218.925C363.79 217.348 366.067 216.198 368.669 215.475C360.797 209.363 356.861 200.195 356.861 187.972C356.861 176.997 359.789 168.519 365.644 162.538C371.499 156.558 379.76 153.568 390.429 153.568C401.098 153.568 409.327 156.558 415.117 162.538C420.907 168.519 423.802 176.997 423.802 187.972C423.802 196.318 422.078 203.12 418.63 208.377C415.182 213.569 410.205 216.756 403.7 217.939C405.847 218.137 407.896 218.695 409.848 219.615C411.864 220.535 413.783 221.587 415.605 222.77C417.491 224.018 419.28 225.234 420.972 226.417C422.663 227.6 424.29 228.586 425.851 229.375C427.412 230.163 428.876 230.557 430.242 230.557C433.234 230.557 435.186 228.914 436.097 225.629C436.357 224.577 436.552 223.953 436.682 223.756C436.877 223.558 437.17 223.46 437.56 223.46H438.634C439.154 223.46 439.512 223.657 439.707 224.051C439.902 224.511 440 225.497 440 227.009C440 232.2 438.244 236.406 434.731 239.627C431.218 242.913 426.729 244.556 421.265 244.556C417.817 244.556 414.564 244.03 411.507 242.978C408.449 241.927 405.457 240.284 402.529 238.049C399.602 235.815 396.382 232.726 392.869 228.783C389.486 224.971 386.396 222.31 383.598 220.798C380.866 219.221 377.874 218.432 374.621 218.432C372.019 218.432 369.612 218.958 367.4 220.01C365.188 221.061 363.399 222.507 362.033 224.347C360.667 226.253 359.984 228.356 359.984 230.656C359.984 233.613 360.992 236.012 363.009 237.852C365.026 239.758 367.628 240.711 370.815 240.711C372.247 240.711 372.962 240.218 372.962 239.232C372.962 238.904 372.897 238.608 372.767 238.345C369.97 238.345 367.66 237.589 365.839 236.078C364.082 234.632 363.204 232.759 363.204 230.459C363.204 227.764 364.278 225.596 366.424 223.953C368.571 222.31 371.368 221.488 374.816 221.488C378.589 221.488 381.744 222.54 384.282 224.643C386.884 226.811 388.185 229.473 388.185 232.628C388.185 236.176 386.689 239.035 383.696 241.204C380.769 243.438 376.93 244.556 372.182 244.556C367.368 244.556 363.464 243.274 360.472 240.711C357.479 238.214 355.983 234.961 355.983 230.952ZM390.429 214.785C391.665 214.785 392.283 213.931 392.283 212.222V161.257C392.283 159.483 391.665 158.595 390.429 158.595C389.193 158.595 388.575 159.483 388.575 161.257V212.123C388.575 213.898 389.193 214.785 390.429 214.785Z" fill="#FB3F3F"/>
</svg>
