<svg width="485" height="233" viewBox="0 0 485 233" fill="none" xmlns="http://www.w3.org/2000/svg">
<path d="M6.2 19.9001C6.2 18.2334 6.06667 17.0334 5.8 16.3001C5.53333 15.5001 5.06667 14.8001 4.4 14.2001C3.73333 13.5334 2.6 12.6667 1 11.6001C0.666667 11.4001 0.5 11.1001 0.5 10.7001V9.50005C0.5 8.83338 0.9 8.50005 1.7 8.50005H30.7C31.9 8.50005 32.7333 8.76672 33.2 9.30005C33.7333 9.83338 34 10.7334 34 12V38.3001H37.8V12C37.8 10.7334 38.0333 9.83338 38.5 9.30005C39.0333 8.76672 39.9 8.50005 41.1 8.50005H62.3C63.5 8.50005 64.3333 8.76672 64.8 9.30005C65.3333 9.83338 65.6 10.7334 65.6 12V71.5001C65.6 72.7667 65.3333 73.6667 64.8 74.2001C64.3333 74.7334 63.5 75.0001 62.3 75.0001H41.1C39.9 75.0001 39.0333 74.7334 38.5 74.2001C38.0333 73.6667 37.8 72.7667 37.8 71.5001V43.2001H34V71.5001C34 72.7667 33.7333 73.6667 33.2 74.2001C32.7333 74.7334 31.9 75.0001 30.7 75.0001H9.5C8.3 75.0001 7.43333 74.7334 6.9 74.2001C6.43333 73.6667 6.2 72.7667 6.2 71.5001V19.9001Z" fill="#C40000"/>
<path d="M98.3055 71.6001C99.5055 71.6001 100.105 70.7001 100.105 68.9001V30.3C100.105 28.5 99.5055 27.6 98.3055 27.6C97.1055 27.6 96.5055 28.5 96.5055 30.3V68.9001C96.5055 70.7001 97.1055 71.6001 98.3055 71.6001ZM98.3055 76.2001C88.9055 76.2001 81.7388 73.9334 76.8055 69.4001C71.9388 64.8667 69.5055 58.2667 69.5055 49.6001C69.5055 40.9334 71.9388 34.3334 76.8055 29.8001C81.7388 25.2667 88.9055 23 98.3055 23C107.705 23 114.839 25.2667 119.705 29.8001C124.639 34.3334 127.105 40.9334 127.105 49.6001C127.105 58.2667 124.639 64.8667 119.705 69.4001C114.839 73.9334 107.705 76.2001 98.3055 76.2001Z" fill="#C40000"/>
<path d="M132.931 24.2001C138.665 24.2001 142.565 25.9001 144.631 29.3001C146.565 27.1667 148.731 25.6001 151.131 24.6001C153.531 23.5334 156.298 23 159.431 23C164.298 23 168.298 24.3334 171.431 27.0001C174.565 29.6667 176.131 33.0667 176.131 37.2001C176.131 40.6667 174.865 43.5 172.331 45.7001C169.798 47.8334 166.531 48.9001 162.531 48.9001C158.598 48.9001 155.365 47.9001 152.831 45.9001C150.365 43.9001 149.131 41.3667 149.131 38.3001C149.131 35.7001 150.031 33.5667 151.831 31.9001C153.631 30.2334 155.931 29.4001 158.731 29.4001C158.931 29.0667 159.031 28.7334 159.031 28.4001C159.031 27.4667 158.331 27.0001 156.931 27.0001C153.998 27.0001 151.465 28.1334 149.331 30.4001C147.198 32.6001 146.131 35.2667 146.131 38.4001C146.131 41.0667 146.865 43.4334 148.331 45.5001C149.865 47.5001 152.031 49.1 154.831 50.3C155.765 50.7001 156.365 51.1667 156.631 51.7001C156.965 52.1667 157.131 53 157.131 54.2001V71.8001C157.131 73.9334 155.998 75.0001 153.731 75.0001H133.431C131.365 75.0001 130.331 73.9334 130.331 71.8001V36.5C130.331 34.1667 129.998 32.4001 129.331 31.2001C128.665 29.9334 127.431 28.7667 125.631 27.7001C125.165 27.4334 124.898 27.2334 124.831 27.1001C124.698 26.9001 124.631 26.6667 124.631 26.4001V25.2001C124.631 24.5334 125.031 24.2001 125.831 24.2001H132.931Z" fill="#C40000"/>
<path d="M188.729 24.2001C191.996 24.2001 194.596 24.8001 196.529 26.0001C198.529 27.1334 199.896 28.9334 200.629 31.4001C202.162 28.6667 204.229 26.6 206.829 25.2001C209.496 23.7334 212.496 23 215.829 23C220.629 23 224.296 24.4334 226.829 27.3C229.362 30.1667 230.629 34.2334 230.629 39.5001V71.8001C230.629 72.9334 230.362 73.7667 229.829 74.3001C229.362 74.7667 228.496 75.0001 227.229 75.0001H209.229C207.962 75.0001 207.062 74.7667 206.529 74.3001C206.062 73.7667 205.829 72.9334 205.829 71.8001V37.4001C205.829 36.6667 205.662 36.0667 205.329 35.6001C204.996 35.1334 204.529 34.9001 203.929 34.9001C203.129 34.9001 202.562 35.1667 202.229 35.7001V71.8001C202.229 72.9334 201.962 73.7667 201.429 74.3001C200.962 74.7667 200.096 75.0001 198.829 75.0001H180.829C179.562 75.0001 178.662 74.7667 178.129 74.3001C177.662 73.7667 177.429 72.9334 177.429 71.8001V36.5C177.429 34.1667 177.096 32.4001 176.429 31.2001C175.762 29.9334 174.529 28.7667 172.729 27.7001C172.262 27.4334 171.996 27.2334 171.929 27.1001C171.796 26.9001 171.729 26.6667 171.729 26.4001V25.2001C171.729 24.5334 172.129 24.2001 172.929 24.2001H188.729Z" fill="#C40000"/>
<path d="M234.355 10.2001C234.355 7.20005 235.521 4.80005 237.855 3.00005C240.188 1.20005 243.321 0.300049 247.255 0.300049C251.188 0.300049 254.321 1.20005 256.655 3.00005C259.055 4.80005 260.255 7.20005 260.255 10.2001C260.255 13.1334 259.055 15.5001 256.655 17.3001C254.321 19.1001 251.188 20.0001 247.255 20.0001C243.321 20.0001 240.188 19.1334 237.855 17.4001C235.521 15.6 234.355 13.2001 234.355 10.2001ZM257.355 24.2001C258.621 24.2001 259.488 24.4667 259.955 25.0001C260.488 25.4667 260.755 26.2667 260.755 27.4001V59.9001C260.755 61.0334 260.855 61.8 261.055 62.2001C261.255 62.6001 261.588 62.8 262.055 62.8C262.655 62.8 263.055 62.5667 263.255 62.1001C263.521 61.6334 263.788 60.5667 264.055 58.9001C264.188 57.7667 264.321 57.1001 264.455 56.9001C264.588 56.6334 264.855 56.5001 265.255 56.5001H266.955C267.355 56.5001 267.621 56.7334 267.755 57.2001C267.955 57.6667 268.055 58.4667 268.055 59.6001C268.055 64.9334 266.621 69.0334 263.755 71.9001C260.888 74.7667 256.788 76.2001 251.455 76.2001C246.321 76.2001 242.355 74.7667 239.555 71.9001C236.821 68.9667 235.455 64.8001 235.455 59.4001V36.5C235.455 34.1667 235.121 32.4001 234.455 31.2001C233.788 29.9334 232.555 28.7667 230.755 27.7001C230.288 27.4334 230.021 27.2334 229.955 27.1001C229.821 26.9001 229.755 26.6667 229.755 26.4001V25.2001C229.755 24.5334 230.155 24.2001 230.955 24.2001H257.355Z" fill="#C40000"/>
<path d="M279.873 24.2001C283.14 24.2001 285.74 24.8001 287.673 26.0001C289.673 27.1334 291.04 28.9334 291.773 31.4001C293.307 28.7334 295.34 26.6667 297.873 25.2001C300.473 23.7334 303.34 23 306.473 23C309.54 23 312.173 23.7001 314.373 25.1001C316.573 26.4334 318.207 28.4 319.273 31C320.673 28.4667 322.64 26.5001 325.173 25.1001C327.773 23.7001 330.673 23 333.873 23C338.54 23 342.073 24.4 344.473 27.2001C346.94 30 348.173 34.1001 348.173 39.5001V71.8001C348.173 72.9334 347.907 73.7667 347.373 74.3001C346.907 74.7667 346.04 75.0001 344.773 75.0001H327.773C326.507 75.0001 325.607 74.7667 325.073 74.3001C324.607 73.7667 324.373 72.9334 324.373 71.8001V37.4001C324.373 36.6667 324.207 36.0667 323.873 35.6001C323.54 35.1334 323.073 34.9001 322.473 34.9001C321.673 34.9001 321.107 35.1667 320.773 35.7001V71.8001C320.773 72.9334 320.507 73.7667 319.973 74.3001C319.507 74.7667 318.64 75.0001 317.373 75.0001H300.373C299.107 75.0001 298.207 74.7667 297.673 74.3001C297.207 73.7667 296.973 72.9334 296.973 71.8001V37.4001C296.973 36.6667 296.807 36.0667 296.473 35.6001C296.14 35.1334 295.673 34.9001 295.073 34.9001C294.273 34.9001 293.707 35.1667 293.373 35.7001V71.8001C293.373 72.9334 293.107 73.7667 292.573 74.3001C292.107 74.7667 291.24 75.0001 289.973 75.0001H272.973C271.707 75.0001 270.807 74.7667 270.273 74.3001C269.807 73.7667 269.573 72.9334 269.573 71.8001V36.5C269.573 34.1667 269.24 32.4001 268.573 31.2001C267.907 29.9334 266.673 28.7667 264.873 27.7001C264.407 27.4334 264.14 27.2334 264.073 27.1001C263.94 26.9001 263.873 26.6667 263.873 26.4001V25.2001C263.873 24.5334 264.273 24.2001 265.073 24.2001H279.873Z" fill="#C40000"/>
<path d="M377.89 54.6001C377.49 54.0667 376.957 53.8 376.29 53.8C375.157 53.8 374.59 54.4667 374.59 55.8001V62.2001C374.59 63.5334 375.157 64.2001 376.29 64.2001C376.957 64.2001 377.49 63.9334 377.89 63.4001V54.6001ZM393.99 76.2001C387.257 76.2001 382.457 73.4334 379.59 67.9001C378.057 70.7667 376.156 72.8667 373.89 74.2001C371.69 75.5334 368.957 76.2001 365.69 76.2001C361.09 76.2001 357.39 75.0667 354.59 72.8001C351.79 70.5334 350.39 67.5334 350.39 63.8001C350.39 60.5334 351.523 57.9667 353.79 56.1001C356.123 54.1667 359.69 52.8667 364.49 52.2001C376.757 50.6001 382.89 45.9667 382.89 38.3001C382.89 35.2334 381.823 32.6001 379.69 30.4001C377.557 28.1334 375.023 27.0001 372.09 27.0001C370.69 27.0001 369.99 27.4667 369.99 28.4001C369.99 28.7334 370.09 29.0667 370.29 29.4001C373.09 29.4001 375.39 30.2334 377.19 31.9001C378.99 33.5667 379.89 35.7001 379.89 38.3001C379.89 41.3667 378.59 43.9001 375.99 45.9001C373.457 47.9001 370.19 48.9001 366.19 48.9001C362.123 48.9001 358.89 47.9001 356.49 45.9001C354.09 43.8334 352.89 41.1334 352.89 37.8001C352.89 33.3334 355.056 29.7667 359.39 27.1001C363.723 24.3667 369.457 23 376.59 23C385.123 23 391.59 25.0667 395.99 29.2001C400.457 33.3334 402.69 39.4 402.69 47.4V59.9001C402.69 61.0334 402.79 61.8 402.99 62.2001C403.19 62.6001 403.523 62.8 403.99 62.8C404.59 62.8 405.023 62.5334 405.29 62.0001C405.557 61.4667 405.79 60.4334 405.99 58.9001C406.123 57.7667 406.257 57.1001 406.39 56.9001C406.523 56.6334 406.79 56.5001 407.19 56.5001H408.89C409.29 56.5001 409.557 56.7334 409.69 57.2001C409.89 57.6667 409.99 58.4334 409.99 59.5001C409.99 64.8334 408.59 68.9667 405.79 71.9001C403.057 74.7667 399.123 76.2001 393.99 76.2001Z" fill="#C40000"/>
<path d="M422.823 24.2001C426.089 24.2001 428.689 24.8001 430.623 26.0001C432.623 27.1334 433.989 28.9334 434.723 31.4001C436.256 28.6667 438.323 26.6 440.923 25.2001C443.589 23.7334 446.589 23 449.923 23C454.723 23 458.389 24.4334 460.923 27.3C463.456 30.1667 464.723 34.2334 464.723 39.5001V71.8001C464.723 72.9334 464.456 73.7667 463.923 74.3001C463.456 74.7667 462.589 75.0001 461.323 75.0001H443.323C442.056 75.0001 441.156 74.7667 440.623 74.3001C440.156 73.7667 439.923 72.9334 439.923 71.8001V37.4001C439.923 36.6667 439.756 36.0667 439.423 35.6001C439.089 35.1334 438.623 34.9001 438.023 34.9001C437.223 34.9001 436.656 35.1667 436.323 35.7001V71.8001C436.323 72.9334 436.056 73.7667 435.523 74.3001C435.056 74.7667 434.189 75.0001 432.923 75.0001H414.923C413.656 75.0001 412.756 74.7667 412.223 74.3001C411.756 73.7667 411.523 72.9334 411.523 71.8001V36.5C411.523 34.1667 411.189 32.4001 410.523 31.2001C409.856 29.9334 408.623 28.7667 406.823 27.7001C406.356 27.4334 406.089 27.2334 406.023 27.1001C405.889 26.9001 405.823 26.6667 405.823 26.4001V25.2001C405.823 24.5334 406.223 24.2001 407.023 24.2001H422.823Z" fill="#C40000"/>
<path d="M66.4826 187.705C66.4826 194.711 63.577 200.106 57.7659 203.889C51.9548 207.603 43.6231 209.459 32.771 209.459C22.689 209.459 15.0225 207.953 9.77152 204.94C4.59051 201.858 2 197.409 2 191.594C2 188.021 3.29525 185.113 5.88576 182.871C8.47627 180.559 11.8019 179.403 15.8627 179.403C20.5536 179.403 24.2643 180.454 26.9949 182.556C29.7954 184.588 31.1957 187.355 31.1957 190.858C31.1957 193.52 30.2855 195.622 28.4652 197.164C26.6448 198.705 24.0893 199.546 20.7987 199.686C20.3786 200.106 20.1686 200.562 20.1686 201.052C20.1686 201.542 20.3786 201.928 20.7987 202.208C21.2888 202.488 21.8839 202.628 22.584 202.628C26.0847 202.628 28.9903 201.507 31.3007 199.265C33.6812 197.023 34.8714 194.221 34.8714 190.858C34.8714 188.126 34.3113 185.884 33.1911 184.132C32.0709 182.311 30.2505 180.699 27.73 179.298C25.2795 177.897 21.9189 176.531 17.6481 175.199C12.8171 173.728 9.1764 171.521 6.72592 168.579C4.27544 165.636 3.05021 162.028 3.05021 157.754C3.05021 153.55 4.34546 149.837 6.93596 146.614C9.59648 143.321 13.3772 140.729 18.2782 138.837C23.2492 136.946 29.0253 136 35.6066 136C44.8484 136 52.0598 137.576 57.2408 140.729C62.4918 143.882 65.1173 148.261 65.1173 153.866C65.1173 157.439 63.7521 160.381 61.0215 162.693C58.361 164.935 54.8953 166.056 50.6245 166.056C46.2136 166.056 42.6429 165.005 39.9124 162.904C37.2519 160.802 35.9216 158.034 35.9216 154.601C35.9216 151.939 36.8318 149.837 38.6522 148.296C40.4725 146.754 43.028 145.914 46.3187 145.774C46.7387 145.353 46.9488 144.898 46.9488 144.407C46.9488 143.917 46.7037 143.532 46.2136 143.251C45.7936 142.971 45.2334 142.831 44.5333 142.831C42.2929 142.831 40.2275 143.356 38.3371 144.407C36.5167 145.388 35.0465 146.789 33.9262 148.611C32.806 150.363 32.2459 152.359 32.2459 154.601C32.2459 158.455 33.5412 161.572 36.1317 163.954C38.7222 166.267 43.168 168.298 49.4693 170.05C55.2804 171.661 59.5512 173.903 62.2818 176.776C65.0823 179.648 66.4826 183.291 66.4826 187.705Z" fill="#FB3F3F"/>
<path d="M126.942 137.787C128.203 137.787 129.078 138.067 129.568 138.627C130.128 139.188 130.408 140.134 130.408 141.465V153.971C130.408 158.385 129.463 161.678 127.573 163.849C125.682 165.951 122.777 167.002 118.856 167.002H105.938C104.608 167.002 103.663 166.722 103.103 166.161C102.543 165.601 102.263 164.655 102.263 163.324V145.143C102.263 143.602 101.667 142.831 100.477 142.831C99.6371 142.831 99.007 143.111 98.5869 143.672V170.155H118.541C119.381 170.155 119.801 170.54 119.801 171.311V174.043C119.801 174.744 119.381 175.094 118.541 175.094H98.5869V201.577C99.007 202.138 99.6371 202.418 100.477 202.418C101.667 202.418 102.263 201.648 102.263 200.106V182.135C102.263 180.804 102.543 179.858 103.103 179.298C103.663 178.737 104.608 178.457 105.938 178.457H118.856C122.777 178.457 125.682 179.543 127.573 181.715C129.463 183.817 130.408 187.075 130.408 191.489V203.995C130.408 205.326 130.128 206.272 129.568 206.832C129.078 207.393 128.203 207.673 126.942 207.673H73.9071C72.6468 207.673 71.7366 207.393 71.1765 206.832C70.6864 206.272 70.4414 205.326 70.4414 203.995V149.767C70.4414 148.016 70.3013 146.754 70.0213 145.984C69.7412 145.143 69.2511 144.407 68.551 143.777C67.8509 143.076 66.6606 142.165 64.9803 141.044C64.6302 140.834 64.4552 140.519 64.4552 140.099V138.837C64.4552 138.137 64.8753 137.787 65.7155 137.787H126.942Z" fill="#FB3F3F"/>
<path d="M144.905 184.868C144.905 183.607 145.22 182.626 145.85 181.925C146.48 181.155 147.355 180.769 148.476 180.769C149.316 180.769 150.226 181.014 151.206 181.505C152.256 181.925 153.447 182.451 154.777 183.081C156.177 183.642 157.858 184.167 159.818 184.658C161.778 185.078 164.124 185.288 166.854 185.288C170.915 185.288 174.766 184.518 178.407 182.976C182.117 181.435 184.883 179.438 186.703 176.986C187.053 176.495 187.263 176.215 187.333 176.145C187.473 176.075 187.613 176.04 187.753 176.04H189.539C190.029 176.04 190.344 176.285 190.484 176.776C190.694 177.196 190.799 178.107 190.799 179.508C190.799 188.686 188.594 195.973 184.183 201.367C179.842 206.762 173.926 209.459 166.434 209.459C161.883 209.459 157.858 208.724 154.357 207.252C150.856 205.711 147.671 203.294 144.8 200.001C144.17 200.001 143.68 200.351 143.33 201.052C143.05 201.683 142.7 203.084 142.28 205.256C142.139 206.166 141.964 206.797 141.754 207.147C141.544 207.498 141.159 207.673 140.599 207.673H137.974C137.133 207.673 136.713 207.112 136.713 205.991V185.183C136.713 181.82 137.169 179.228 138.079 177.406C138.989 175.585 140.494 174.218 142.595 173.308C144.765 172.327 147.776 171.626 151.626 171.206C157.017 170.575 161.183 168.894 164.124 166.161C167.064 163.429 168.535 159.821 168.535 155.337C168.535 151.203 167.169 147.84 164.439 145.248C161.708 142.586 158.243 141.255 154.042 141.255C152.291 141.255 151.416 141.78 151.416 142.831C151.416 143.391 151.626 143.882 152.046 144.302H152.677C156.527 144.302 159.538 145.283 161.708 147.245C163.949 149.207 165.069 151.834 165.069 155.127C165.069 158.91 163.634 161.993 160.763 164.375C157.963 166.757 154.287 167.948 149.736 167.948C144.835 167.948 140.879 166.652 137.869 164.06C134.928 161.397 133.458 157.894 133.458 153.55C133.458 150.257 134.543 147.28 136.713 144.618C138.884 141.955 141.999 139.853 146.06 138.312C150.121 136.771 154.812 136 160.133 136C166.294 136 171.65 136.911 176.201 138.732C180.752 140.484 184.253 143.076 186.703 146.509C189.224 149.942 190.484 154.006 190.484 158.7C190.484 162.904 189.504 166.757 187.543 170.26C185.583 173.763 182.782 176.566 179.142 178.667C175.501 180.769 171.37 181.82 166.749 181.82C164.369 181.82 162.163 181.575 160.133 181.085C158.173 180.594 156.387 180.034 154.777 179.403C153.237 178.772 151.836 178.212 150.576 177.722C149.316 177.231 148.196 176.986 147.215 176.986C145.395 176.986 143.96 177.722 142.91 179.193C141.929 180.664 141.439 182.731 141.439 185.393V195.692C141.719 195.973 142.139 196.113 142.7 196.113C144.17 196.113 144.905 195.377 144.905 193.906V184.868Z" fill="#FB3F3F"/>
<path d="M225.862 190.438C225.862 185.323 224.147 181.295 220.716 178.352C217.285 175.41 212.594 173.938 206.643 173.938H203.913C203.072 173.938 202.652 173.553 202.652 172.782V170.996C202.652 170.225 203.072 169.84 203.913 169.84H206.748C212.769 169.84 217.46 168.544 220.821 165.951C224.182 163.289 225.862 159.576 225.862 154.811C225.862 150.818 224.707 147.56 222.396 145.038C220.156 142.516 217.25 141.255 213.68 141.255C212.629 141.255 211.789 141.395 211.159 141.675C210.599 141.955 210.319 142.376 210.319 142.936C210.319 143.427 210.529 143.882 210.949 144.302H211.579C215.01 144.302 217.67 145.178 219.561 146.93C221.451 148.681 222.396 151.203 222.396 154.496C222.396 158.42 221.101 161.432 218.51 163.534C215.92 165.566 212.174 166.582 207.273 166.582C202.932 166.582 199.362 165.321 196.561 162.798C193.831 160.276 192.465 157.053 192.465 153.13C192.465 147.805 194.881 143.637 199.712 140.624C204.613 137.541 211.299 136 219.771 136C227.962 136 234.404 137.681 239.094 141.044C243.855 144.407 246.236 148.996 246.236 154.811C246.236 159.085 244.766 162.588 241.825 165.321C238.884 168.053 234.649 169.84 229.118 170.68C235.489 171.031 240.39 172.747 243.82 175.83C247.251 178.913 248.966 183.151 248.966 188.546C248.966 192.68 247.741 196.323 245.291 199.476C242.91 202.628 239.41 205.081 234.789 206.832C230.168 208.584 224.742 209.459 218.51 209.459C210.039 209.459 203.317 207.813 198.347 204.52C193.446 201.227 190.995 196.743 190.995 191.068C190.995 186.935 192.5 183.607 195.511 181.085C198.592 178.492 202.617 177.196 207.588 177.196C211.999 177.196 215.57 178.457 218.3 180.979C221.031 183.432 222.396 186.689 222.396 190.753C222.396 193.976 221.416 196.498 219.456 198.32C217.565 200.071 214.94 200.947 211.579 200.947H210.949C210.529 201.367 210.319 201.823 210.319 202.313C210.319 202.804 210.599 203.224 211.159 203.574C211.789 203.854 212.629 203.995 213.68 203.995C217.25 203.995 220.156 202.733 222.396 200.211C224.707 197.689 225.862 194.431 225.862 190.438Z" fill="#FB3F3F"/>
<path d="M303.967 190.438C303.967 185.323 302.251 181.295 298.821 178.352C295.39 175.41 290.699 173.938 284.748 173.938H282.018C281.177 173.938 280.757 173.553 280.757 172.782V170.996C280.757 170.225 281.177 169.84 282.018 169.84H284.853C290.874 169.84 295.565 168.544 298.926 165.951C302.286 163.289 303.967 159.576 303.967 154.811C303.967 150.818 302.812 147.56 300.501 145.038C298.261 142.516 295.355 141.255 291.784 141.255C290.734 141.255 289.894 141.395 289.264 141.675C288.704 141.955 288.424 142.376 288.424 142.936C288.424 143.427 288.634 143.882 289.054 144.302H289.684C293.115 144.302 295.775 145.178 297.666 146.93C299.556 148.681 300.501 151.203 300.501 154.496C300.501 158.42 299.206 161.432 296.615 163.534C294.025 165.566 290.279 166.582 285.378 166.582C281.037 166.582 277.467 165.321 274.666 162.798C271.936 160.276 270.57 157.053 270.57 153.13C270.57 147.805 272.986 143.637 277.817 140.624C282.718 137.541 289.404 136 297.876 136C306.067 136 312.508 137.681 317.199 141.044C321.96 144.407 324.341 148.996 324.341 154.811C324.341 159.085 322.87 162.588 319.93 165.321C316.989 168.053 312.754 169.84 307.222 170.68C313.594 171.031 318.495 172.747 321.925 175.83C325.356 178.913 327.071 183.151 327.071 188.546C327.071 192.68 325.846 196.323 323.396 199.476C321.015 202.628 317.514 205.081 312.894 206.832C308.273 208.584 302.847 209.459 296.615 209.459C288.144 209.459 281.422 207.813 276.451 204.52C271.55 201.227 269.1 196.743 269.1 191.068C269.1 186.935 270.605 183.607 273.616 181.085C276.696 178.492 280.722 177.196 285.693 177.196C290.104 177.196 293.675 178.457 296.405 180.979C299.136 183.432 300.501 186.689 300.501 190.753C300.501 193.976 299.521 196.498 297.561 198.32C295.67 200.071 293.045 200.947 289.684 200.947H289.054C288.634 201.367 288.424 201.823 288.424 202.313C288.424 202.804 288.704 203.224 289.264 203.574C289.894 203.854 290.734 203.995 291.784 203.995C295.355 203.995 298.261 202.733 300.501 200.211C302.812 197.689 303.967 194.431 303.967 190.438Z" fill="#FB3F3F"/>
<path d="M360.256 179.718C360.676 180.279 361.341 180.559 362.252 180.559C362.882 180.559 363.372 180.314 363.722 179.823C364.072 179.333 364.247 178.702 364.247 177.932V145.458C364.247 144.688 364.072 144.057 363.722 143.567C363.372 143.076 362.882 142.831 362.252 142.831C361.341 142.831 360.676 143.111 360.256 143.672V179.718ZM367.608 137.787C376.569 137.787 383.326 139.888 387.877 144.092C392.497 148.226 394.808 154.356 394.808 162.483C394.808 169.91 392.532 175.83 387.982 180.244C383.431 184.658 377.234 186.865 369.393 186.865C365.962 186.865 362.917 186.444 360.256 185.603V203.995C360.256 205.326 360.011 206.272 359.521 206.832C359.031 207.393 358.121 207.673 356.79 207.673H335.576C334.246 207.673 333.336 207.393 332.846 206.832C332.356 206.272 332.111 205.326 332.111 203.995V149.767C332.111 148.016 331.971 146.754 331.691 145.984C331.411 145.143 330.92 144.407 330.22 143.777C329.52 143.076 328.33 142.165 326.65 141.044C326.3 140.834 326.124 140.519 326.124 140.099V138.837C326.124 138.137 326.545 137.787 327.385 137.787H367.608Z" fill="#FB3F3F"/>
<path d="M394.577 218.497C394.577 215.975 395.102 213.593 396.153 211.351C397.273 209.179 398.848 207.287 400.879 205.676C402.979 203.995 405.429 202.769 408.23 201.998C399.758 195.482 395.523 185.709 395.523 172.677C395.523 160.977 398.673 151.939 404.974 145.563C411.276 139.188 420.167 136 431.65 136C443.132 136 451.989 139.188 458.22 145.563C464.451 151.939 467.567 160.977 467.567 172.677C467.567 181.575 465.711 188.826 462.001 194.431C458.29 199.966 452.934 203.364 445.932 204.625C448.243 204.835 450.448 205.431 452.549 206.412C454.719 207.393 456.784 208.514 458.745 209.775C460.775 211.106 462.701 212.402 464.521 213.663C466.341 214.924 468.092 215.975 469.772 216.816C471.452 217.657 473.028 218.077 474.498 218.077C477.719 218.077 479.819 216.325 480.799 212.822C481.079 211.701 481.289 211.036 481.429 210.826C481.639 210.615 481.954 210.51 482.375 210.51H483.53C484.09 210.51 484.475 210.72 484.685 211.141C484.895 211.631 485 212.682 485 214.294C485 219.828 483.11 224.312 479.329 227.745C475.548 231.248 470.717 233 464.836 233C461.125 233 457.625 232.44 454.334 231.319C451.043 230.198 447.823 228.446 444.672 226.064C441.522 223.682 438.056 220.389 434.275 216.185C430.634 212.122 427.309 209.284 424.298 207.673C421.358 205.991 418.137 205.151 414.636 205.151C411.836 205.151 409.245 205.711 406.865 206.832C404.484 207.953 402.559 209.494 401.089 211.456C399.618 213.488 398.883 215.73 398.883 218.182C398.883 221.335 399.968 223.892 402.139 225.854C404.309 227.886 407.11 228.901 410.54 228.901C412.081 228.901 412.851 228.376 412.851 227.325C412.851 226.975 412.781 226.659 412.641 226.379C409.63 226.379 407.145 225.573 405.184 223.962C403.294 222.421 402.349 220.424 402.349 217.972C402.349 215.099 403.504 212.787 405.815 211.036C408.125 209.284 411.136 208.408 414.846 208.408C418.907 208.408 422.303 209.529 425.033 211.771C427.834 214.083 429.234 216.921 429.234 220.284C429.234 224.067 427.624 227.115 424.403 229.427C421.253 231.809 417.122 233 412.011 233C406.83 233 402.629 231.634 399.408 228.901C396.188 226.239 394.577 222.771 394.577 218.497ZM431.65 201.262C432.98 201.262 433.645 200.351 433.645 198.53V144.197C433.645 142.306 432.98 141.36 431.65 141.36C430.319 141.36 429.654 142.306 429.654 144.197V198.425C429.654 200.316 430.319 201.262 431.65 201.262Z" fill="#FB3F3F"/>
<path d="M27.9883 84.5211C24.9364 84.5211 22.3774 85.5305 20.3115 87.5493C18.2456 89.5681 17.2127 92.0563 17.2127 95.0141C17.2127 98.723 18.5508 101.775 21.2271 104.169C23.9504 106.563 27.4248 107.761 31.6506 107.761C34.1391 107.761 36.4632 107.291 38.6231 106.352C40.8298 105.413 42.6375 104.122 44.0461 102.479C44.3278 102.15 44.5391 101.939 44.6799 101.845C44.8208 101.704 44.9851 101.634 45.1729 101.634H46.2294C46.558 101.634 46.7928 101.775 46.9337 102.056C47.1215 102.291 47.2858 102.784 47.4267 103.535C47.6145 104.474 47.7084 105.531 47.7084 106.704C47.7084 111.07 46.7928 115.038 44.9617 118.606C43.1305 122.127 40.5481 124.944 37.2145 127.056C33.8808 129.169 30.0542 130.225 25.7346 130.225C21.368 130.225 17.377 129.192 13.7616 127.127C10.1932 125.061 7.32912 122.103 5.1693 118.254C3.05643 114.404 2 110.014 2 105.085C2 100.484 2.96253 96.3756 4.88759 92.7606C6.81264 89.0986 9.55937 86.2347 13.1278 84.169C16.6962 82.0563 20.828 81 25.5233 81C29.0447 81 32.214 81.5869 35.0312 82.7606C37.8483 83.8873 40.0786 85.507 41.7219 87.6197C43.4122 89.7324 44.2574 92.1502 44.2574 94.8732C44.2574 98.0188 43.1305 100.554 40.8768 102.479C38.6231 104.357 35.6416 105.296 31.9323 105.296C29.6786 105.296 27.6127 104.873 25.7346 104.028C23.9034 103.136 22.4244 101.915 21.2975 100.366C20.2176 98.77 19.6777 96.9624 19.6777 94.9437C19.6777 92.4085 20.5463 90.3897 22.2835 88.8873C24.0208 87.385 26.3684 86.6338 29.3264 86.6338C29.6081 86.3521 29.749 86.0469 29.749 85.7183C29.749 85.3427 29.5847 85.061 29.256 84.8732C28.9273 84.6385 28.5048 84.5211 27.9883 84.5211Z" fill="#C40000"/>
<path d="M67.6948 126.634C68.5399 126.634 68.9625 126 68.9625 124.732V97.5493C68.9625 96.2817 68.5399 95.6479 67.6948 95.6479C66.8496 95.6479 66.4271 96.2817 66.4271 97.5493V124.732C66.4271 126 66.8496 126.634 67.6948 126.634ZM67.6948 129.873C61.0745 129.873 56.0271 128.277 52.5526 125.085C49.125 121.892 47.4113 117.244 47.4113 111.141C47.4113 105.038 49.125 100.39 52.5526 97.1972C56.0271 94.0047 61.0745 92.4085 67.6948 92.4085C74.3151 92.4085 79.3391 94.0047 82.7666 97.1972C86.2411 100.39 87.9783 105.038 87.9783 111.141C87.9783 117.244 86.2411 121.892 82.7666 125.085C79.3391 128.277 74.3151 129.873 67.6948 129.873Z" fill="#C40000"/>
<path d="M98.2087 93.2535C100.509 93.2535 102.341 93.6761 103.702 94.5211C105.111 95.3193 106.073 96.5869 106.59 98.3239C107.67 96.3991 109.125 94.9437 110.956 93.9577C112.834 92.9249 114.947 92.4085 117.295 92.4085C120.676 92.4085 123.258 93.4178 125.042 95.4366C126.826 97.4554 127.718 100.319 127.718 104.028V126.775C127.718 127.573 127.531 128.16 127.155 128.535C126.826 128.864 126.216 129.028 125.324 129.028H112.647C111.755 129.028 111.121 128.864 110.745 128.535C110.416 128.16 110.252 127.573 110.252 126.775V102.549C110.252 102.033 110.135 101.61 109.9 101.282C109.665 100.953 109.336 100.789 108.914 100.789C108.35 100.789 107.951 100.977 107.717 101.352V126.775C107.717 127.573 107.529 128.16 107.153 128.535C106.824 128.864 106.214 129.028 105.322 129.028H92.6448C91.7527 129.028 91.1188 128.864 90.7432 128.535C90.4145 128.16 90.2502 127.573 90.2502 126.775V101.915C90.2502 100.272 90.0154 99.0282 89.5459 98.1831C89.0764 97.2911 88.2078 96.4695 86.94 95.7183C86.6114 95.5305 86.4236 95.3897 86.3766 95.2958C86.2827 95.1549 86.2358 94.9906 86.2358 94.8028V93.9577C86.2358 93.4883 86.5175 93.2535 87.0809 93.2535H98.2087Z" fill="#C40000"/>
<path d="M146.189 120.93C146.189 122.15 145.766 123.183 144.921 124.028C144.076 124.826 142.926 125.272 141.47 125.366C141.282 125.648 141.188 125.906 141.188 126.141C141.188 126.751 141.611 127.056 142.456 127.056C143.959 127.056 145.297 126.423 146.471 125.155C147.691 123.84 148.302 122.338 148.302 120.648C148.302 118.723 147.644 117.221 146.33 116.141C145.015 115.014 142.738 114.075 139.498 113.324C133.347 111.915 130.272 108.911 130.272 104.31C130.272 100.648 132.033 97.7606 135.554 95.6479C139.123 93.4883 143.935 92.4085 149.992 92.4085C154.969 92.4085 158.843 93.1831 161.613 94.7324C164.383 96.2347 165.768 98.3474 165.768 101.07C165.768 102.948 165.04 104.451 163.585 105.577C162.129 106.657 160.11 107.197 157.528 107.197C154.993 107.197 152.927 106.657 151.33 105.577C149.734 104.498 148.936 103.089 148.936 101.352C148.936 100.131 149.358 99.1221 150.203 98.3239C151.049 97.4789 152.199 97.0094 153.654 96.9155C153.842 96.6338 153.936 96.3756 153.936 96.1408C153.936 95.5305 153.514 95.2254 152.668 95.2254C151.166 95.2254 149.804 95.8826 148.584 97.1972C147.41 98.4648 146.823 99.9437 146.823 101.634C146.823 103.559 147.527 105.085 148.936 106.211C150.391 107.338 152.786 108.254 156.119 108.958C160.063 109.756 162.881 110.883 164.571 112.338C166.261 113.746 167.106 115.765 167.106 118.394C167.106 122.103 165.44 124.944 162.106 126.915C158.819 128.887 154.077 129.873 147.879 129.873C142.245 129.873 137.737 129.075 134.357 127.479C131.023 125.883 129.356 123.77 129.356 121.141C129.356 119.263 130.084 117.784 131.54 116.704C133.042 115.624 135.061 115.085 137.597 115.085C140.132 115.085 142.198 115.624 143.794 116.704C145.391 117.784 146.189 119.192 146.189 120.93Z" fill="#C40000"/>
<path d="M183.483 112.761C183.483 113.84 184.398 114.85 186.229 115.789C188.061 116.681 190.103 117.127 192.357 117.127C196.817 117.127 200.48 115.624 203.344 112.62C203.625 112.338 203.813 112.174 203.907 112.127C204.048 112.033 204.236 111.986 204.471 111.986H205.316C205.644 111.986 205.856 112.103 205.95 112.338C206.09 112.573 206.161 112.995 206.161 113.606C206.161 116.516 205.363 119.216 203.766 121.704C202.217 124.146 199.987 126.117 197.076 127.62C194.211 129.122 190.995 129.873 187.427 129.873C183.624 129.873 180.196 129.099 177.144 127.549C174.092 126 171.651 123.793 169.82 120.93C168.035 118.066 167.143 114.803 167.143 111.141C167.143 107.526 167.988 104.31 169.679 101.493C171.369 98.6761 173.764 96.4695 176.862 94.8732C180.008 93.23 183.671 92.4085 187.849 92.4085C190.995 92.4085 193.812 92.9014 196.301 93.8873C198.836 94.8732 200.832 96.2817 202.287 98.1127C203.743 99.9437 204.471 102.056 204.471 104.451C204.471 107.502 203.367 110.038 201.16 112.056C198.954 114.028 196.16 115.014 192.779 115.014C189.399 115.014 186.652 113.887 184.539 111.634C184.257 111.634 183.999 111.751 183.764 111.986C183.577 112.174 183.483 112.432 183.483 112.761ZM185.596 107.901C185.877 108.277 186.253 108.465 186.722 108.465C187.568 108.465 187.99 107.995 187.99 107.056V97.0563C187.99 96.1174 187.568 95.6479 186.722 95.6479C186.253 95.6479 185.877 95.8357 185.596 96.2113V107.901Z" fill="#C40000"/>
<path d="M209.475 93.2535C213.513 93.2535 216.26 94.4507 217.715 96.8451C219.077 95.3427 220.603 94.2394 222.293 93.5352C223.983 92.784 225.932 92.4085 228.139 92.4085C231.566 92.4085 234.383 93.3474 236.59 95.2254C238.797 97.1033 239.9 99.4977 239.9 102.408C239.9 104.85 239.008 106.845 237.224 108.394C235.44 109.897 233.139 110.648 230.322 110.648C227.552 110.648 225.274 109.944 223.49 108.535C221.753 107.127 220.884 105.343 220.884 103.183C220.884 101.352 221.518 99.8498 222.786 98.6761C224.054 97.5023 225.674 96.9155 227.646 96.9155C227.786 96.6808 227.857 96.446 227.857 96.2113C227.857 95.554 227.364 95.2254 226.378 95.2254C224.312 95.2254 222.528 96.0235 221.025 97.6197C219.523 99.169 218.771 101.047 218.771 103.254C218.771 105.131 219.288 106.798 220.321 108.254C221.401 109.662 222.927 110.789 224.899 111.634C225.556 111.915 225.979 112.244 226.167 112.62C226.401 112.948 226.519 113.535 226.519 114.38V126.775C226.519 128.277 225.72 129.028 224.124 129.028H209.827C208.371 129.028 207.644 128.277 207.644 126.775V101.915C207.644 100.272 207.409 99.0282 206.939 98.1831C206.47 97.2911 205.601 96.4695 204.334 95.7183C204.005 95.5305 203.817 95.3897 203.77 95.2958C203.676 95.1549 203.629 94.9906 203.629 94.8028V93.9577C203.629 93.4883 203.911 93.2535 204.474 93.2535H209.475Z" fill="#C40000"/>
<path d="M241.538 99.3803C241.256 98.5822 240.857 97.9249 240.34 97.4085C239.871 96.892 239.143 96.3286 238.157 95.7183C237.688 95.4366 237.453 95.1315 237.453 94.8028V93.9577C237.453 93.4883 237.734 93.2535 238.298 93.2535H249.285C252.478 93.2535 254.825 93.5117 256.328 94.0282C257.877 94.4977 259.074 95.3427 259.92 96.5634C260.812 97.784 261.657 99.5915 262.455 101.986L269.216 122.408C269.451 122.643 269.733 122.761 270.061 122.761C270.766 122.761 271.118 122.362 271.118 121.563C271.118 121.141 270.93 120.366 270.554 119.239L264.216 99.8732C263.887 98.8404 263.605 98.0657 263.371 97.5493C263.136 97.0329 262.878 96.5869 262.596 96.2113C262.173 95.6948 261.892 95.3662 261.751 95.2254C261.657 95.0376 261.61 94.8263 261.61 94.5916V93.9577C261.61 93.4883 261.892 93.2535 262.455 93.2535H282.386C284.077 93.2535 284.922 93.8639 284.922 95.0845C284.922 97.1502 281.823 105.953 275.625 121.493C274.592 124.075 273.747 125.836 273.09 126.775C272.479 127.667 271.775 128.277 270.977 128.606C270.226 128.887 269.075 129.028 267.526 129.028H256.962C255.318 129.028 254.074 128.77 253.229 128.254C252.384 127.69 251.703 126.704 251.186 125.296L241.538 99.3803Z" fill="#C40000"/>
<path d="M301.556 114.662C301.275 114.286 300.899 114.099 300.429 114.099C299.631 114.099 299.232 114.568 299.232 115.507V120.014C299.232 120.953 299.631 121.423 300.429 121.423C300.899 121.423 301.275 121.235 301.556 120.859V114.662ZM312.895 129.873C308.153 129.873 304.773 127.925 302.754 124.028C301.674 126.047 300.336 127.526 298.739 128.465C297.19 129.404 295.265 129.873 292.964 129.873C289.724 129.873 287.118 129.075 285.146 127.479C283.174 125.883 282.188 123.77 282.188 121.141C282.188 118.84 282.987 117.033 284.583 115.718C286.226 114.357 288.738 113.441 292.119 112.972C300.758 111.845 305.078 108.582 305.078 103.183C305.078 101.023 304.326 99.169 302.824 97.6197C301.322 96.0235 299.537 95.2254 297.471 95.2254C296.485 95.2254 295.992 95.554 295.992 96.2113C295.992 96.446 296.063 96.6808 296.204 96.9155C298.176 96.9155 299.796 97.5023 301.063 98.6761C302.331 99.8498 302.965 101.352 302.965 103.183C302.965 105.343 302.049 107.127 300.218 108.535C298.434 109.944 296.133 110.648 293.316 110.648C290.452 110.648 288.175 109.944 286.484 108.535C284.794 107.08 283.949 105.178 283.949 102.831C283.949 99.6854 285.475 97.1737 288.527 95.2958C291.579 93.3709 295.617 92.4085 300.641 92.4085C306.651 92.4085 311.205 93.8638 314.304 96.7746C317.45 99.6854 319.023 103.958 319.023 109.592V118.394C319.023 119.192 319.093 119.732 319.234 120.014C319.375 120.296 319.61 120.437 319.938 120.437C320.361 120.437 320.666 120.249 320.854 119.873C321.042 119.498 321.206 118.77 321.347 117.69C321.441 116.892 321.535 116.423 321.629 116.282C321.722 116.094 321.91 116 322.192 116H323.389C323.671 116 323.859 116.164 323.953 116.493C324.094 116.822 324.164 117.362 324.164 118.113C324.164 121.869 323.178 124.779 321.206 126.845C319.281 128.864 316.511 129.873 312.895 129.873Z" fill="#C40000"/>
<path d="M330.596 85.6479C330.784 84.7559 331.066 84.169 331.441 83.8873C331.864 83.5587 332.474 83.3944 333.272 83.3944H340.949C341.841 83.3944 342.452 83.5822 342.78 83.9577C343.156 84.2864 343.344 84.8498 343.344 85.6479V93.2535H350.316C350.88 93.2535 351.161 93.4883 351.161 93.9577V95.2254C351.161 95.6948 350.88 95.9296 350.316 95.9296H343.344V118.042C343.344 118.981 343.461 119.615 343.696 119.944C343.978 120.272 344.471 120.437 345.175 120.437C345.738 120.437 346.137 120.249 346.372 119.873C346.654 119.498 346.889 118.77 347.076 117.69C347.17 116.939 347.264 116.469 347.358 116.282C347.499 116.094 347.71 116 347.992 116H349.119C349.401 116 349.588 116.164 349.682 116.493C349.823 116.822 349.894 117.385 349.894 118.183C349.894 121.939 348.861 124.826 346.795 126.845C344.729 128.864 341.794 129.873 337.991 129.873C334.047 129.873 330.972 128.793 328.765 126.634C326.605 124.474 325.525 121.446 325.525 117.549V95.9296H321.37C320.806 95.9296 320.525 95.6948 320.525 95.2254V93.9577C320.525 93.4883 320.806 93.2535 321.37 93.2535H321.652C323.858 93.2535 325.478 93.0423 326.511 92.6197C327.544 92.1972 328.342 91.4695 328.906 90.4366C329.516 89.4038 330.08 87.8075 330.596 85.6479Z" fill="#C40000"/>
<path d="M369.166 126.634C370.012 126.634 370.434 126 370.434 124.732V97.5493C370.434 96.2817 370.012 95.6479 369.166 95.6479C368.321 95.6479 367.899 96.2817 367.899 97.5493V124.732C367.899 126 368.321 126.634 369.166 126.634ZM369.166 129.873C362.546 129.873 357.499 128.277 354.024 125.085C350.597 121.892 348.883 117.244 348.883 111.141C348.883 105.038 350.597 100.39 354.024 97.1972C357.499 94.0047 362.546 92.4085 369.166 92.4085C375.787 92.4085 380.811 94.0047 384.238 97.1972C387.713 100.39 389.45 105.038 389.45 111.141C389.45 117.244 387.713 121.892 384.238 125.085C380.811 128.277 375.787 129.873 369.166 129.873Z" fill="#C40000"/>
<path d="M393.553 93.2535C397.591 93.2535 400.338 94.4507 401.793 96.8451C403.155 95.3427 404.681 94.2394 406.371 93.5352C408.061 92.784 410.01 92.4085 412.217 92.4085C415.644 92.4085 418.461 93.3474 420.668 95.2254C422.875 97.1033 423.978 99.4977 423.978 102.408C423.978 104.85 423.086 106.845 421.302 108.394C419.518 109.897 417.217 110.648 414.4 110.648C411.63 110.648 409.353 109.944 407.568 108.535C405.831 107.127 404.962 105.343 404.962 103.183C404.962 101.352 405.596 99.8498 406.864 98.6761C408.132 97.5023 409.752 96.9155 411.724 96.9155C411.865 96.6808 411.935 96.446 411.935 96.2113C411.935 95.554 411.442 95.2254 410.456 95.2254C408.39 95.2254 406.606 96.0235 405.103 97.6197C403.601 99.169 402.85 101.047 402.85 103.254C402.85 105.131 403.366 106.798 404.399 108.254C405.479 109.662 407.005 110.789 408.977 111.634C409.634 111.915 410.057 112.244 410.245 112.62C410.479 112.948 410.597 113.535 410.597 114.38V126.775C410.597 128.277 409.799 129.028 408.202 129.028H393.905C392.45 129.028 391.722 128.277 391.722 126.775V101.915C391.722 100.272 391.487 99.0282 391.018 98.1831C390.548 97.2911 389.679 96.4695 388.412 95.7183C388.083 95.5305 387.895 95.3897 387.848 95.2958C387.754 95.1549 387.707 94.9906 387.707 94.8028V93.9577C387.707 93.4883 387.989 93.2535 388.553 93.2535H393.553Z" fill="#C40000"/>
<path d="M425.616 99.3803C425.334 98.5822 424.935 97.9249 424.418 97.4085C423.949 96.892 423.221 96.3286 422.235 95.7183C421.766 95.4366 421.531 95.1315 421.531 94.8028V93.9577C421.531 93.4883 421.813 93.2535 422.376 93.2535H433.363C436.556 93.2535 438.903 93.5117 440.406 94.0282C441.955 94.4977 443.153 95.3427 443.998 96.5634C444.89 97.784 445.735 99.5915 446.533 101.986L453.294 122.408C453.529 122.643 453.811 122.761 454.139 122.761C454.844 122.761 455.196 122.362 455.196 121.563C455.196 121.094 455.008 120.319 454.632 119.239L448.294 99.8732C447.684 97.9953 447.144 96.7746 446.674 96.2113C446.251 95.6948 445.97 95.3662 445.829 95.2254C445.735 95.0376 445.688 94.8263 445.688 94.5916V93.9577C445.688 93.4883 445.97 93.2535 446.533 93.2535H466.465C468.155 93.2535 469 93.8639 469 95.0845C469 96.2113 467.803 100.061 465.408 106.634C463.014 113.207 459.75 121.563 455.618 131.704C454.116 135.413 452.637 138.277 451.181 140.296C449.726 142.361 448.106 143.817 446.322 144.662C444.585 145.554 442.519 146 440.124 146C436.65 146 433.832 145.225 431.673 143.676C429.56 142.127 428.503 140.085 428.503 137.549C428.503 135.343 429.372 133.559 431.109 132.197C432.846 130.836 435.1 130.155 437.87 130.155C440.453 130.155 442.566 130.765 444.209 131.986C445.852 133.254 446.674 134.873 446.674 136.845C446.674 138.347 446.158 139.498 445.125 140.296C444.139 141.141 442.73 141.563 440.899 141.563C440.805 141.751 440.758 141.962 440.758 142.197C440.758 142.854 441.298 143.183 442.378 143.183C444.209 143.183 445.735 142.549 446.956 141.282C448.176 140.061 448.787 138.512 448.787 136.634C448.787 134.427 448.012 132.596 446.463 131.141C444.913 129.732 442.66 128.77 439.702 128.254C438.011 127.972 436.908 127.596 436.391 127.127C435.875 126.657 435.335 125.624 434.772 124.028L425.616 99.3803Z" fill="#C40000"/>
</svg>
