<svg width="316" height="193" viewBox="0 0 316 193" fill="none" xmlns="http://www.w3.org/2000/svg">
<path d="M38.1219 41.1382H39.6468C41.6017 41.1382 42.5792 40.1806 42.5792 38.2654V14.5937C42.5792 13.751 42.3837 13.0616 41.9927 12.5253C41.6017 11.9891 41.0544 11.7209 40.3506 11.7209C39.334 11.7209 38.5911 12.0274 38.1219 12.6402V41.1382ZM38.1219 46.3092V78.5992C38.1219 80.0547 37.8091 81.0889 37.1835 81.7018C36.6361 82.3146 35.6586 82.6211 34.2511 82.6211H10.5568C9.14926 82.6211 8.13267 82.3146 7.50708 81.7018C6.95969 81.0889 6.686 80.0547 6.686 78.5992V19.1901C6.686 16.7387 6.3341 14.9384 5.63031 13.7893C4.92652 12.6402 3.44075 11.4528 1.17298 10.2271C0.62559 9.92066 0.273696 9.69084 0.117298 9.53762C0.0390993 9.3078 0 9.03967 0 8.73324V7.35431C0 6.58824 0.469193 6.2052 1.40758 6.2052H45.1598C55.4038 6.2052 62.95 7.81396 67.7983 11.0315C72.7249 14.249 75.1881 19.1902 75.1881 25.855C75.1881 30.0684 73.5069 33.8605 70.1443 37.2312C66.7818 40.6019 62.5981 42.6703 57.5934 43.4364C70.1052 44.0493 76.3611 50.3694 76.3611 62.3967V69.6361C76.3611 72.0876 76.713 73.8878 77.4168 75.0369C78.1206 76.1861 79.6064 77.3735 81.8741 78.5992C82.4215 78.9056 82.7343 79.1737 82.8125 79.4036C82.9689 79.5568 83.0471 79.7866 83.0471 80.093V81.472C83.0471 82.238 82.5779 82.6211 81.6395 82.6211H46.4501C45.0425 82.6211 44.0259 82.3146 43.4003 81.7018C42.8529 81.0889 42.5792 80.0547 42.5792 78.5992V49.1819C42.5792 47.2668 41.6017 46.3092 39.6468 46.3092H38.1219Z" fill="#FCCA1A"/>
<path d="M109.999 78.7141C111.407 78.7141 112.111 77.6799 112.111 75.6115V31.2558C112.111 29.1874 111.407 28.1532 109.999 28.1532C108.592 28.1532 107.888 29.1874 107.888 31.2558V75.6115C107.888 77.6799 108.592 78.7141 109.999 78.7141ZM109.999 84C98.9734 84 90.567 81.3953 84.7803 76.186C79.0718 70.9767 76.2175 63.3926 76.2175 53.4337C76.2175 43.4747 79.0718 35.8906 84.7803 30.6813C90.567 25.472 98.9734 22.8673 109.999 22.8673C121.025 22.8673 129.393 25.472 135.101 30.6813C140.888 35.8906 143.781 43.4747 143.781 53.4337C143.781 63.3926 140.888 70.9767 135.101 76.186C129.393 81.3953 121.025 84 109.999 84Z" fill="#FCCA1A"/>
<path d="M145.017 14.1341C145.017 11.4528 144.626 9.42271 143.844 8.04378C143.062 6.58824 141.615 5.24761 139.504 4.02189C138.956 3.71546 138.644 3.48564 138.565 3.33242C138.409 3.1026 138.331 2.83447 138.331 2.52804V1.14911C138.331 0.383037 138.8 0 139.738 0H170.119C171.604 0 172.621 0.30643 173.168 0.91929C173.794 1.45554 174.107 2.37483 174.107 3.67715V27.6936C177.391 24.4761 181.888 22.8673 187.596 22.8673C194.556 22.8673 200.03 25.472 204.018 30.6813C208.006 35.814 210 42.9001 210 51.9398C210 62.2052 207.263 70.1341 201.789 75.7264C196.393 81.2421 188.652 84 178.564 84C173.09 84 168.476 83.2722 164.723 81.8167C161.048 80.2845 157.49 77.7565 154.049 74.2326C153.423 74.2326 152.915 74.6922 152.524 75.6115C152.211 76.4542 151.703 78.3311 150.999 81.2421C150.921 81.7784 150.764 82.1614 150.53 82.3912C150.295 82.5445 149.904 82.6211 149.357 82.6211H146.424C145.877 82.6211 145.486 82.5062 145.251 82.2763C145.095 81.9699 145.017 81.472 145.017 80.7825V14.1341ZM178.33 35.7373C178.33 33.8988 177.587 32.9795 176.101 32.9795C175.241 32.9795 174.576 33.2859 174.107 33.8988V77.6799C174.576 78.2928 175.241 78.5992 176.101 78.5992C177.587 78.5992 178.33 77.6799 178.33 75.8413V35.7373Z" fill="#FCCA1A"/>
<path d="M42.8995 158.907C43.3536 159.519 44.0727 159.826 45.0567 159.826C45.7379 159.826 46.2677 159.558 46.6462 159.022C47.0246 158.486 47.2139 157.798 47.2139 156.956V97.3797C47.2139 96.5379 47.0246 95.8492 46.6462 95.3135C46.2677 94.7778 45.7379 94.5099 45.0567 94.5099C44.0727 94.5099 43.3536 94.816 42.8995 95.4283V158.907ZM47.4409 89C58.6432 89 67.3477 92.3672 73.5544 99.1015C79.8368 105.759 82.978 115.057 82.978 126.996C82.978 134.495 81.5398 141.153 78.6636 146.969C75.7873 152.709 71.6243 157.224 66.1745 160.514C60.8004 163.728 54.5181 165.336 47.3274 165.336H16.2183C14.8559 165.336 13.8719 165.029 13.2664 164.417C12.7365 163.805 12.4716 162.772 12.4716 161.318V101.971C12.4716 99.5224 12.1688 97.8006 11.5633 96.8057C10.9578 95.7344 9.29257 94.3186 6.56768 92.5585C6.18923 92.3289 6 91.9845 6 91.5254V90.1479C6 89.3826 6.45415 89 7.36244 89H47.4409Z" fill="#FCCA1A"/>
<path d="M110.881 141.918C110.427 141.306 109.822 141 109.065 141C107.778 141 107.135 141.765 107.135 143.296V150.642C107.135 152.173 107.778 152.938 109.065 152.938C109.822 152.938 110.427 152.632 110.881 152.02V141.918ZM129.161 166.713C121.516 166.713 116.066 163.537 112.811 157.185C111.071 160.476 108.913 162.887 106.34 164.417C103.842 165.948 100.739 166.713 97.0298 166.713C91.8071 166.713 87.6063 165.412 84.4272 162.81C81.2482 160.208 79.6587 156.765 79.6587 152.479C79.6587 148.729 80.9454 145.783 83.5189 143.64C86.1681 141.421 90.2176 139.929 95.6674 139.163C109.595 137.327 116.558 132.008 116.558 123.208C116.558 119.687 115.347 116.664 112.925 114.139C110.503 111.537 107.627 110.236 104.296 110.236C102.707 110.236 101.912 110.772 101.912 111.843C101.912 112.226 102.025 112.609 102.253 112.991C105.432 112.991 108.043 113.948 110.087 115.861C112.13 117.774 113.152 120.223 113.152 123.208C113.152 126.728 111.676 129.636 108.724 131.932C105.848 134.227 102.139 135.375 97.5975 135.375C92.9803 135.375 89.3093 134.227 86.5844 131.932C83.8595 129.559 82.4971 126.46 82.4971 122.634C82.4971 117.506 84.9571 113.412 89.877 110.351C94.7969 107.213 101.306 105.645 109.405 105.645C119.094 105.645 126.436 108.017 131.431 112.762C136.503 117.506 139.038 124.47 139.038 133.653V148.002C139.038 149.303 139.152 150.183 139.379 150.642C139.606 151.102 139.985 151.331 140.514 151.331C141.196 151.331 141.688 151.025 141.99 150.413C142.293 149.801 142.558 148.614 142.785 146.854C142.937 145.553 143.088 144.788 143.239 144.559C143.391 144.252 145.693 144.099 144.148 144.099H146.078C146.532 144.099 146.835 144.367 146.986 144.903C147.213 145.439 147.327 146.319 147.327 147.543C147.327 153.665 145.737 158.41 142.558 161.777C139.455 165.068 134.989 166.713 129.161 166.713Z" fill="#FCCA1A"/>
<path d="M170.801 107.022C172.239 107.022 173.223 107.328 173.753 107.94C174.359 108.476 174.661 109.394 174.661 110.695V148.002C174.661 149.303 174.775 150.183 175.002 150.642C175.229 151.102 175.608 151.331 176.137 151.331C176.819 151.331 177.273 151.063 177.5 150.528C177.803 149.992 178.105 148.767 178.408 146.854C178.559 145.553 178.711 144.788 178.862 144.559C179.014 144.252 179.316 144.099 179.771 144.099H181.701C182.155 144.099 182.458 144.367 182.609 144.903C182.836 145.439 182.95 146.357 182.95 147.658C182.95 153.78 181.322 158.486 178.067 161.777C174.813 165.068 170.158 166.713 164.102 166.713C158.274 166.713 153.771 165.068 150.592 161.777C147.488 158.41 145.937 153.627 145.937 147.428V121.141C145.937 118.463 145.558 116.435 144.801 115.057C144.044 113.603 142.644 112.264 140.6 111.04C140.07 110.734 139.768 110.504 139.692 110.351C139.541 110.121 139.465 109.854 139.465 109.547V108.17C139.465 107.405 139.919 107.022 140.827 107.022H170.801Z" fill="#FCCA1A"/>
<path d="M207.504 152.135C207.504 154.124 206.822 155.808 205.46 157.185C204.097 158.486 202.243 159.213 199.897 159.366C199.594 159.826 199.442 160.246 199.442 160.629C199.442 161.624 200.124 162.121 201.486 162.121C203.908 162.121 206.065 161.088 207.958 159.022C209.926 156.879 210.91 154.43 210.91 151.675C210.91 148.538 209.85 146.089 207.731 144.329C205.611 142.492 201.94 140.962 196.718 139.737C186.802 137.441 181.844 132.544 181.844 125.044C181.844 119.075 184.683 114.369 190.359 110.925C196.112 107.405 203.87 105.645 213.635 105.645C221.658 105.645 227.902 106.907 232.368 109.433C236.834 111.882 239.067 115.325 239.067 119.764C239.067 122.825 237.894 125.274 235.547 127.11C233.201 128.87 229.946 129.751 225.783 129.751C221.696 129.751 218.365 128.87 215.792 127.11C213.218 125.35 211.931 123.054 211.931 120.223C211.931 118.233 212.613 116.588 213.975 115.287C215.338 113.909 217.192 113.144 219.538 112.991C219.841 112.532 219.993 112.111 219.993 111.728C219.993 110.734 219.311 110.236 217.949 110.236C215.527 110.236 213.332 111.308 211.364 113.45C209.472 115.517 208.525 117.927 208.525 120.682C208.525 123.82 209.661 126.307 211.931 128.143C214.278 129.98 218.138 131.472 223.512 132.62C229.87 133.921 234.412 135.758 237.137 138.13C239.862 140.426 241.224 143.717 241.224 148.002C241.224 154.048 238.537 158.678 233.163 161.892C227.864 165.106 220.22 166.713 210.228 166.713C201.145 166.713 193.879 165.412 188.429 162.81C183.055 160.208 180.368 156.765 180.368 152.479C180.368 149.418 181.541 147.007 183.888 145.247C186.31 143.487 189.565 142.607 193.652 142.607C197.739 142.607 201.07 143.487 203.643 145.247C206.217 147.007 207.504 149.303 207.504 152.135Z" fill="#FCCA1A"/>
<path d="M239.061 117.009C238.607 115.708 237.964 114.636 237.131 113.795C236.374 112.953 235.201 112.035 233.612 111.04C232.855 110.581 232.476 110.083 232.476 109.547V108.17C232.476 107.405 232.93 107.022 233.839 107.022H251.55C256.697 107.022 260.482 107.443 262.904 108.285C265.402 109.05 267.332 110.428 268.694 112.417C270.133 114.407 271.495 117.353 272.782 121.256L283.681 154.545C284.06 154.928 284.514 155.119 285.044 155.119C286.179 155.119 286.747 154.469 286.747 153.168C286.747 152.402 286.444 151.14 285.839 149.38L275.62 117.812C274.636 114.751 273.766 112.762 273.009 111.843C272.328 111.001 271.874 110.466 271.646 110.236C271.495 109.93 271.419 109.586 271.419 109.203V108.17C271.419 107.405 271.873 107.022 272.782 107.022H304.913C307.638 107.022 309 108.017 309 110.007C309 111.843 307.07 118.118 303.21 128.832C299.349 139.546 294.089 153.168 287.428 169.698C285.006 175.743 282.622 180.411 280.275 183.702C277.929 187.069 275.317 189.441 272.441 190.819C269.641 192.273 266.31 193 262.45 193C256.849 193 252.307 191.737 248.826 189.212C245.419 186.687 243.716 183.358 243.716 179.225C243.716 175.628 245.117 172.72 247.917 170.501C250.718 168.282 254.351 167.172 258.817 167.172C262.98 167.172 266.386 168.167 269.035 170.157C271.684 172.223 273.009 174.863 273.009 178.077C273.009 180.526 272.176 182.401 270.511 183.702C268.922 185.079 266.651 185.768 263.699 185.768C263.547 186.074 263.472 186.419 263.472 186.801C263.472 187.873 264.342 188.408 266.083 188.408C269.035 188.408 271.495 187.375 273.463 185.309C275.431 183.319 276.415 180.794 276.415 177.733C276.415 174.136 275.166 171.152 272.668 168.779C270.17 166.483 266.537 164.915 261.769 164.073C259.044 163.614 257.265 163.001 256.432 162.236C255.6 161.471 254.729 159.787 253.821 157.185L239.061 117.009Z" fill="#FCCA1A"/>
<path d="M309.03 66.8396C309.887 66.3704 310.707 65.8384 311.482 65.2482C311.93 64.8509 312.496 64.6055 313.095 64.5479H314.709C315.563 64.5479 315.999 65.2323 315.999 66.585C316.035 71.1699 315.067 75.7084 313.16 79.8898C311.377 83.8614 308.602 87.322 305.094 89.948C301.879 92.456 297.902 93.8238 293.803 93.8312C287.006 93.8312 280.511 90.5209 274.316 83.9003C271.841 87.7863 268.278 90.8818 264.057 92.8126C259.357 94.9901 254.215 96.0788 249.023 95.9956C243.324 96.0518 237.7 94.7179 232.65 92.1124C227.703 89.5709 223.536 85.768 220.584 81.0993C217.517 76.3015 215.925 70.7291 216.003 65.0572C215.937 59.4879 217.778 54.0597 221.229 49.6517C224.718 45.1598 229.583 41.8999 235.102 40.3574C232.49 38.8823 230.276 36.8079 228.649 34.3098C227.112 31.9346 226.305 29.1706 226.327 26.3524C226.272 23.4927 226.991 20.6704 228.408 18.1754C229.826 15.6805 231.891 13.6029 234.392 12.1564C239.769 8.71881 247.189 7 256.653 7C266.116 7 273.537 8.71881 278.914 12.1564C281.415 13.6029 283.48 15.6805 284.898 18.1754C286.315 20.6704 287.034 23.4927 286.979 26.3524C286.984 28.4544 286.537 30.5335 285.67 32.4535C284.803 34.3734 283.534 36.0907 281.946 37.4928C278.205 40.8262 273.524 42.9577 268.525 43.604L277.946 53.9168C278.303 50.857 279.41 47.9291 281.172 45.3865C282.942 42.9281 285.318 40.9561 288.076 39.6572C291.104 38.2613 294.414 37.5646 297.755 37.6201C302.1 37.4406 306.363 38.8201 309.756 41.5033C311.172 42.7241 312.316 44.2214 313.115 45.9006C313.915 47.5797 314.353 49.4042 314.401 51.2588C314.45 53.1133 314.108 54.9577 313.397 56.6753C312.687 58.3928 311.623 59.9464 310.272 61.2376C307.332 63.814 303.491 65.1609 299.562 64.9935C296.439 65.1097 293.39 64.0387 291.044 62.0015C289.956 61.0589 289.091 59.8916 288.512 58.5825C287.932 57.2733 287.651 55.8543 287.689 54.4261C287.64 53.1507 287.894 51.8816 288.432 50.7207C288.97 49.5599 289.776 48.5396 290.786 47.7419C293.209 45.9737 296.162 45.055 299.174 45.1319C299.35 44.9602 299.463 44.7366 299.497 44.4953C299.517 44.2835 299.517 44.0704 299.497 43.8587C299.497 42.681 298.465 42.0762 296.4 42.0762C294.689 42.0473 292.99 42.3595 291.405 42.9939C289.819 43.6283 288.38 44.572 287.173 45.7685C285.959 46.8951 284.995 48.257 284.34 49.7687C283.685 51.2805 283.353 52.9094 283.366 54.5534C283.339 56.5108 283.74 58.4508 284.542 60.2414C285.344 62.032 286.527 63.6311 288.012 64.9299C291.058 67.7656 295.117 69.2987 299.303 69.195C302.694 69.222 306.038 68.4123 309.03 66.8396ZM263.993 80.0808C264.269 80.3888 264.606 80.638 264.983 80.8132C265.36 80.9883 265.77 81.0857 266.186 81.0993C266.492 81.1119 266.796 81.0553 267.075 80.9339C267.355 80.8125 267.603 80.6296 267.799 80.3991C268.235 79.9318 268.466 79.3145 268.445 78.6803L238.506 45.9594C236.699 45.9594 235.796 46.6438 235.796 47.9965C235.875 48.9518 236.285 49.851 236.957 50.5429L263.993 80.0808ZM256.637 38.575C258.185 38.575 258.96 37.4291 258.96 35.1374V16.9308C258.96 14.6391 258.185 13.4932 256.637 13.4932C255.088 13.4932 254.314 14.6391 254.314 16.9308V35.1374C254.314 37.4291 255.088 38.575 256.637 38.575Z" fill="white"/>
<path d="M148.378 87.6041C146.126 89.3401 145 91.6548 145 94.5482C145 97.4416 146.126 99.7563 148.378 101.492C150.631 103.164 153.655 104 157.452 104C161.248 104 164.273 103.132 166.525 101.396C168.842 99.6599 170 97.3773 170 94.5482C170 91.6548 168.842 89.3401 166.525 87.6041C164.273 85.868 161.248 85 157.452 85C153.655 85 150.631 85.868 148.378 87.6041Z" fill="#FCCA1A"/>
</svg>
