<svg width="446" height="161" viewBox="0 0 446 161" fill="none" xmlns="http://www.w3.org/2000/svg">
<path d="M33 38.9001H34.3C35.9667 38.9001 36.8 38.0667 36.8 36.4001V15.8001C36.8 15.0667 36.6333 14.4667 36.3 14.0001C35.9667 13.5334 35.5 13.3 34.9 13.3C34.0333 13.3 33.4 13.5667 33 14.1001V38.9001ZM33 43.4001V71.5001C33 72.7667 32.7333 73.6667 32.2 74.2001C31.7333 74.7334 30.9 75.0001 29.7 75.0001H9.5C8.3 75.0001 7.43333 74.7334 6.9 74.2001C6.43333 73.6667 6.2 72.7667 6.2 71.5001V19.8C6.2 17.6667 5.9 16.1 5.3 15.1C4.7 14.1 3.43333 13.0667 1.5 12C1.03333 11.7334 0.733333 11.5334 0.6 11.4001C0.533333 11.2 0.5 10.9667 0.5 10.7001V9.50005C0.5 8.83338 0.9 8.50005 1.7 8.50005H39C47.7333 8.50005 54.1667 9.90005 58.3 12.7001C62.5 15.5 64.6 19.8001 64.6 25.6001C64.6 29.2667 63.1667 32.5667 60.3 35.5001C57.4333 38.4334 53.8667 40.2334 49.6 40.9001C60.2667 41.4334 65.6 46.9334 65.6 57.4001V63.7001C65.6 65.8334 65.9 67.4001 66.5 68.4001C67.1 69.4001 68.3667 70.4334 70.3 71.5001C70.7667 71.7667 71.0333 72.0001 71.1 72.2001C71.2333 72.3334 71.3 72.5334 71.3 72.8001V74.0001C71.3 74.6667 70.9 75.0001 70.1 75.0001H40.1C38.9 75.0001 38.0333 74.7334 37.5 74.2001C37.0333 73.6667 36.8 72.7667 36.8 71.5001V45.9001C36.8 44.2334 35.9667 43.4001 34.3 43.4001H33Z" fill="#FB3F3F"/>
<path d="M92.0266 24.2001C93.2932 24.2001 94.1599 24.4667 94.6266 25.0001C95.1599 25.4667 95.4266 26.2667 95.4266 27.4001V61.8001C95.4266 62.5334 95.5932 63.1334 95.9266 63.6001C96.2599 64.0667 96.7266 64.3 97.3266 64.3C98.1266 64.3 98.6932 64.0334 99.0266 63.5001V27.4001C99.0266 26.2667 99.2599 25.4667 99.7266 25.0001C100.26 24.4667 101.16 24.2001 102.427 24.2001H120.427C121.627 24.2001 122.493 24.4667 123.027 25.0001C123.56 25.4667 123.827 26.2667 123.827 27.4001V59.9001C123.827 61.0334 123.927 61.8 124.127 62.2001C124.327 62.6001 124.66 62.8 125.127 62.8C125.727 62.8 126.16 62.5334 126.427 62.0001C126.693 61.4667 126.927 60.4334 127.127 58.9001C127.26 57.7667 127.393 57.1001 127.527 56.9001C127.66 56.6334 127.927 56.5001 128.327 56.5001H130.027C130.427 56.5001 130.693 56.7334 130.827 57.2001C131.027 57.6667 131.127 58.4334 131.127 59.5001C131.127 64.7001 129.693 68.8001 126.827 71.8001C123.96 74.7334 119.993 76.2001 114.927 76.2001C111.793 76.2001 108.96 75.4667 106.427 74.0001C103.893 72.5334 101.96 70.4667 100.627 67.8001C99.1599 70.4667 97.0932 72.5334 94.4266 74.0001C91.7599 75.4667 88.7599 76.2001 85.4266 76.2001C80.6266 76.2001 76.9599 74.7667 74.4266 71.9001C71.8932 69.0334 70.6266 64.9667 70.6266 59.7001V36.5C70.6266 34.1667 70.2932 32.4001 69.6266 31.2001C68.9599 29.9334 67.7266 28.7667 65.9266 27.7001C65.4599 27.4334 65.1932 27.2334 65.1266 27.1001C64.9932 26.9001 64.9266 26.6667 64.9266 26.4001V25.2001C64.9266 24.5334 65.3266 24.2001 66.1266 24.2001H92.0266Z" fill="#FB3F3F"/>
<path d="M143.975 24.2001C147.242 24.2001 149.842 24.8001 151.775 26.0001C153.775 27.1334 155.142 28.9334 155.875 31.4001C157.408 28.6667 159.475 26.6 162.075 25.2001C164.742 23.7334 167.742 23 171.075 23C175.875 23 179.542 24.4334 182.075 27.3C184.608 30.1667 185.875 34.2334 185.875 39.5001V71.8001C185.875 72.9334 185.608 73.7667 185.075 74.3001C184.608 74.7667 183.742 75.0001 182.475 75.0001H164.475C163.208 75.0001 162.308 74.7667 161.775 74.3001C161.308 73.7667 161.075 72.9334 161.075 71.8001V37.4001C161.075 36.6667 160.908 36.0667 160.575 35.6001C160.242 35.1334 159.775 34.9001 159.175 34.9001C158.375 34.9001 157.808 35.1667 157.475 35.7001V71.8001C157.475 72.9334 157.208 73.7667 156.675 74.3001C156.208 74.7667 155.342 75.0001 154.075 75.0001H136.075C134.808 75.0001 133.908 74.7667 133.375 74.3001C132.908 73.7667 132.675 72.9334 132.675 71.8001V36.5C132.675 34.1667 132.342 32.4001 131.675 31.2001C131.008 29.9334 129.775 28.7667 127.975 27.7001C127.508 27.4334 127.242 27.2334 127.175 27.1001C127.042 26.9001 126.975 26.6667 126.975 26.4001V25.2001C126.975 24.5334 127.375 24.2001 128.175 24.2001H143.975Z" fill="#FB3F3F"/>
<path d="M202.401 24.2001C205.667 24.2001 208.267 24.8001 210.201 26.0001C212.201 27.1334 213.567 28.9334 214.301 31.4001C215.834 28.6667 217.901 26.6 220.501 25.2001C223.167 23.7334 226.167 23 229.501 23C234.301 23 237.967 24.4334 240.501 27.3C243.034 30.1667 244.301 34.2334 244.301 39.5001V71.8001C244.301 72.9334 244.034 73.7667 243.501 74.3001C243.034 74.7667 242.167 75.0001 240.901 75.0001H222.901C221.634 75.0001 220.734 74.7667 220.201 74.3001C219.734 73.7667 219.501 72.9334 219.501 71.8001V37.4001C219.501 36.6667 219.334 36.0667 219.001 35.6001C218.667 35.1334 218.201 34.9001 217.601 34.9001C216.801 34.9001 216.234 35.1667 215.901 35.7001V71.8001C215.901 72.9334 215.634 73.7667 215.101 74.3001C214.634 74.7667 213.767 75.0001 212.501 75.0001H194.501C193.234 75.0001 192.334 74.7667 191.801 74.3001C191.334 73.7667 191.101 72.9334 191.101 71.8001V36.5C191.101 34.1667 190.767 32.4001 190.101 31.2001C189.434 29.9334 188.201 28.7667 186.401 27.7001C185.934 27.4334 185.667 27.2334 185.601 27.1001C185.467 26.9001 185.401 26.6667 185.401 26.4001V25.2001C185.401 24.5334 185.801 24.2001 186.601 24.2001H202.401Z" fill="#FB3F3F"/>
<path d="M248.027 10.2001C248.027 7.20005 249.193 4.80005 251.527 3.00005C253.86 1.20005 256.993 0.300049 260.927 0.300049C264.86 0.300049 267.993 1.20005 270.327 3.00005C272.727 4.80005 273.927 7.20005 273.927 10.2001C273.927 13.1334 272.727 15.5001 270.327 17.3001C267.993 19.1001 264.86 20.0001 260.927 20.0001C256.993 20.0001 253.86 19.1334 251.527 17.4001C249.193 15.6 248.027 13.2001 248.027 10.2001ZM271.027 24.2001C272.293 24.2001 273.16 24.4667 273.627 25.0001C274.16 25.4667 274.427 26.2667 274.427 27.4001V59.9001C274.427 61.0334 274.527 61.8 274.727 62.2001C274.927 62.6001 275.26 62.8 275.727 62.8C276.327 62.8 276.727 62.5667 276.927 62.1001C277.193 61.6334 277.46 60.5667 277.727 58.9001C277.86 57.7667 277.993 57.1001 278.127 56.9001C278.26 56.6334 278.527 56.5001 278.927 56.5001H280.627C281.027 56.5001 281.293 56.7334 281.427 57.2001C281.627 57.6667 281.727 58.4667 281.727 59.6001C281.727 64.9334 280.293 69.0334 277.427 71.9001C274.56 74.7667 270.46 76.2001 265.127 76.2001C259.993 76.2001 256.027 74.7667 253.227 71.9001C250.493 68.9667 249.127 64.8001 249.127 59.4001V36.5C249.127 34.1667 248.793 32.4001 248.127 31.2001C247.46 29.9334 246.227 28.7667 244.427 27.7001C243.96 27.4334 243.693 27.2334 243.627 27.1001C243.493 26.9001 243.427 26.6667 243.427 26.4001V25.2001C243.427 24.5334 243.827 24.2001 244.627 24.2001H271.027Z" fill="#FB3F3F"/>
<path d="M294.545 24.2001C297.812 24.2001 300.412 24.8001 302.345 26.0001C304.345 27.1334 305.712 28.9334 306.445 31.4001C307.979 28.6667 310.045 26.6 312.645 25.2001C315.312 23.7334 318.312 23 321.645 23C326.445 23 330.112 24.4334 332.645 27.3C335.179 30.1667 336.445 34.2334 336.445 39.5001V71.8001C336.445 72.9334 336.179 73.7667 335.645 74.3001C335.179 74.7667 334.312 75.0001 333.045 75.0001H315.045C313.779 75.0001 312.879 74.7667 312.345 74.3001C311.879 73.7667 311.645 72.9334 311.645 71.8001V37.4001C311.645 36.6667 311.479 36.0667 311.145 35.6001C310.812 35.1334 310.345 34.9001 309.745 34.9001C308.945 34.9001 308.379 35.1667 308.045 35.7001V71.8001C308.045 72.9334 307.779 73.7667 307.245 74.3001C306.779 74.7667 305.912 75.0001 304.645 75.0001H286.645C285.379 75.0001 284.479 74.7667 283.945 74.3001C283.479 73.7667 283.245 72.9334 283.245 71.8001V36.5C283.245 34.1667 282.912 32.4001 282.245 31.2001C281.579 29.9334 280.345 28.7667 278.545 27.7001C278.079 27.4334 277.812 27.2334 277.745 27.1001C277.612 26.9001 277.545 26.6667 277.545 26.4001V25.2001C277.545 24.5334 277.945 24.2001 278.745 24.2001H294.545Z" fill="#FB3F3F"/>
<path d="M373.971 15.6C373.971 13.7334 374.638 12.1667 375.971 10.9001C377.371 9.63338 379.104 9.00005 381.171 9.00005C382.571 9.00005 383.738 9.26672 384.671 9.80005C385.004 9.46672 385.171 9.06672 385.171 8.60005C385.171 8.00005 384.771 7.53338 383.971 7.20005C383.171 6.80005 382.104 6.60005 380.771 6.60005C378.038 6.60005 375.738 7.46672 373.871 9.20005C372.004 10.9334 371.071 13.1 371.071 15.7C371.071 17.6334 371.704 19.4334 372.971 21.1001C374.238 22.7667 376.071 24.1667 378.471 25.3001C383.738 27.8334 387.504 30.5667 389.771 33.5C392.038 36.4334 393.171 40.0667 393.171 44.4C393.171 48.6667 392.071 52.5001 389.871 55.9001C387.738 59.2334 384.638 61.8667 380.571 63.8001C376.504 65.6667 371.771 66.6001 366.371 66.6001C359.571 66.6001 353.838 65.1334 349.171 62.2001C348.638 62.7334 348.371 63.3001 348.371 63.9001C348.371 64.8334 349.138 65.7334 350.671 66.6001C352.271 67.4667 354.471 68.2001 357.271 68.8001C360.071 69.3334 363.104 69.6001 366.371 69.6001C369.038 69.5334 371.538 69.3667 373.871 69.1001C376.204 68.8334 378.338 68.6667 380.271 68.6001C384.671 68.6001 388.104 69.7001 390.571 71.9001C393.104 74.1001 394.371 77.1667 394.371 81.1001C394.371 84.7001 393.204 87.8334 390.871 90.5001C388.604 93.2334 385.304 95.3334 380.971 96.8001C376.638 98.3334 371.538 99.1001 365.671 99.1001C358.604 99.1001 352.904 98.1334 348.571 96.2001C344.238 94.3334 342.071 91.8667 342.071 88.8001C342.071 87.1334 342.671 85.6001 343.871 84.2001C340.804 81.2667 339.271 77.4667 339.271 72.8001C339.271 70.1334 339.838 67.6667 340.971 65.4001C342.171 63.1334 343.838 61.2667 345.971 59.8C341.571 55.8 339.371 50.8 339.371 44.8C339.371 40.8 340.438 37.1667 342.571 33.9001C344.704 30.5667 347.738 27.9334 351.671 26.0001C355.604 24.0001 360.071 23 365.071 23C365.671 23 366.271 23.0334 366.871 23.1C367.471 23.1 368.071 23.1667 368.671 23.3001C368.138 22.3667 367.704 21.3334 367.371 20.2001C366.971 18.8001 366.771 17.3667 366.771 15.9001C366.771 12.1667 368.171 9.10005 370.971 6.70005C373.771 4.30005 377.304 3.10005 381.571 3.10005C385.571 3.10005 388.804 4.10005 391.271 6.10005C393.738 8.03338 394.971 10.5667 394.971 13.7001C394.971 16.5 393.938 18.8001 391.871 20.6001C389.804 22.3334 387.171 23.2001 383.971 23.2001C381.104 23.2001 378.704 22.5001 376.771 21.1001C374.904 19.6334 373.971 17.8 373.971 15.6ZM366.271 62.0001C367.471 62.0001 368.071 61.1001 368.071 59.3001V30.3C368.071 28.5 367.471 27.6 366.271 27.6C365.071 27.6 364.471 28.5 364.471 30.3V59.3001C364.471 61.1001 365.071 62.0001 366.271 62.0001ZM378.371 89.0001C374.238 90.6667 369.738 91.5001 364.871 91.5001C358.271 91.5001 352.571 90.0334 347.771 87.1001C347.238 87.5001 346.971 88.0667 346.971 88.8001C346.971 90.2667 348.804 91.5667 352.471 92.7001C356.204 93.9 360.438 94.5001 365.171 94.5001C368.838 94.5001 372.071 94.1334 374.871 93.4001C377.671 92.6667 379.071 91.6667 379.071 90.4001C379.071 89.8001 378.838 89.3334 378.371 89.0001Z" fill="#FB3F3F"/>
<path d="M203.8 155.6C205 155.6 205.6 154.7 205.6 152.9V114.3C205.6 112.5 205 111.6 203.8 111.6C202.6 111.6 202 112.5 202 114.3V152.9C202 154.7 202.6 155.6 203.8 155.6ZM203.8 160.2C194.4 160.2 187.233 157.933 182.3 153.4C177.433 148.867 175 142.267 175 133.6C175 124.933 177.433 118.333 182.3 113.8C187.233 109.267 194.4 107 203.8 107C213.2 107 220.333 109.267 225.2 113.8C230.133 118.333 232.6 124.933 232.6 133.6C232.6 142.267 230.133 148.867 225.2 153.4C220.333 157.933 213.2 160.2 203.8 160.2Z" fill="#FB3F3F"/>
<path d="M238.426 108.2C244.159 108.2 248.059 109.9 250.126 113.3C252.059 111.167 254.226 109.6 256.626 108.6C259.026 107.533 261.792 107 264.926 107C269.792 107 273.792 108.333 276.926 111C280.059 113.667 281.626 117.067 281.626 121.2C281.626 124.667 280.359 127.5 277.826 129.7C275.292 131.833 272.026 132.9 268.026 132.9C264.092 132.9 260.859 131.9 258.326 129.9C255.859 127.9 254.626 125.367 254.626 122.3C254.626 119.7 255.526 117.567 257.326 115.9C259.126 114.233 261.426 113.4 264.226 113.4C264.426 113.067 264.526 112.733 264.526 112.4C264.526 111.467 263.826 111 262.426 111C259.492 111 256.959 112.133 254.826 114.4C252.692 116.6 251.626 119.267 251.626 122.4C251.626 125.067 252.359 127.433 253.826 129.5C255.359 131.5 257.526 133.1 260.326 134.3C261.259 134.7 261.859 135.167 262.126 135.7C262.459 136.167 262.626 137 262.626 138.2V155.8C262.626 157.933 261.492 159 259.226 159H238.926C236.859 159 235.826 157.933 235.826 155.8V120.5C235.826 118.167 235.492 116.4 234.826 115.2C234.159 113.933 232.926 112.767 231.126 111.7C230.659 111.433 230.392 111.233 230.326 111.1C230.192 110.9 230.126 110.667 230.126 110.4V109.2C230.126 108.533 230.526 108.2 231.326 108.2H238.426Z" fill="#FB3F3F"/>
<path d="M307.423 145.9C307.423 147.5 308.057 148.3 309.323 148.3C310.057 148.3 310.623 148.033 311.023 147.5V116.6C310.623 116.067 310.057 115.8 309.323 115.8C308.057 115.8 307.423 116.6 307.423 118.2V145.9ZM311.023 99.4C311.023 97.0666 310.69 95.3 310.023 94.1C309.357 92.8333 308.123 91.6666 306.323 90.6C305.857 90.3333 305.557 90.1333 305.423 90C305.357 89.8 305.323 89.5666 305.323 89.3V88.1C305.323 87.4333 305.723 87.1 306.523 87.1H332.423C333.69 87.1 334.557 87.3666 335.023 87.9C335.557 88.3666 335.823 89.1666 335.823 90.3V143.9C335.823 145.033 335.923 145.8 336.123 146.2C336.323 146.6 336.657 146.8 337.123 146.8C337.723 146.8 338.157 146.533 338.423 146C338.69 145.467 338.923 144.433 339.123 142.9C339.257 141.767 339.39 141.1 339.523 140.9C339.657 140.633 339.923 140.5 340.323 140.5H342.023C342.423 140.5 342.69 140.733 342.823 141.2C343.023 141.667 343.123 142.433 343.123 143.5C343.123 148.833 341.723 152.967 338.923 155.9C336.19 158.767 332.257 160.2 327.123 160.2C320.457 160.2 315.657 157.433 312.723 151.9C309.79 157.433 305.257 160.2 299.123 160.2C293.257 160.2 288.657 157.833 285.323 153.1C282.057 148.3 280.423 141.667 280.423 133.2C280.423 124.933 282.09 118.5 285.423 113.9C288.757 109.3 293.423 107 299.423 107C304.357 107 308.223 108.4 311.023 111.2V99.4Z" fill="#FB3F3F"/>
<path d="M365.47 135.9C365.47 137.433 366.77 138.867 369.37 140.2C371.97 141.467 374.87 142.1 378.07 142.1C384.403 142.1 389.603 139.967 393.67 135.7C394.07 135.3 394.336 135.067 394.47 135C394.67 134.867 394.936 134.8 395.27 134.8H396.47C396.936 134.8 397.236 134.967 397.37 135.3C397.57 135.633 397.67 136.233 397.67 137.1C397.67 141.233 396.536 145.067 394.27 148.6C392.07 152.067 388.903 154.867 384.77 157C380.703 159.133 376.136 160.2 371.07 160.2C365.67 160.2 360.803 159.1 356.47 156.9C352.136 154.7 348.67 151.567 346.07 147.5C343.536 143.433 342.27 138.8 342.27 133.6C342.27 128.467 343.47 123.9 345.87 119.9C348.27 115.9 351.67 112.767 356.07 110.5C360.536 108.167 365.736 107 371.67 107C376.136 107 380.136 107.7 383.67 109.1C387.27 110.5 390.103 112.5 392.17 115.1C394.236 117.7 395.27 120.7 395.27 124.1C395.27 128.433 393.703 132.033 390.57 134.9C387.436 137.7 383.47 139.1 378.67 139.1C373.87 139.1 369.97 137.5 366.97 134.3C366.57 134.3 366.203 134.467 365.87 134.8C365.603 135.067 365.47 135.433 365.47 135.9ZM368.47 129C368.87 129.533 369.403 129.8 370.07 129.8C371.27 129.8 371.87 129.133 371.87 127.8V113.6C371.87 112.267 371.27 111.6 370.07 111.6C369.403 111.6 368.87 111.867 368.47 112.4V129Z" fill="#FB3F3F"/>
<path d="M402.375 108.2C408.108 108.2 412.008 109.9 414.075 113.3C416.008 111.167 418.175 109.6 420.575 108.6C422.975 107.533 425.742 107 428.875 107C433.742 107 437.742 108.333 440.875 111C444.008 113.667 445.575 117.067 445.575 121.2C445.575 124.667 444.308 127.5 441.775 129.7C439.242 131.833 435.975 132.9 431.975 132.9C428.042 132.9 424.808 131.9 422.275 129.9C419.808 127.9 418.575 125.367 418.575 122.3C418.575 119.7 419.475 117.567 421.275 115.9C423.075 114.233 425.375 113.4 428.175 113.4C428.375 113.067 428.475 112.733 428.475 112.4C428.475 111.467 427.775 111 426.375 111C423.442 111 420.908 112.133 418.775 114.4C416.642 116.6 415.575 119.267 415.575 122.4C415.575 125.067 416.308 127.433 417.775 129.5C419.308 131.5 421.475 133.1 424.275 134.3C425.208 134.7 425.808 135.167 426.075 135.7C426.408 136.167 426.575 137 426.575 138.2V155.8C426.575 157.933 425.442 159 423.175 159H402.875C400.808 159 399.775 157.933 399.775 155.8V120.5C399.775 118.167 399.442 116.4 398.775 115.2C398.108 113.933 396.875 112.767 395.075 111.7C394.608 111.433 394.342 111.233 394.275 111.1C394.142 110.9 394.075 110.667 394.075 110.4V109.2C394.075 108.533 394.475 108.2 395.275 108.2H402.375Z" fill="#FB3F3F"/>
</svg>
